<?xml version="1.0" standalone="no"?>
<!DOCTYPE svg PUBLIC "-//W3C//DTD SVG 1.1//EN" "http://www.w3.org/Graphics/SVG/1.1/DTD/svg11.dtd" >
<svg xmlns="http://www.w3.org/2000/svg">
<metadata></metadata>
<defs>
<font id="plantagenet_cherokeeregular" horiz-adv-x="1065" >
<font-face units-per-em="2048" ascent="1638" descent="-410" />
<missing-glyph horiz-adv-x="537" />
<glyph horiz-adv-x="2048" />
<glyph horiz-adv-x="2048" />
<glyph unicode="&#xd;" horiz-adv-x="537" />
<glyph unicode=" "  horiz-adv-x="537" />
<glyph unicode="&#x09;" horiz-adv-x="537" />
<glyph unicode="&#xa0;" horiz-adv-x="537" />
<glyph unicode="!" horiz-adv-x="440" d="M131 1243q0 55 27.5 94t91.5 39q69 0 97 -38t28 -95q0 -22 -5 -54t-12.5 -63.5t-14.5 -63.5t-11 -54q-10 -58 -19.5 -112t-16.5 -125t-11 -168t-4 -241q0 -10 -11.5 -14t-24 -4t-23.5 4t-11 14q0 144 -3 242t-8 169t-13.5 125t-16.5 112q-10 53 -24.5 117.5t-14.5 115.5z M141 86q0 45 30 74.5t75 29.5t74.5 -29.5t29.5 -74.5t-29.5 -74.5t-74.5 -29.5t-75 29.5t-30 74.5z" />
<glyph unicode="&#x22;" horiz-adv-x="557" d="M70 1307q-7 34 12.5 51.5t58.5 17.5q42 0 63 -16.5t17 -50.5l-39 -424q-5 -17 -31 -16t-30 18zM336 1307q-6 34 13.5 51.5t58.5 17.5q42 0 63 -16.5t16 -50.5l-38 -424q-5 -18 -32 -16q-26 1 -30 18z" />
<glyph unicode="#" d="M4 457l14 94h256l43 301h-258l15 106h260l63 426h115l-63 -426h256l61 426h115l-62 -426h242l-14 -106h-244l-41 -301h248l-15 -94h-252l-63 -457h-115l64 457h-258l-68 -457h-115l68 457h-252zM389 551h258l41 301h-256z" />
<glyph unicode="$" d="M129 -6q5 45 9.5 96.5t4.5 102.5q0 52 -3 103.5t-9 106.5q-2 12 6.5 20t19.5 9.5t21 -3t12 -17.5q12 -80 39.5 -145t69 -112t94.5 -74t115 -30v559l-12 6q-6 3 -13 7q-60 31 -120 64t-107 78t-76.5 106.5t-29.5 148.5q0 86 29.5 147t79 101.5t114 62t135.5 27.5v115 q0 13 13.5 20t29.5 7q18 0 31.5 -6.5t13.5 -20.5v-111q38 -2 69.5 -10t69.5 -21q23 -8 39 -12t29 -4q11 0 18.5 3t14.5 15q4 9 13 12t18.5 2.5t16 -5.5t5.5 -13q-8 -35 -11.5 -70t-3.5 -77q0 -26 1.5 -49t3.5 -45.5t5 -46.5t5 -52q1 -7 -7 -11.5t-17.5 -5.5t-18.5 2.5 t-10 14.5q-17 79 -37.5 132t-48 86t-65.5 48.5t-89 20.5v-494q65 -34 128 -72t112.5 -89t79.5 -118.5t30 -160.5q0 -89 -29.5 -154.5t-78 -110.5t-112 -70t-130.5 -34v-139q0 -15 -14 -22t-31 -7q-16 0 -29.5 7t-13.5 22v133q-26 0 -55.5 4.5t-60 13t-60.5 21t-56 29.5 q-8 5 -17 8.5t-21 3.5q-11 0 -26 -12t-28 -43q-5 -12 -14 -15.5t-18.5 -2t-16.5 7t-6 12.5zM322 1073q0 -52 16 -90t42 -66t59.5 -49t68.5 -39v447q-39 -5 -73 -21t-59 -41.5t-39.5 -60.5t-14.5 -80zM596 59q37 9 69 27t56 46t37.5 65t13.5 82q0 53 -14.5 95.5t-39 76 t-56.5 60.5t-66 48v-500z" />
<glyph unicode="%" horiz-adv-x="1706" d="M92 958q0 76 27.5 140.5t75 111.5t111.5 74t138 27q82 0 143.5 -32.5t100.5 -92.5q18 -6 33.5 -9.5t33 -5.5t39 -3t52.5 -1q110 0 199 54q92 56 143 127q9 9 21 9t21 -2.5t15 -10t2 -17.5l-729 -1477q-5 -10 -18 -10t-25.5 3.5t-20.5 11.5t-3 18l628 1294q2 4 -3 7.5 t-9 -0.5q-48 -27 -108.5 -45.5t-120.5 -18.5q-11 0 -26 1t-32 3t-34 5t-31 7q16 -42 24.5 -79.5t8.5 -88.5q0 -65 -19.5 -130.5t-58.5 -118t-98.5 -86t-139.5 -33.5q-74 0 -136.5 22.5t-107.5 68t-70.5 115t-25.5 162.5zM250 958q0 -137 51 -227t150 -90q54 0 96.5 26.5 t71.5 70.5t44 101t15 119q0 143 -57.5 220t-178.5 77q-94 0 -143 -79.5t-49 -217.5zM958 266q0 76 27.5 140.5t75 111.5t112 73.5t138.5 26.5q76 0 133 -28.5t94.5 -78t56.5 -116t19 -143.5q0 -65 -19.5 -128.5t-57.5 -113.5t-95.5 -81t-132.5 -31q-157 0 -254 90t-97 278z M1116 266q0 -137 51 -227q52 -90 150 -90q54 0 96.5 24.5t71.5 65.5t44 96t15 117q0 147 -58.5 229t-182.5 82q-45 0 -80 -20.5t-59 -59t-36 -93.5t-12 -124z" />
<glyph unicode="&#x26;" horiz-adv-x="1497" d="M61 254q0 83 24 143t66 105t97.5 78.5t118.5 64.5q-33 35 -64 69t-55 72.5t-38.5 85t-14.5 107.5q0 51 20 103.5t62.5 95t108.5 69.5t159 27q58 0 116.5 -15t106 -47.5t77 -84.5t29.5 -126q0 -62 -29.5 -110.5t-74.5 -87t-98.5 -68.5t-100.5 -53q81 -85 160 -166 t164 -166q74 94 131.5 165t107.5 119t96.5 72.5t98.5 24.5q63 0 96 -30.5t33 -73.5q0 -36 -21 -64q-19 -28 -77 -28q-21 0 -35 4.5t-21.5 11.5t-10.5 15t-3 14q0 38 -39 38q-22 0 -44.5 -14t-55 -50t-81 -97.5t-122.5 -155.5q31 -29 70 -64.5t81 -67.5t84 -53.5t79 -21.5 q71 0 106 34t49 93q2 8 10 12.5t18 4.5q12 0 22 -6.5t8 -20.5q-5 -46 -25 -92t-54 -82.5t-80.5 -59t-103.5 -22.5q-61 0 -114 16t-100.5 43t-90.5 63t-82 75q-8 6 -14 0q-88 -102 -183 -149.5t-210 -47.5q-72 0 -136.5 19t-113.5 56.5t-78 93.5t-29 130zM285 313 q0 -49 11.5 -89.5t36.5 -69t63 -44.5t91 -16q72 0 150 30q77 30 127 75q8 8 -2 18q-90 96 -175 186.5t-171 186.5q-72 -60 -101.5 -131t-29.5 -146zM367 1014q0 -39 16 -76.5t40 -72.5t51.5 -66t51.5 -58q48 22 81.5 47t55.5 55t32 67t10 83q0 50 -14.5 88.5t-38 65 t-52.5 40t-57 13.5q-55 0 -89 -16t-53.5 -42t-26.5 -59.5t-7 -68.5z" />
<glyph unicode="'" horiz-adv-x="299" d="M61 1309q0 34 25 52.5t66 18.5t63.5 -18.5t22.5 -52.5q0 -27 -7.5 -73t-16.5 -103.5t-18.5 -121t-13.5 -124.5q0 -10 -10 -14.5t-21.5 -4.5t-21.5 4.5t-10 14.5q-4 61 -13.5 124.5t-19.5 121t-17.5 103.5t-7.5 73z" />
<glyph unicode="(" horiz-adv-x="694" d="M98 594q0 145 34.5 273t94 237.5t140 200t172.5 161.5q8 7 19 5t19.5 -10t11 -18.5t-6.5 -19.5q-76 -84 -137.5 -168t-104.5 -181.5t-66.5 -216t-23.5 -271.5t24.5 -273t69.5 -222t108.5 -193t141.5 -187q7 -8 3.5 -17t-11.5 -16.5t-18 -10.5t-17 3q-98 78 -181 177.5 t-143.5 216.5t-94.5 250.5t-34 279.5z" />
<glyph unicode=")" horiz-adv-x="694" d="M96.5 -306q-3.5 9 3.5 17q78 96 141.5 187t108.5 193t69.5 222t24.5 273q0 154 -23.5 272t-66.5 215.5t-104.5 181.5t-136.5 168q-9 9 -6.5 19.5t10 18.5t19 10.5t20.5 -5.5q92 -71 172 -161.5t139.5 -200t94 -237.5t34.5 -273q0 -146 -34 -279.5t-94 -251t-143 -216.5 t-182 -177q-6 -6 -16 -3t-18.5 10.5t-12 16.5z" />
<glyph unicode="*" horiz-adv-x="950" d="M133 1266q0 26 21.5 48.5t50.5 22.5q24 0 46.5 -19.5t45 -47t47.5 -56t55 -47.5q7 -4 23 -11t24 -7q5 0 8 8t4 18.5t1 19.5v13q0 47 -8.5 76t-17.5 49.5t-17 38t-8 39.5q0 35 21.5 52.5t47.5 17.5q27 0 48.5 -17.5t21.5 -52.5q0 -22 -8.5 -42.5t-17.5 -44.5t-17 -51.5 t-8 -64.5q0 -24 2 -41.5t10 -17.5q6 0 21.5 7t33.5 18q33 18 54.5 45.5t39 52t38 43t53.5 18.5q28 0 46.5 -20.5t18.5 -46.5q0 -35 -24.5 -51.5t-60.5 -26.5t-76 -18.5t-70 -24.5q-11 -6 -34.5 -16.5t-21.5 -20.5q2 -12 20.5 -21.5t43.5 -21.5q26 -14 65 -20.5t75 -15.5 t61.5 -24.5t25.5 -48.5q0 -28 -21.5 -49.5t-52.5 -21.5q-28 0 -48.5 16.5t-42 41t-45 52t-54.5 49.5q-29 19 -45 19q-10 0 -11 -22.5t-1 -41.5q0 -38 8 -63t18 -44.5t18.5 -37.5t8.5 -43q0 -35 -22.5 -51.5t-49.5 -16.5q-28 0 -49.5 17.5t-21.5 54.5q0 23 8 42.5t18 41 t18.5 47t8.5 60.5q0 14 -1 36.5t-12 22.5q-8 0 -20 -4t-16 -8q-45 -25 -69 -54.5t-41 -54t-35.5 -42t-53.5 -17.5q-29 0 -48.5 25.5t-19.5 54.5q0 30 25 44.5t59.5 21.5t71.5 13.5t61 18.5q21 10 41.5 21.5t20.5 23.5q0 10 -17.5 19.5t-44.5 23.5q-22 12 -60 19.5t-75 17.5 t-64.5 27.5t-27.5 50.5z" />
<glyph unicode="+" horiz-adv-x="1053" d="M102 371v94h377v385h94v-385h377v-94h-377v-391h-94v391h-377z" />
<glyph unicode="," horiz-adv-x="438" d="M54.5 -276q0.5 10 8.5 14q78 37 120 82.5t42 87.5q0 16 -10 27t-25.5 20.5t-33 20t-33 25.5t-25.5 37t-10 54q0 54 33.5 85.5t87.5 31.5q77 0 117 -52q41 -52 41 -122q0 -79 -24.5 -136.5t-64 -99t-88.5 -69t-98 -45.5q-11 -4 -20 2.5t-13.5 16.5t-4 20z" />
<glyph unicode="-" horiz-adv-x="532" d="M32 446q0 27 10.5 51t31.5 25l397 15q15 0 22.5 -18t7.5 -41q0 -27 -11 -50.5t-35 -24.5l-394 -14q-14 0 -21.5 17t-7.5 40z" />
<glyph unicode="." horiz-adv-x="408" d="M72 102q0 52 39 91.5t90 39.5q55 0 93 -39.5t38 -91.5q0 -51 -38 -90t-93 -39q-51 0 -90 39t-39 90z" />
<glyph unicode="/" horiz-adv-x="559" d="M-10 -358l416 1769h133l-422 -1769h-127z" />
<glyph unicode="0" d="M57 715q0 110 21.5 230t77 219.5t149.5 163t238 63.5q135 0 225 -61.5t143.5 -160t75 -219.5t21.5 -239q0 -140 -21.5 -271t-76 -233.5t-143.5 -164.5t-224 -62q-148 0 -242 62t-148.5 164.5t-75 235.5t-20.5 273zM285 711q0 -129 11 -247t41 -209t81 -145.5t133 -54.5 q74 0 120 54.5t70.5 144.5t31.5 209t7 246q0 149 -11 261.5t-40 189.5t-76 116t-118 39q-134 0 -192 -152.5t-58 -451.5z" />
<glyph unicode="1" d="M121 21q0 12 7 22t22 12q62 8 114.5 19t90.5 33t59.5 59t21.5 98v803q0 39 -4.5 65.5t-18.5 42.5t-40.5 22.5t-70.5 6.5q-27 0 -61.5 -2t-78.5 -6q-17 -2 -25 10t-8 27q0 11 5 21.5t16 13.5q118 28 230 60t224 61q17 4 32 -1.5t15 -23.5v-1100q0 -60 18 -97.5t52.5 -60 t84 -34t112.5 -19.5q11 -2 17.5 -12.5t6.5 -22.5t-7 -22t-22 -10q-41 0 -90 3t-100 6t-101.5 6t-93.5 3q-39 0 -89 -3t-101.5 -6t-100.5 -6t-87 -3q-14 0 -21.5 11t-7.5 24z" />
<glyph unicode="2" d="M51 45q0 12 6 29q39 96 89.5 168.5t106.5 129.5t114.5 102.5t114.5 86.5q56 42 106 83t87 90t59 109t22 140q0 148 -64 233q-63 87 -205 87q-65 0 -113.5 -22.5t-80.5 -54t-48 -65t-16 -55.5q0 -9 2 -24t11 -29.5t27 -24.5t50 -10q46 0 65 -23.5t19 -58.5q0 -38 -27 -69 q-25 -31 -81 -31q-53 0 -86 21t-51.5 51t-25.5 63.5t-7 58.5q0 73 31 139t87 115t134.5 78t173.5 29q114 0 196 -27.5t135 -77t78 -118t25 -150.5q0 -118 -52 -204q-52 -87 -130 -156.5t-168 -127.5q-45 -29 -87 -57t-81 -56q-78 -55 -130 -112q-52 -56 -52 -127q0 -5 50 6 q52 11 122 11q39 0 75.5 -4t70 -9.5t65 -9.5t61.5 -4q91 0 141 48q51 49 76 175q2 11 11.5 16.5t20.5 5.5q15 0 28.5 -8t13.5 -22q0 -70 -13.5 -140.5t-41 -127.5t-71 -93t-103.5 -36q-66 0 -134 6.5t-133 15t-124.5 15t-108.5 6.5q-67 2 -115 -16q-25 -8 -46 -14.5 t-38 -10.5q-26 0 -33.5 18.5t-7.5 38.5z" />
<glyph unicode="3" d="M68 180q0 51 28.5 82t81.5 31q33 0 64.5 -21.5t31.5 -64.5q0 -23 -9 -35t-9 -31q0 -26 19.5 -43.5t49 -28t62.5 -14.5t62 -4q86 0 145 30t95 76t52.5 102t16.5 110q0 63 -15.5 120.5t-44 101.5t-71.5 70.5t-101 26.5q-39 0 -72.5 -8t-37.5 -8q-17 0 -25 11t-10 25.5t4 28 t21 15.5q86 12 141 41.5t89 72.5t47 96.5t13 114.5q0 47 -12 88t-40 72t-72 48.5t-109 17.5q-68 0 -118 -20.5t-83 -50.5t-49 -60.5t-16 -51.5q0 -8 2 -22.5t10 -27.5t26.5 -22.5t51.5 -9.5q45 0 64.5 -23.5t19.5 -58.5q0 -36 -27 -68t-82 -32q-53 0 -86 20.5t-51.5 51 t-25.5 64.5t-7 59q0 69 33 131.5t90 108.5t133 73t160 27q80 0 154.5 -20.5t131 -60.5t91.5 -98.5t35 -132.5q0 -118 -77 -193t-206 -124q-6 -2 -6 -8t8 -6q186 -19 271 -117.5t85 -245.5q0 -111 -48 -187.5t-126 -124.5t-178 -70.5t-205 -22.5q-55 0 -120.5 7t-121 28.5 t-92 60.5t-36.5 104z" />
<glyph unicode="4" d="M32.5 395q-0.5 18 8.5 27q100 117 195 241t182 247t164 239.5t141 218.5q8 13 20.5 18.5t26.5 5.5q18 0 32.5 -7t14.5 -15v-895q0 -16 8.5 -18t30.5 -2q18 0 40 3t43.5 9.5t40.5 15.5t30 21q6 8 15 9t17 -3.5t11.5 -12t-0.5 -16.5q-37 -77 -99 -121q-60 -42 -114 -47 q-17 -2 -20 -8t-3 -47v-262q-26 -6 -50 -9t-52 -3q-31 0 -55.5 3t-55.5 9v303q0 20 -5 25q-5 6 -36 12q-86 18 -205 18q-66 0 -135.5 -6t-138.5 -22q-13 -5 -25 6.5t-19 28t-7.5 34.5zM211 479q87 25 182 25q49 0 95 -5t94 -16q16 -4 19 -1t3 14v538q-81 -138 -182.5 -277.5 t-210.5 -277.5z" />
<glyph unicode="5" d="M88 147q0 36 23 74q24 37 71 37q18 0 36 -5.5t32 -17t22.5 -28t8.5 -37.5q0 -10 -3 -17.5t-6.5 -14t-6.5 -13t-3 -14.5q0 -18 17.5 -29.5t44 -18.5t58.5 -9.5t62 -2.5q158 0 228 103q71 104 71 276q0 153 -83 247q-83 93 -257 93q-66 0 -109 -15q-45 -14 -48 -14 q-37 0 -48.5 13.5t-11.5 44.5q0 137 6 270t19 266q0 8 10 19.5t33 11.5q41 0 100.5 -5t127 -11.5t138 -11.5t134.5 -5q33 0 57.5 11.5t41.5 28t27.5 35t16.5 32.5q5 9 18 9q11 0 20.5 -2.5t17.5 -9.5t5 -16q-6 -23 -13.5 -51.5t-18 -57t-25 -56t-35 -49t-48 -34.5t-64.5 -14 q-51 0 -103.5 3t-108.5 10q-55 7 -115.5 11t-127.5 5q-8 -73 -11.5 -140t-3.5 -137v-36.5t1 -38.5q14 7 35.5 13.5t48.5 11.5t57.5 8t62.5 3q97 0 185 -30t155 -85t106.5 -132.5t39.5 -171.5q0 -116 -40 -204.5t-113.5 -148t-177.5 -90t-232 -30.5q-50 0 -107 7.5t-105 26.5 t-80 51.5t-32 81.5z" />
<glyph unicode="6" d="M61 575q0 84 9.5 176.5t33 183.5t65.5 173t106.5 145.5t154.5 100.5t211 37q150 0 232.5 -45.5t82.5 -128.5q0 -37 -28.5 -66t-71.5 -29q-35 0 -60.5 19.5t-25.5 54.5q0 12 7 27.5t7 27.5q0 29 -39.5 48.5t-121.5 19.5q-101 0 -166.5 -49t-104.5 -134t-55 -200t-18 -246 q53 80 134 120t169 40q114 0 195 -34t133.5 -91t76 -131t23.5 -154q0 -100 -35 -184t-97.5 -145.5t-151.5 -96t-198 -34.5q-133 0 -223 46t-144.5 125.5t-77 188.5t-22.5 235zM279 485q0 -86 10 -164.5t39.5 -137t80 -93.5t130.5 -35q82 0 132 37t77.5 93.5t37 124 t9.5 126.5q0 58 -8.5 116t-35 104t-73.5 76t-127 30q-64 0 -114 -26.5t-86 -66.5t-54 -89.5t-18 -94.5z" />
<glyph unicode="7" d="M61 1024q9 90 24.5 155.5t42.5 108.5t68.5 63.5t102.5 20.5q101 0 175.5 -6t136 -13.5t116 -13.5t115.5 -6q54 0 97.5 10.5t76.5 20.5q12 2 21.5 -5t15.5 -16.5t8 -19.5t0 -14q-38 -74 -87 -152.5t-103 -158t-111 -160t-110.5 -159.5t-101 -155.5t-83.5 -148.5 q-23 -45 -31 -85t-8 -75q0 -37 15 -79q16 -41 16 -75q0 -22 -11.5 -37.5t-28 -25t-36 -14t-35.5 -4.5q-35 0 -60.5 23t-25.5 65q0 17 4 48t13.5 70t24.5 83.5t36 88.5q35 74 93 164.5t126.5 190.5t139.5 204.5t132 206.5q11 19 2.5 26t-24.5 7q-49 0 -96 6.5t-103 15 t-126.5 15t-164.5 6.5q-47 0 -72.5 -7t-42.5 -27.5t-31.5 -56.5t-37.5 -93q-3 -8 -11 -11.5t-18 -3.5q-15 0 -29 7t-14 16z" />
<glyph unicode="8" d="M74 330q0 129 79.5 225t221.5 141q-103 66 -174.5 149t-71.5 189q0 84 34 150.5t91 112.5t133 70t160 24q78 0 149.5 -22.5t126 -65.5t87 -105.5t32.5 -142.5q0 -49 -19.5 -95.5t-54 -86t-82 -72.5t-102.5 -56q61 -28 116.5 -62t97.5 -80t66.5 -105.5t24.5 -135.5 q0 -96 -42 -167.5t-109.5 -119.5t-152.5 -71.5t-171 -23.5t-165 20t-140.5 62t-98 109t-36.5 159zM266 371q0 -148 71 -232t193 -84q119 0 191 74t72 190q0 66 -28 114t-74 86t-106.5 68.5t-123.5 63.5q-15 8 -23 0q-76 -49 -124 -122.5t-48 -157.5zM322 1083 q0 -49 21.5 -88t59 -71.5t89 -61t108.5 -59.5q4 -4 11 -2t12 6q53 37 87.5 102.5t34.5 157.5q0 119 -48 183.5t-160 64.5q-97 0 -156 -60.5t-59 -171.5z" />
<glyph unicode="9" d="M61 934q0 100 34 184t96.5 144.5t151.5 94.5t200 34q137 0 225 -56.5t140.5 -145.5t72.5 -196.5t20 -212.5q0 -75 -10 -164.5t-34.5 -178.5t-64.5 -172t-101.5 -146.5t-145.5 -101t-194 -37.5q-64 0 -128.5 10t-115.5 32.5t-84 61.5t-33 94q0 47 30 82t83 35 q33 0 63.5 -22.5t30.5 -69.5q0 -21 -9 -33t-9 -29q0 -49 52 -69.5t132 -20.5q92 0 155.5 49.5t101.5 134t55.5 199.5t19.5 246q-68 -92 -148 -127t-178 -35q-117 0 -194.5 35t-125 93.5t-68 133t-20.5 154.5zM268 938q0 -57 8.5 -116.5t35 -106.5t73.5 -78t127 -31 q63 0 115.5 25.5t89.5 68.5t57.5 99.5t20.5 118.5q0 75 -12.5 147t-42 127t-82 89t-132.5 34q-82 0 -133 -37t-78.5 -92.5t-37 -122t-9.5 -125.5z" />
<glyph unicode=":" horiz-adv-x="483" d="M160 102q0 52 39 91.5t90 39.5q55 0 93 -39.5t38 -91.5q0 -51 -38 -90t-93 -39q-51 0 -90 39t-39 90zM162 737q0 52 39 91.5t90 39.5q55 0 93 -39.5t38 -91.5q0 -51 -38 -90t-93 -39q-51 0 -90 39t-39 90z" />
<glyph unicode=";" horiz-adv-x="551" d="M160.5 -276q0.5 10 8.5 14q78 37 120 82.5t42 87.5q0 16 -10 27t-25.5 20.5t-33 20t-33 25.5t-25.5 37t-10 54q0 54 33.5 85.5t87.5 31.5q77 0 117 -52q41 -52 41 -122q0 -79 -24.5 -136.5t-64 -99t-88.5 -69t-98 -45.5q-11 -4 -20 2.5t-13.5 16.5t-4 20zM195 745 q0 52 39 91.5t90 39.5q55 0 93 -39.5t38 -91.5q0 -51 -38 -90t-93 -39q-51 0 -90 39t-39 90z" />
<glyph unicode="&#x3c;" horiz-adv-x="934" d="M2 467q0 16 7 31.5t22 21.5q217 101 434 205t409 231q3 2 5 2q10 0 12 -19t2 -42q0 -33 -9.5 -65.5t-33.5 -43.5q-33 -12 -106.5 -45.5t-169 -77.5t-203 -97.5t-207.5 -104.5q100 -49 207.5 -102.5t204 -99.5t170 -81t104.5 -49q24 -10 35.5 -42t11.5 -64q0 -15 -4 -38.5 t-14 -23.5q-7 0 -9 2q-194 131 -410 240.5t-427 208.5q-31 14 -31 53z" />
<glyph unicode="=" horiz-adv-x="1090" d="M66 276v91h958v-91h-958zM66 590v90h958v-90h-958z" />
<glyph unicode="&#x3e;" horiz-adv-x="934" d="M37 25q0 32 11 64t36 42q31 14 104.5 49t170 81t204 99.5t207.5 102.5q-100 51 -207.5 104.5t-203 97.5t-169 77.5t-106.5 45.5q-25 11 -34 43.5t-9 65.5q0 23 2 42t12 19q197 -129 414 -233t434 -205q15 -6 22 -21.5t7 -31.5q0 -39 -31 -53q-211 -99 -427 -208.5 t-411 -240.5l-8 -2q-10 0 -14 23.5t-4 38.5z" />
<glyph unicode="?" horiz-adv-x="817" d="M86 1307q0 39 35 71.5t117 32.5q116 0 210.5 -30.5t160 -88t101 -136.5t35.5 -177t-26.5 -169t-76.5 -117t-124 -69.5t-166 -29.5q-14 0 -22 -4t-13.5 -15.5t-6.5 -33t-1 -58.5q0 -28 2 -55t8 -61q5 -17 -10.5 -26t-32.5 -9q-14 0 -26 5t-17 19q-4 19 -11 74t-7 123 q0 39 4 83t12.5 80t17.5 59.5t21 23.5q41 0 77 -8.5t69 -8.5q127 2 188.5 61.5t61.5 186.5q0 57 -26 107.5t-70 88.5t-105.5 59.5t-134.5 21.5q-41 0 -58.5 -13.5t-28 -30t-23.5 -29.5t-44 -13q-43 0 -66.5 25.5t-23.5 60.5zM219 66q0 36 26.5 66t69.5 30q41 0 71 -24.5 t30 -67.5q0 -37 -25.5 -67t-71.5 -30q-40 0 -70 27t-30 66z" />
<glyph unicode="@" horiz-adv-x="1833" d="M190 375q0 196 66 342.5t175.5 243t249.5 143.5t290 47q145 0 268 -46t213 -132t140 -207t50 -268q0 -246 -93 -382t-300 -136q-86 0 -126 35.5t-56 93.5q-35 -56 -84 -92.5t-139 -36.5q-80 0 -138.5 34.5t-96.5 92t-56 133t-18 159.5q0 99 25.5 186t73.5 152.5 t117.5 103.5t159.5 38q37 0 69 -8.5t56.5 -17.5t42 -17.5t27.5 -8.5q12 0 28.5 10.5t26.5 20.5q4 4 12.5 9t24.5 5t29.5 -5t11.5 -15q-8 -57 -11 -116.5t-4 -130t0 -154.5t1 -189q0 -20 1 -49t9 -55.5t25.5 -45t48.5 -18.5q63 0 110 31t77 85t44 128t14 158 q0 116 -39.5 221.5t-114.5 185.5t-184.5 126t-248.5 46q-152 0 -278 -46t-217 -135t-142 -219t-51 -300q0 -154 52 -288t142 -232.5t210 -155.5t255 -57q37 0 82 6t84 17t65.5 26.5t26.5 36.5q0 14 -8 21t-17.5 14.5t-16.5 17.5t-7 33q0 32 22.5 53.5t55.5 21.5 q45 0 73.5 -30.5t28.5 -73.5q0 -72 -45 -115t-106.5 -66.5t-128 -30.5t-109.5 -7q-178 0 -316.5 67.5t-234.5 179t-146.5 258t-50.5 304.5zM727 401q0 -51 9 -107t28.5 -104.5t48.5 -80t68 -31.5q80 0 116.5 54t46.5 128q7 53 8 115.5t1 124.5q0 39 -1 98t-5 98 q-5 41 -40.5 78t-99.5 37q-47 0 -80.5 -40t-56 -100.5t-33 -132t-10.5 -137.5z" />
<glyph unicode="A" horiz-adv-x="1503" d="M11 26q0 11 5.5 20t18.5 11l31 4q31 7 55.5 17t46.5 29.5t42 53t42 87.5l463 1165q6 17 33 17q28 0 45 -17q51 -131 109.5 -280.5t119.5 -304t122.5 -307t117.5 -288.5q24 -59 47 -91.5t47 -49.5t49 -23t53 -12q12 -2 17.5 -13t5.5 -23q0 -13 -5 -23t-16 -10 q-32 0 -63.5 2t-62.5 6q-30 4 -64 6t-72 2q-87 0 -162 -8t-145 -8q-14 0 -21.5 11t-7.5 26q0 12 6 21t21 11q70 9 102 25q33 16 33 68q0 14 -3 32.5t-13 50.5t-28.5 82t-49.5 127q-10 27 -27.5 34t-56.5 7h-361q-28 0 -40.5 -9t-22.5 -32l-92 -241q-11 -33 -11 -47 q0 -26 13.5 -44t36 -29t51.5 -16.5t59 -7.5q15 0 21 -11t6 -23q0 -13 -6 -24t-21 -11q-24 0 -53 2.5t-59.5 5.5t-61.5 5.5t-59 2.5q-53 0 -102.5 -8t-106.5 -8q-12 0 -19 12t-7 26zM477 572q8 -8 31 -9h330q28 -1 38 9q5 5 6 14q0 8 -5 20l-179 479q-4 11 -16 11t-16 -11 l-187 -479q-6 -14 -6 -23q0 -7 4 -11z" />
<glyph unicode="B" horiz-adv-x="1262" d="M55 1351q0 12 5.5 21.5t17.5 9.5q35 0 65.5 -1t58.5 -3t60.5 -3t69.5 -1q30 0 68 1t77.5 2.5t78 3t69.5 1.5q53 0 111 -5.5t113.5 -19.5t106 -38t88 -61t60 -88t22.5 -119q0 -64 -20 -112t-54 -84t-79 -61.5t-94 -43.5q-11 -5 -11 -13t11 -10q161 -44 251 -131 q89 -86 89 -244q0 -107 -38.5 -176t-101.5 -109.5t-144 -56.5t-167 -16q-39 0 -87 1.5t-99.5 3.5t-103.5 3.5t-97 1.5q-44 0 -78 -1t-66 -3t-66 -5t-77 -7h-3q-9 0 -15 10q-6 12 -7 25q0 12 5.5 22.5t17.5 11.5q50 6 85.5 16.5t58 31.5t33 55t10.5 86v786q0 44 -3 87.5 t-14 80.5t-32 63.5t-58 36.5q-22 7 -47 11t-47 6q-11 0 -17 10.5t-6 23.5zM502 403q0 -111 7 -174.5t28.5 -96t62.5 -40.5t109 -8q143 0 200 67q58 67 58 205q0 99 -28.5 161t-77 97.5t-114 48.5t-139.5 13h-39q-43 0 -55 -15q-12 -14 -12 -67v-191zM502 815q0 -27 9 -40 t40 -13h39q67 0 123.5 11.5t97.5 41.5t64.5 83t23.5 136q0 71 -18 120.5t-52.5 81t-86 46t-117.5 14.5h-70q-20 0 -30.5 -5t-15.5 -16.5t-6 -29.5t-1 -43v-387z" />
<glyph unicode="C" horiz-adv-x="1411" d="M82 680q0 180 55.5 318.5t152.5 231.5t231 140t292 47q92 0 170 -22.5t154 -59.5q22 -10 41.5 -19t33.5 -9q33 0 43 39q2 8 13.5 12t23 3t19.5 -5t6 -13q-8 -32 -11 -67t-3 -72q0 -57 8 -114.5t16 -118.5q0 -8 -9 -13.5t-22.5 -6.5t-26 3t-14.5 15q-51 184 -165.5 271 t-288.5 87q-135 0 -223.5 -57.5t-140.5 -146.5t-72.5 -198.5t-20.5 -213.5q0 -115 24.5 -229.5t80 -207t144.5 -150.5t216 -58q98 0 176 17t131 64q66 60 105 143t55 187q2 15 13 19t23.5 1t23 -11.5t7.5 -16.5q-6 -41 -8 -81t-2 -81q0 -69 5 -142t10 -153q0 -12 -8.5 -18 t-19.5 -7t-21.5 4t-12.5 15q-4 19 -14 36t-26.5 28.5t-38 11.5t-48.5 -14q-45 -25 -87 -42.5t-85 -27.5t-90 -14t-102 -4q-363 0 -538 181t-175 519z" />
<glyph unicode="D" horiz-adv-x="1509" d="M53 1349q0 12 6 22.5t19 10.5q35 0 65.5 -1t58.5 -3t60.5 -3t69.5 -1q85 0 166 4t166 4q168 0 309.5 -53.5t245 -148.5t161.5 -226.5t58 -287.5q0 -172 -55 -299.5t-152 -211.5t-229 -125.5t-285 -41.5q-93 0 -179.5 8t-156.5 8q-44 0 -78.5 -1.5t-67 -3.5t-66.5 -5.5 t-75 -7.5h-4q-11 0 -17 10q-8 12 -8 26q0 11 6.5 21t22.5 12q49 7 84 17.5t57.5 31t33 54t10.5 86.5v788q0 69 -7.5 120.5t-29.5 87t-61 54.5t-103 23q-13 0 -19 10t-6 22zM502 385q0 -102 8.5 -162.5t35.5 -91.5t77.5 -40t134.5 -9q92 0 168.5 38.5t132 113.5t86.5 184 t31 250q0 150 -30.5 265.5t-101 193.5t-185.5 118.5t-284 40.5q-40 0 -56.5 -14.5t-16.5 -54.5v-832z" />
<glyph unicode="E" horiz-adv-x="1229" d="M55 1348q0 13 6 23.5t17 10.5q68 0 124 -3q55 -3 130 -3h735q18 0 31 -4q16 -5 12 -33q-3 -16 -3.5 -35t-0.5 -40v-33q0 -45 3 -87.5t3 -84.5q0 -8 -10.5 -12.5t-22.5 -4.5q-11 0 -20.5 4t-11.5 13q-14 79 -29 124.5t-41.5 69t-70 29.5t-115.5 8h-123q-59 0 -92 -2 t-49.5 -15t-20.5 -41.5t-4 -80.5v-358q0 -29 10 -36t20 -7q95 0 149 8.5t81.5 29.5t37 56.5t15.5 89.5q2 11 13.5 16.5t24.5 5.5q12 0 21 -5.5t9 -16.5q0 -33 -2 -58.5t-4.5 -51t-4.5 -53.5t-2 -64q0 -63 6 -112q4 -25 5.5 -55.5t1.5 -66.5q0 -10 -10 -15t-22 -5 q-13 0 -23.5 5t-12.5 15q-6 60 -15.5 97t-37 58t-81.5 28.5t-149 7.5q-10 0 -20 -7.5t-10 -29.5v-269q0 -94 8.5 -148t38 -81.5t86 -35t151.5 -7.5q51 0 93.5 4t64.5 12q40 15 70 32t51 43t34 66t21 101q2 11 13.5 16t25.5 5q15 0 27 -6q10 -5 10 -14l-18 -164 q-7 -60 -7 -122v-30q0 -3 -1.5 -8t-6.5 -9.5t-14.5 -8t-24.5 -3.5h-743q-78 0 -152.5 -4t-134.5 -8q-13 0 -20 11t-7 25q0 11 5.5 21t19.5 12q48 6 83.5 17.5t58.5 33t34 55t11 83.5v788q0 45 -3 88.5t-14 79.5t-32 62t-58 36q-22 7 -47 11t-47 6q-12 0 -17.5 9.5t-5.5 21.5 z" />
<glyph unicode="F" horiz-adv-x="1145" d="M53 1351q0 12 6 22.5t19 10.5q35 0 65.5 -1t58.5 -3t60.5 -3t69.5 -1h735q18 0 31 -4q16 -5 12 -33q-2 -23 -3 -48t-1 -53v-35q2 -78 6 -142q0 -9 -10.5 -14.5t-23.5 -5.5q-11 0 -21 4.5t-13 15.5q-14 80 -28 125t-40 67.5t-69.5 28.5t-115.5 8h-123q-53 0 -85.5 -2 t-50.5 -15t-24 -41.5t-6 -80.5v-375q0 -28 10 -35.5t20 -7.5q95 0 149 8.5t81.5 29.5t37 57t15.5 90q2 12 13 18t24 6q12 0 21.5 -6t9.5 -18q0 -33 -2 -59t-4.5 -51.5t-4.5 -53.5t-2 -64q0 -61 6 -112q4 -25 5.5 -55.5t1.5 -65.5q0 -11 -8.5 -15.5t-19.5 -4.5q-13 0 -25.5 6 t-14.5 18q-6 60 -15.5 96.5t-37 56.5t-81.5 26.5t-149 6.5q-10 0 -20 -7t-10 -30v-327q0 -71 11.5 -112.5t39 -65t72.5 -33t112 -15.5q14 0 20.5 -10t6.5 -23q0 -14 -7.5 -25t-21.5 -11q-55 0 -102 2t-87 6t-78 6t-75 2q-78 0 -153.5 -8t-147.5 -8q-12 0 -18.5 10.5 t-6.5 24.5q0 12 5.5 22t19.5 12q58 6 94.5 16.5t57 32.5t28 60t7.5 98v770q0 45 -3 88.5t-14 80t-32 63t-58 37.5q-22 6 -47 10t-47 6q-13 0 -19 10t-6 22z" />
<glyph unicode="G" horiz-adv-x="1536" d="M82 694q0 174 54 309.5t150.5 227.5t228.5 139t288 47q102 0 191 -25.5t161 -64.5q41 -22 70.5 -25.5t44.5 37.5q2 11 13 15t22.5 3t19.5 -6t6 -14q-14 -60 -14 -132q0 -21 1 -41q5 -97 15 -197q0 -11 -10 -19t-22.5 -10t-24.5 3t-14 17q-29 179 -153 274t-316 95 q-119 0 -204 -53t-139.5 -139t-80 -193.5t-25.5 -214.5q0 -149 29.5 -271t88 -209t142.5 -134t195 -47q80 0 145.5 11t111.5 39.5t71.5 79t25.5 128.5q0 61 -8 96t-30.5 53.5t-61.5 25.5t-101 13q-14 0 -20 10t-6 21.5t6 20.5t16 9q72 0 149 -5t136 -5q29 0 54.5 2t53 3 t59.5 3t73 2q10 0 15 -9t5 -20.5t-6 -20.5t-19 -11q-45 -4 -69.5 -14.5t-35.5 -28.5t-13 -46t-2 -67v-188q0 -16 -11 -21q-53 -38 -102 -70t-111.5 -53.5t-145.5 -32.5t-200 -11q-168 0 -298 48t-218 139t-134 224t-46 303z" />
<glyph unicode="H" horiz-adv-x="1698" d="M53 20.5q0 12.5 6.5 22.5t18.5 12q63 6 101 15.5t59.5 31t28.5 59.5t7 105v803q0 64 -7 109t-27.5 73.5t-58.5 44t-101 19.5q-12 0 -18.5 11t-6.5 23.5t6.5 22.5t18.5 10q65 0 149 -6t158 -6q43 0 81 2t74 4t72.5 4t79.5 2q13 0 18 -10t4 -22.5t-7.5 -23.5t-16.5 -11 q-63 -4 -102 -17.5t-59.5 -41t-26.5 -72.5t-6 -115v-278q0 -41 45 -41h610q25 0 36 8t11 33v278q0 64 -7 109t-27.5 73.5t-58.5 44t-101 19.5q-13 0 -19 11t-6 23.5t6 22.5t19 10q65 0 149 -6t158 -6q43 0 81 2t73.5 4t72.5 4t80 2q12 0 17 -10t4 -22.5t-7 -23.5t-16 -11 q-64 -4 -102.5 -17.5t-59 -41t-27 -72.5t-6.5 -115v-803q0 -67 8.5 -105t30 -59.5t60.5 -31t100 -15.5q12 -2 19.5 -12t7.5 -22.5t-7.5 -22.5t-21.5 -10q-82 0 -156.5 8t-148.5 8q-78 0 -161 -8t-150 -8q-13 0 -19 10t-6 22.5t6 22.5t19 12q63 6 101 15.5t59.5 31t28.5 59.5 t7 105v340q0 53 -45 53h-612q-45 0 -45 -41v-352q0 -67 8 -105t29.5 -59.5t60.5 -31t100 -15.5q13 -2 20 -12t7 -22.5t-7 -22.5t-22 -10q-82 0 -156.5 8t-148.5 8q-78 0 -161 -8t-150 -8q-12 0 -18.5 10t-6.5 22.5z" />
<glyph unicode="I" horiz-adv-x="772" d="M51 20.5q0 12.5 6 23.5t19 13q63 6 101 15.5t59.5 30t28.5 58.5t7 105v803q0 64 -7 109t-27.5 73.5t-58.5 44t-101 19.5q-12 0 -18.5 11t-6.5 23.5t6.5 22.5t18.5 10q65 0 149 -6t158 -6q43 0 81 2t73.5 4t72.5 4t80 2q13 0 18 -10t4 -22.5t-7.5 -23.5t-16.5 -11 q-63 -4 -102 -17.5t-59.5 -41t-26.5 -72.5t-6 -115v-803q0 -67 8 -105t29.5 -58.5t60.5 -30t100 -15.5q13 -2 20 -13t7 -23.5t-7 -22.5t-22 -10q-82 0 -156.5 8t-148.5 8q-78 0 -161 -8t-150 -8q-13 0 -19 10t-6 22.5z" />
<glyph unicode="J" horiz-adv-x="776" d="M-205 -248q0 19 7 38.5t21 35.5t34 26.5t47 10.5q24 0 43.5 -8t33.5 -21t21.5 -30t7.5 -35t-14 -38t-14 -38q0 -27 27 -41t69 -14q60 0 99.5 23t63 64.5t33 100t9.5 129.5v1114q0 63 -7 107.5t-28 73.5t-59 44t-101 19q-13 0 -19 10.5t-6 23.5t6 24t19 11q66 0 150 -6 t157 -6q43 0 81 2t74 4t73 4t79 2q12 0 17 -9t5 -21q0 -14 -6.5 -26.5t-17.5 -12.5q-64 -4 -102.5 -17t-58.5 -40.5t-26.5 -72.5t-6.5 -114v-1010q0 -108 -33.5 -199t-92.5 -156.5t-139 -102.5t-173 -37q-130 0 -201.5 50.5t-71.5 137.5z" />
<glyph unicode="K" horiz-adv-x="1495" d="M51 20.5q0 12.5 6 22.5t19 12q63 6 101 15.5t59.5 31t28.5 59.5t7 105v803q0 64 -7 109t-27.5 73.5t-58.5 44t-101 19.5q-12 0 -18.5 11t-6.5 23.5t6.5 22.5t18.5 10q65 0 149 -7t158 -7q43 0 78 2t67.5 5t66.5 5t77 2q12 0 18 -10t6 -22.5t-6 -23.5t-16 -11 q-64 -4 -99.5 -17.5t-54 -41t-22.5 -72.5t-4 -115v-377q0 -16 16 -19t29 9q149 149 250.5 275t154.5 217q25 43 28 68.5t-10.5 40.5t-41 21.5t-64.5 10.5q-14 2 -20.5 12t-6.5 22.5t5.5 22.5t17.5 10q72 0 128 -7t118 -7q55 0 98 7t107 7q10 0 15 -10t5 -22.5t-5 -22.5 t-15 -12q-41 -4 -69 -10.5t-50.5 -18.5t-42 -33.5t-43.5 -56.5q-35 -49 -75 -102.5t-82 -105.5t-85 -101t-82 -90q-10 -11 -6 -27t23 -33q49 -45 102 -104.5t106.5 -129t103.5 -144t95 -148.5q43 -72 94.5 -110t137.5 -46q12 -2 18 -12t6 -22.5t-6 -22.5t-18 -10 q-46 0 -82.5 2t-70.5 5t-68.5 6t-73.5 3t-72 -3t-64.5 -6t-64.5 -5t-74 -2q-12 0 -19 10t-8 22.5t6 23.5t21 11q23 2 46.5 7.5t38 19.5t16.5 37.5t-17 60.5q-35 68 -63.5 119t-59 94t-67.5 84t-84 86q-21 17 -41.5 29t-59.5 12q-47 0 -61 -25.5t-14 -54.5v-258q0 -67 5 -106 t21.5 -60.5t50 -30t89.5 -14.5q10 -2 16 -12t7 -22.5t-5 -22.5t-21 -10q-41 0 -74.5 2t-65.5 5t-63.5 6t-68.5 3q-78 0 -161 -8t-150 -8q-13 0 -19 10t-6 22.5z" />
<glyph unicode="L" horiz-adv-x="1247" d="M51 19q0 13 7.5 23.5t21.5 12.5q63 8 101.5 17t59.5 29.5t28 58.5t7 104v803v2q0 64 -7 108.5t-27.5 74t-58.5 44.5t-101 19q-13 0 -19 10t-6 23t6 23.5t19 10.5q65 0 149 -6t158 -6q43 0 81 2t74 4t73 4t79 2q12 0 17 -9.5t5 -20.5q0 -14 -6.5 -25.5t-17.5 -11.5 q-64 -4 -102.5 -17t-58.5 -41t-26.5 -73.5t-6.5 -114.5v-713q0 -65 6 -109.5t22.5 -73.5t44.5 -46.5t72 -28.5q29 -6 64.5 -9t74.5 -3q72 0 125 12.5t92 45t67 89t50 144.5q2 11 13.5 15.5t25.5 4.5q15 1 27 -5q10 -5 10 -14l-18 -180q-7 -73 -7 -139v-30q0 -3 -1.5 -8 t-6.5 -9.5t-14.5 -8t-24.5 -3.5h-743q-81 0 -154 -5t-145 -9q-14 0 -21.5 10t-7.5 23z" />
<glyph unicode="M" horiz-adv-x="1849" d="M51 1349.5q0 12.5 7.5 22.5t19.5 10h56t85 -1t97.5 -2t91.5 -4t69.5 -8t30.5 -13l416 -977q4 -6 9 -6t9 6l410 977q2 8 52 13t116.5 8t135 5t109.5 2q13 0 18 -10t5 -22.5t-6 -22.5t-17 -12q-69 -12 -108 -22.5t-57.5 -38t-22.5 -81t-4 -151.5v-756q0 -67 8 -105 t29.5 -58.5t60.5 -30t101 -15.5q12 -2 19 -13t7 -23.5t-7 -22.5t-22 -10q-81 0 -156 8t-149 8q-78 0 -160.5 -8t-150.5 -8q-12 0 -18.5 10t-6.5 22.5t6.5 23.5t18.5 13q64 6 101.5 15.5t59 30t29 58.5t7.5 105v760q0 14 -16.5 13t-20.5 -13l-295 -694q-31 -72 -60.5 -157 t-58.5 -171q-2 -6 -11 -9t-19.5 -3t-19.5 3t-11 9l-451 1032q-4 11 -17.5 13t-13.5 -15v-762q0 -73 12.5 -114t36 -61.5t58.5 -28t82 -13.5q10 -2 15 -12t5 -22.5t-5 -22.5t-17 -10q-45 0 -99.5 8t-128.5 8q-77 0 -137.5 -8t-101.5 -8q-10 0 -16.5 10t-7.5 22.5t5 22.5 t19 12q53 6 89 13.5t57.5 28t30.5 61.5t9 114v854q0 62 -9 96.5t-30.5 54t-56.5 27t-88 11.5q-12 0 -19.5 11t-7.5 23.5z" />
<glyph unicode="N" horiz-adv-x="1612" d="M52 24q0 11 5.5 21t18.5 12q53 6 89 13t57.5 27.5t30.5 61t9 113.5v881q0 34 -10 62t-32 48.5t-58 33.5t-88 18q-11 0 -16 10.5t-5 23.5t5.5 23t17.5 10h77q53 0 109 -3q55 -3 100 -9q47 -6 54 -16l825 -981q4 -6 14.5 -4t10.5 14v502v49q0 36 -0.5 77.5t-2.5 81 t-5.5 73.5t-10.5 55q-9 30 -20 47.5t-28 27t-42.5 13t-62.5 6.5q-11 0 -16 11t-5 24q0 12 5 22t16 10q49 0 105 -6t114 -6q53 0 105 6t118 6q12 0 18.5 -10.5t6.5 -23.5t-6.5 -23t-18.5 -10q-36 -4 -58.5 -6t-37.5 -10.5t-27 -26t-27 -51.5q-10 -25 -15.5 -68t-8.5 -92 t-3.5 -98t-0.5 -86v-887q0 -7 -17 -12t-35 -5q-11 0 -21 2.5t-13 8.5l-881 1044q-5 6 -19 6t-14 -16v-746q0 -73 11.5 -113.5t35 -61t58.5 -27.5t82 -13q12 -2 17.5 -12t5.5 -22q0 -13 -6.5 -23t-18.5 -10q-45 0 -99.5 7t-128.5 7q-78 0 -137.5 -7t-101.5 -7 q-11 0 -17.5 10.5t-6.5 23.5z" />
<glyph unicode="O" horiz-adv-x="1536" d="M82 707q0 155 51 286t142.5 225.5t218.5 146.5t280 52q150 0 275 -50t215 -142t140 -222.5t50 -289.5q0 -178 -54 -314.5t-147.5 -229.5t-218.5 -141t-266 -48q-322 0 -504 182t-182 545zM344 698q0 -123 20.5 -237.5t69.5 -201.5t132 -140t210 -53q101 0 177.5 53 t130 140t81 200.5t27.5 236.5q0 119 -21.5 233.5t-70.5 204t-131 143.5t-201 54q-111 0 -191.5 -55t-132 -144.5t-76 -203t-24.5 -230.5z" />
<glyph unicode="P" horiz-adv-x="1159" d="M53 1349.5q0 12.5 6.5 22.5t18.5 10q69 0 124.5 -6t129.5 -6q123 2 203.5 7t154.5 5q82 0 161 -17t139.5 -59t97 -110t36.5 -166q0 -115 -45 -190.5t-123.5 -122.5t-185 -68.5t-229.5 -25.5q-21 0 -30 -6.5t-9 -34.5v-299q0 -70 14 -112t44 -65.5t74 -34t103 -14.5 q15 0 21 -11t6 -24.5t-7 -23.5t-22 -10q-110 0 -189 8t-153 8q-78 0 -153.5 -8t-147.5 -8q-12 0 -18 10t-7 22.5t5 23.5t20 13q58 6 94.5 16.5t57 33t28 59.5t7.5 98v764q0 45 -2.5 90t-13.5 83t-32.5 64.5t-58.5 34.5q-22 5 -47 10t-47 7q-12 0 -18.5 10t-6.5 22.5z M502 727q0 -16 9 -20.5t34 -4.5q100 0 167.5 15.5t108.5 51.5t58.5 93.5t17.5 143.5q0 161 -59.5 227.5t-204.5 66.5q-80 0 -105.5 -20t-25.5 -84v-469z" />
<glyph unicode="Q" horiz-adv-x="1534" d="M82 723q0 156 51 284t142.5 219t218.5 141t280 50q150 0 275 -49.5t215 -140.5t140 -218t50 -282q0 -251 -96 -417q-96 -167 -254 -251q72 -150 140 -221t134 -71q76 0 110 25q33 23 56 83q3 8 10 11.5t15 3.5t16 -3t14 -8.5t9 -12.5q3 -4 3 -10q0 -3 -1 -6 q-11 -43 -33 -93t-60 -93t-94.5 -71.5t-136.5 -28.5q-45 0 -85.5 21t-76 56t-66 80t-56 93t-46 95.5t-34.5 86.5q-76 -16 -154 -16q-161 0 -288 48t-215.5 142t-135.5 232.5t-47 320.5zM344 698q0 -66 5 -130.5t17.5 -124t32.5 -113.5t50 -99q12 33 33 65t53 56.5t75.5 40 t100.5 15.5q77 0 161 -48q85 -47 158 -174q78 90 120 224q42 135 42 286q0 79 -9 157.5t-29.5 149t-53.5 130.5t-80 104.5t-109.5 69t-142.5 24.5q-111 0 -191.5 -55t-132 -144.5t-76 -203t-24.5 -230.5zM510 182q0 -11 23.5 -30t61 -38.5t85.5 -33.5t96 -14q58 0 111 18 q-61 121 -108 181q-48 63 -115 63q-35 0 -64 -19.5t-50 -44.5q-20 -24 -30 -49t-10 -33z" />
<glyph unicode="R" horiz-adv-x="1374" d="M53 1349q0 12 6 22.5t19 10.5q35 0 65.5 -1t58.5 -3t60.5 -3t69.5 -1q62 1 112.5 2t90.5 3q81 3 155 3q83 0 162.5 -19.5t142 -63t100.5 -112t38 -167.5q0 -78 -23.5 -135.5t-65 -98.5t-97.5 -66.5t-122 -39.5q-14 -4 -14 -13.5t14 -17.5q64 -32 108 -68t73.5 -75t47 -80 t29 -83t19.5 -85t18 -84q10 -48 34 -69t48 -21q25 0 47.5 20t34.5 62q3 14 11 19t18 5q15 0 28 -10q11 -9 11 -19q0 -44 -28 -91q-22 -37 -55 -61t-72.5 -35t-78.5 -11q-33 0 -63 7t-55.5 21.5t-44 35t-27.5 47.5q-13 34 -24.5 75t-22 83t-20 81.5t-17.5 71.5 q-38 131 -96 188q-58 58 -162 58q-35 0 -59.5 -14.5t-24.5 -57.5v-276q0 -69 14.5 -111.5t43 -66.5t70.5 -34t97 -14q13 0 19.5 -11t6.5 -24t-7 -23.5t-21 -10.5q-51 0 -95.5 2.5t-84.5 5.5t-77.5 5.5t-74.5 2.5q-78 0 -153.5 -8t-147.5 -8q-12 0 -18.5 10.5t-6.5 24.5 q0 12 5.5 22t19.5 12q58 6 94.5 16.5t57 32.5t28 60t7.5 98v768q0 44 -3 87.5t-14 80.5t-32 63.5t-58 36.5q-22 7 -47 11t-47 6q-13 0 -19 10t-6 22zM502 788q0 -53 29 -62q30 -9 90 -9q80 0 134 15.5t86.5 51t46 92t13.5 138.5q0 79 -14.5 133t-46 87t-83 47.5t-124.5 14.5 q-81 0 -106 -21q-25 -19 -25 -83v-404z" />
<glyph unicode="S" horiz-adv-x="1073" d="M70 0q6 45 11 97.5t5 105.5t-3 106t-11 111q-2 12 8 20.5t22.5 9.5t23.5 -4.5t13 -17.5q13 -84 45.5 -152.5t81.5 -116.5t111.5 -75t136.5 -27q55 0 105.5 15.5t89.5 45t61.5 72.5t22.5 101q0 74 -32 129t-79 95t-104.5 69.5t-108.5 54.5q-68 31 -135.5 63.5t-120.5 78.5 t-86 110.5t-33 161.5q0 98 40 164.5t105.5 107.5t149.5 59.5t174 18.5q58 0 97.5 -7t89.5 -24q26 -8 43.5 -13t33.5 -5q25 0 35 20q4 8 15.5 11.5t21.5 2t18.5 -5.5t6.5 -12q-11 -37 -14 -73.5t-3 -77.5q0 -54 6.5 -97t10.5 -102q0 -6 -8.5 -11t-19.5 -6.5t-21.5 3 t-12.5 14.5q-20 90 -44.5 148.5t-61.5 91t-89.5 45t-125.5 12.5q-52 0 -98 -13.5t-80.5 -40t-55 -66.5t-20.5 -91q0 -62 25.5 -103.5t65.5 -70.5t88 -50.5t93 -41.5q78 -37 155 -78t138 -95.5t99 -129t38 -181.5q0 -106 -44 -179t-114.5 -119t-158.5 -66.5t-176 -20.5 q-58 0 -129.5 17.5t-130.5 52.5q-11 4 -20 8t-23 4q-15 0 -31.5 -12t-28.5 -43q-6 -12 -16.5 -16.5t-21.5 -3t-18 7.5t-7 14z" />
<glyph unicode="T" horiz-adv-x="1323" d="M23 1026q8 76 9 155v14q0 72 -9 142q0 23 28.5 31t63.5 8h1095q39 0 64.5 -7t25.5 -30q-4 -24 -7 -60t-3 -79t3 -88t7 -86q0 -8 -10 -15t-22.5 -8.5t-23.5 3t-13 16.5q-12 82 -32.5 134t-54.5 82t-83 41t-117 11q-92 0 -133 -19.5t-41 -94.5v-910q0 -67 6 -105 t27.5 -58.5t60.5 -30t105 -15.5q12 -2 19 -13t7 -23.5t-7 -22.5t-21 -10q-82 0 -157 8t-148 8q-78 0 -161 -8t-151 -8q-12 0 -18 10t-6 22.5t6 23.5t18 13q64 6 101.5 15.5t59 30t29 58.5t7.5 105v910q0 75 -38 94.5t-128 19.5q-76 0 -125 -11t-81 -41t-51.5 -81t-35.5 -133 q-2 -12 -13.5 -16t-22.5 -3t-20 7t-9 14z" />
<glyph unicode="U" horiz-adv-x="1620" d="M53 1349.5q0 12.5 6.5 22.5t18.5 10q65 0 149 -7t158 -7q43 0 81 2t73.5 5t72.5 5t80 2q13 0 18 -10t4 -22.5t-7.5 -23.5t-16.5 -11q-63 -4 -102 -17.5t-59.5 -41t-26.5 -72.5t-6 -115v-559q0 -86 22.5 -164t68.5 -136t115.5 -93t163.5 -35q199 0 303.5 109.5 t104.5 347.5v346v81t-2 96t-6 92t-13 69q-10 34 -21 51.5t-27.5 26t-41 9.5t-61.5 5q-10 0 -15.5 11t-5.5 23.5t4.5 22.5t16.5 10q49 0 104.5 -7t112.5 -7q53 0 106.5 7t118.5 7q12 0 18.5 -10t6.5 -22.5t-6.5 -23.5t-18.5 -11q-37 -4 -58.5 -5t-35.5 -9.5t-25.5 -26 t-25.5 -51.5q-10 -25 -15.5 -68t-7.5 -91q-1 -32 -1 -64v-33q1 -49 1 -86v-340q0 -133 -29.5 -238.5t-94 -178.5t-169 -112t-254.5 -39q-143 0 -248.5 29t-174 91.5t-101.5 161.5t-33 241v573q0 64 -7 109t-27.5 73.5t-58.5 44t-101 19.5q-12 0 -18.5 11t-6.5 23.5z" />
<glyph unicode="V" horiz-adv-x="1393" d="M-53 1350q0 12 6 22t18 10q78 0 151.5 -6t145.5 -6q76 0 157.5 6t156.5 6q16 0 23 -9.5t7 -21.5q0 -13 -8 -24.5t-22 -11.5q-27 0 -54.5 -1t-49.5 -8.5t-36 -25t-14 -49.5q0 -57 82.5 -285t251.5 -647q3 -9 14.5 -10t16.5 10q78 201 135.5 355t96 266t57 183.5 t18.5 106.5q0 38 -9 59t-27 31.5t-44.5 12.5t-61.5 2q-14 0 -21 10.5t-7 23.5t6 23t18 10q66 0 125.5 -6t118.5 -6q57 0 109.5 6t115.5 6q11 0 16.5 -9t5.5 -21q0 -13 -7.5 -24t-24.5 -13q-65 -6 -105.5 -32.5t-67 -66.5t-45 -91t-40.5 -107q-102 -257 -199.5 -511.5 t-199.5 -512.5q-6 -14 -18.5 -21.5t-26.5 -7.5q-31 0 -43 29q-119 276 -231.5 547.5t-209.5 548.5q-19 54 -36.5 93t-44.5 65.5t-68 42t-107 24.5q-12 2 -18 12.5t-6 22.5z" />
<glyph unicode="W" horiz-adv-x="1909" d="M-37 1352q0 12 5.5 21t17.5 9q40 0 76.5 -2t71 -5t69 -5t71.5 -2q79 0 163 7t169 7q11 0 16.5 -9.5t5.5 -20.5q0 -13 -6.5 -24.5t-17.5 -12.5q-30 -2 -61.5 -3.5t-57.5 -9.5t-42.5 -26.5t-16.5 -52.5q0 -20 9.5 -69.5t35 -147.5t70.5 -255t116 -393q5 -12 18.5 -13 t18.5 13q83 258 149 509.5t132 500.5q3 11 16 16t28 5q14 0 26 -5t14 -16q75 -255 156.5 -508t175.5 -504q6 -15 18.5 -16t15.5 10q55 168 94 306.5t63 244.5t35 178.5t11 108.5q0 37 -7.5 61.5t-23.5 38.5t-41.5 20t-60.5 7q-14 0 -20.5 9.5t-6.5 21.5q0 13 7 24.5t20 11.5 q33 0 62.5 -2t58 -5t56.5 -5t57 -2q28 0 51.5 2t46.5 5t47.5 5t56.5 2q11 0 18 -11t7 -24q0 -12 -6.5 -21.5t-22.5 -10.5q-49 -3 -81.5 -28.5t-55.5 -66t-40.5 -93.5t-35.5 -111q-81 -258 -162.5 -514t-162.5 -514q-4 -11 -18.5 -17t-31.5 -6q-18 0 -33 6t-18 17 q-86 230 -165 469t-148 479q-5 14 -16.5 13t-16.5 -15l-278 -950q-4 -10 -18 -14.5t-30 -4.5q-14 0 -26.5 5t-16.5 16q-48 133 -95 265.5t-91.5 268.5t-87.5 276.5t-84 288.5q-15 52 -31 92.5t-41.5 69.5t-62.5 46t-94 22q-11 1 -17 12.5t-6 24.5z" />
<glyph unicode="X" horiz-adv-x="1434" d="M-14 1349.5q0 12.5 5 22.5t17 10q76 0 142.5 -6t132.5 -6q69 0 144 6t153 6q8 0 13 -10t6 -22.5t-3 -22.5t-16 -12q-68 -8 -97.5 -23.5t-29.5 -44.5q0 -20 13 -43.5t36 -56.5q47 -72 101 -150.5t118 -156.5q16 -23 37 2q20 26 58 79.5t76 113t66.5 115.5t28.5 89 q0 25 -10 39t-27.5 21.5t-41 9.5t-50.5 6q-16 2 -21.5 12t-4 22.5t7.5 22.5t16 10q66 0 125 -6t119 -6q53 0 102 6t109 6q12 0 18 -11t6 -23q0 -13 -6 -23t-18 -10q-29 -2 -47.5 -3t-32.5 -4t-25.5 -10.5t-27.5 -19.5q-31 -27 -66 -74t-63 -86q-56 -78 -124.5 -173 t-125.5 -173q-13 -18 8 -47q104 -139 209.5 -276.5t202.5 -276.5q22 -33 39.5 -53.5t38 -32.5t47 -18.5t67.5 -10.5q12 -2 19.5 -13t7.5 -23.5t-6.5 -22.5t-16.5 -10q-78 0 -145.5 8t-139.5 8q-73 0 -151 -8t-152 -8q-12 0 -18 10t-6 22q0 13 6 24t18 13q78 4 109 18.5 t31 33.5q0 20 -27 64t-61 97q-50 74 -103 149t-110 144q-15 17 -23 12.5t-18 -14.5q-31 -37 -75 -98.5t-85 -124t-70.5 -115.5t-29.5 -73q0 -27 13 -44.5t34.5 -26.5t48 -14.5t51.5 -7.5q12 -2 19.5 -13t7.5 -24q0 -12 -7.5 -22t-19.5 -10q-59 0 -121.5 8t-124.5 8 q-57 0 -114.5 -8t-122.5 -8q-15 0 -22 10t-7 22q0 13 7 24t24 13q51 6 85 15.5t59.5 26t47 43t47.5 67.5q64 98 145 210.5t156 211.5q7 8 11 23.5t-9 31.5q-106 135 -201.5 263t-172.5 245q-21 31 -38.5 51.5t-38 34.5t-47 22.5t-65.5 12.5q-12 2 -18 12t-6 22.5z" />
<glyph unicode="Y" horiz-adv-x="1329" d="M-33 1349.5q0 12.5 6.5 22.5t16.5 10q82 0 153.5 -6t141.5 -6q75 0 151 6t148 6q14 0 20 -10t6 -22.5t-7 -22.5t-19 -12q-78 -8 -110 -26.5t-32 -53.5q0 -39 39 -113l244 -465q6 -10 17.5 -10t17.5 10q57 93 107.5 182t88 164.5t59 132t21.5 85.5q0 30 -9 47.5t-27.5 27 t-44 12.5t-56.5 7q-12 2 -17 12t-5 22.5t6 22.5t16 10q76 0 132 -6t114 -6q47 0 97 6t110 6q12 0 17 -10t5 -22.5t-6 -23.5t-18 -11q-76 -6 -142 -74q-20 -20 -60 -83.5t-95.5 -157t-124 -208t-142.5 -239.5v-289q0 -67 8.5 -105t30 -58.5t60.5 -30t100 -15.5 q12 -2 19.5 -13t7.5 -23.5t-7.5 -22.5t-21.5 -10q-82 0 -156.5 9t-148.5 9q-78 0 -161 -9t-150 -9q-13 0 -19 10t-6 22.5t6 23.5t19 13q63 6 101 15.5t59.5 30t28.5 58.5t7 105v268q-78 140 -143.5 263t-118.5 218t-94 160.5t-66 92.5q-26 28 -62 34.5t-89 14.5 q-10 2 -16.5 12t-6.5 22.5z" />
<glyph unicode="Z" horiz-adv-x="1165" d="M56 14q-4 6 -4 15q0 10 7 22q169 304 357 603q187 298 360 591q8 15 4 26t-18 11h-244q-83 0 -142 -11.5t-101 -40.5t-69.5 -79.5t-47.5 -128.5q-2 -9 -13 -13.5t-24 -4.5q-14 0 -25.5 5.5t-9.5 18.5q8 63 14 126t6 123q0 15 -0.5 30.5t-1.5 29.5q0 11 8.5 22t41.5 11 h864q23 0 35.5 -10t12.5 -27q0 -14 -9 -30q-80 -148 -169 -293.5t-180.5 -291t-181.5 -291t-172 -292.5q-10 -16 -5 -31.5t28 -15.5h268q97 0 161.5 8t107.5 39t70.5 91.5t51.5 164.5q2 14 13 19.5t25 5.5q16 0 28 -7q11 -6 10 -15l-17 -158q-5 -78 -8 -168q0 -11 -1 -23 t-3 -23q-4 -22 -28 -22h-973q-16 0 -26 14z" />
<glyph unicode="[" horiz-adv-x="555" d="M31 -307q18 239 35.5 474.5t17.5 471.5q0 223 -16.5 441t-36.5 438h463q12 0 18 -10.5t6 -22.5t-6 -22.5t-18 -10.5q-41 -2 -89.5 -3t-93.5 -3t-83 -6t-58 -13q16 -192 20.5 -388.5t4.5 -397.5q0 -211 -4.5 -422t-20.5 -428q23 -10 61.5 -16t82.5 -9.5t91.5 -4.5t88.5 -3 q8 0 13 -10t5 -22.5t-5 -22.5t-13 -10h-463z" />
<glyph unicode="\" horiz-adv-x="559" d="M20 1411h134l415 -1769h-127z" />
<glyph unicode="]" horiz-adv-x="555" d="M41 1485q0 12 6 22.5t19 10.5h462q-20 -220 -36.5 -438t-16.5 -441q0 -236 17.5 -471.5t35.5 -474.5h-462q-11 0 -15 10t-4 22.5t4 22.5t15 10q40 2 87.5 3t91.5 4.5t83 9.5t61 16q-16 217 -20 428t-4 422q0 201 4 397.5t20 388.5q-20 9 -58 13t-83 6t-93.5 3t-88.5 3 q-13 0 -19 10.5t-6 22.5z" />
<glyph unicode="^" horiz-adv-x="864" d="M28.5 507q-0.5 7 4.5 17l348 858q4 11 19.5 16t33.5 5q17 0 31 -5t18 -16l351 -864q8 -16 -1.5 -22.5t-20.5 -6.5q-14 0 -41 4q-31 8 -38 25l-301 754l-309 -754q-8 -18 -27.5 -23.5t-42.5 -5.5q-5 0 -10.5 1.5t-9.5 5.5t-4.5 11z" />
<glyph unicode="_" horiz-adv-x="758" d="M20 -117h717v-116h-717v116z" />
<glyph unicode="`" horiz-adv-x="479" d="M33 1401q0 16 8 29.5t21.5 23t30 14.5t34.5 5q41 0 64 -33q23 -32 42 -68q24 -41 47.5 -78t48.5 -72.5t51 -70t56 -70.5q10 -12 8 -25.5t-13 -25t-24 -11.5t-28 11q-86 60 -153.5 121t-129.5 129q-24 25 -43.5 55.5t-19.5 65.5z" />
<glyph unicode="a" horiz-adv-x="1006" d="M72 219q0 151 136.5 231t399.5 80q3 0 4.5 2t2 12.5t1 32t0.5 60.5q0 51 -8 96t-30 79t-60 53.5t-98 19.5t-105 -30t-45 -77q0 -21 14 -44q15 -21 15 -44q0 -28 -29 -55t-69 -27q-56 0 -79.5 30t-23.5 73q0 52 29 97t78 78.5t114.5 52.5t137.5 19q164 0 258 -76 q94 -75 94 -251v-410q0 -72 15.5 -100.5t49.5 -28.5q23 0 37.5 5t40.5 22q10 9 27 -12q9 -12 9 -21q0 -7 -5 -12q-35 -42 -83 -68t-97 -26q-63 0 -105.5 24.5t-68.5 81.5q-4 9 -13 2q-56 -46 -125 -78q-68 -30 -172 -30q-118 0 -182.5 62t-64.5 177zM274 242q0 -31 7.5 -58 t23.5 -46.5t41.5 -30.5t61.5 -11q48 0 99 18.5t93 53.5q16 16 16 33v229q0 23 -2 28t-10 5q-168 -14 -249 -72.5t-81 -148.5z" />
<glyph unicode="b" horiz-adv-x="1106" d="M12 1350.5q0 31.5 19 31.5q30 2 76.5 9.5t90.5 15.5t79.5 14t48.5 6q41 0 41 -26v-596q0 -4 3 -4t5 4q39 59 111.5 106t179.5 47q88 0 155.5 -37.5t113.5 -100t69.5 -144.5t23.5 -170q0 -135 -42 -234.5t-113.5 -164t-166 -96t-198.5 -31.5q-72 0 -154 9t-180 44v1005 q0 88 -2 141.5t-15.5 83t-42 40t-81.5 16.5q-21 0 -21 31.5zM367 205q0 -12 14 -37t39.5 -47.5t61.5 -40t79 -17.5q74 0 123 34t78 92.5t40 134t11 159.5q0 72 -8 134.5t-29.5 109.5t-60.5 74.5t-103 27.5q-53 0 -98 -20.5t-78 -49t-51 -63t-18 -61.5v-430z" />
<glyph unicode="c" horiz-adv-x="948" d="M72 475q0 102 33.5 190t98 153t159 102.5t217.5 37.5q59 0 115.5 -14t100.5 -42t70.5 -68.5t26.5 -92.5q0 -37 -25 -69q-24 -33 -77 -33q-43 0 -71 22.5t-28 65.5q0 29 15 47q16 19 16 35q0 37 -49 56q-51 20 -109 20q-77 0 -130 -33t-86 -87t-47.5 -123t-14.5 -140 q0 -87 26.5 -159t72.5 -123.5t108 -80t133 -28.5q57 0 117.5 13t119.5 54q17 11 34 -9q10 -12 10 -22q0 -7 -5 -14q-73 -91 -169 -122t-202 -31q-86 0 -168.5 32t-147 94.5t-104.5 155t-40 213.5z" />
<glyph unicode="d" horiz-adv-x="1126" d="M68 432q0 137 43 236.5t112.5 164t156.5 95t173 30.5q41 0 90 -9t94 -31v124q0 88 -4 140.5t-21.5 81t-53 39t-97.5 16.5q-18 0 -18 31.5t18 31.5q47 2 99.5 10.5t99.5 15.5t84 13t51 6q16 0 24.5 -8t10.5 -18v-1045q0 -84 3 -136t18.5 -81.5t46 -41t85.5 -11.5 q19 0 19 -30.5t-19 -30.5q-55 0 -172.5 -22.5t-132.5 -22.5q-16 0 -26.5 28.5t-10.5 79.5q0 10 -5 8t-9 -6q-63 -57 -122.5 -83.5t-145.5 -26.5q-90 0 -163 31.5t-123 90t-77.5 142.5t-27.5 188zM283 467q0 -70 14 -136.5t42 -118.5t67.5 -84t93.5 -32q86 0 142 30t95 77 v569q-39 49 -84 72.5t-108 23.5q-62 0 -111 -18.5t-83 -63.5t-51 -122.5t-17 -196.5z" />
<glyph unicode="e" horiz-adv-x="997" d="M78 469q0 102 34 191t94.5 155t145.5 104.5t187 38.5q86 0 156 -29.5t120 -82t77.5 -124.5t27.5 -157q0 -43 -31 -43h-584q-10 0 -11 -7t-1 -17q0 -107 25.5 -180.5t70 -119.5t104 -66.5t128.5 -20.5t134 13t119 52q16 15 34 -8q19 -22 5 -37q-67 -84 -148 -118 q-81 -33 -202 -33q-123 0 -214 37t-151.5 102.5t-90 155t-29.5 194.5zM298 610q1 -16 9 -16h373q15 0 22.5 5.5t10.5 15t3.5 22t0.5 27.5q0 43 -13.5 82.5t-38 70.5t-60 49.5t-79.5 18.5q-56 0 -95.5 -19.5t-66.5 -52t-42 -75t-21 -89.5q-3 -19 -3 -33v-6z" />
<glyph unicode="f" horiz-adv-x="711" d="M55 19q2 31 23 32q55 8 85.5 19t44.5 31.5t16.5 53t2.5 83.5v561q0 14 -0.5 22t-3.5 11.5t-10 4.5t-20 1h-103q-12 0 -18 10t-6 24t6.5 26.5t19.5 14.5l111 11q9 0 13.5 1.5t7 9.5t3 25t0.5 48q0 90 28 166.5t81 133t131 88t178 31.5q51 0 101.5 -10t90.5 -33.5 t64.5 -61.5t24.5 -93q0 -18 -7.5 -34.5t-21 -29t-31.5 -19.5t-39 -7q-17 0 -33 4.5t-29 13t-20.5 21.5t-7.5 30q0 31 9 40q10 9 10 24q0 42 -34.5 62t-88.5 20q-53 0 -89.5 -16t-60 -43.5t-36.5 -63.5t-19 -75.5t-7 -80.5t-1 -78v-39q0 -24 4 -29t27 -5h198q25 0 25 -43 t-25 -43h-198q-12 0 -18 -1t-9 -4.5t-3.5 -11.5t-0.5 -22v-555q0 -50 3.5 -83.5t21 -55t54.5 -34t105 -20.5q25 -4 23 -33q-1 -28 -21 -28q-82 0 -146.5 7t-125.5 7q-66 0 -131.5 -7t-126.5 -7q-21 0 -21 29z" />
<glyph unicode="g" horiz-adv-x="1182" d="M29 -332q0 47 16 87t42 72t59.5 54.5t68.5 34.5q-25 8 -49.5 21.5t-44 33t-32.5 46t-13 63.5q0 55 21.5 91t57 58.5t80 32.5t87.5 12q2 0 2 2.5t-2 2.5q-105 40 -164.5 113t-59.5 196q0 84 31 152.5t87 116.5t136 74.5t176 26.5q109 0 173.5 -30.5t117.5 -79.5 q39 39 92.5 65.5t118.5 26.5q23 0 50.5 -4t51 -15.5t39 -30t15.5 -48.5q0 -35 -18.5 -62.5t-71.5 -27.5q-39 0 -51.5 16t-18.5 34.5t-14 35t-39 16.5q-33 0 -66 -16.5t-49 -42.5q29 -43 42 -91.5t15 -97.5q0 -90 -33.5 -158.5t-92 -115.5t-134 -71.5t-161.5 -24.5 q-25 0 -64 -2.5t-76 -11.5t-62.5 -26.5t-25.5 -48.5q0 -24 22.5 -39.5t62.5 -25.5t92.5 -15.5t113.5 -9.5q105 -6 199 -22.5t164.5 -53t111.5 -99t41 -161.5q0 -73 -34.5 -139.5t-103.5 -117t-169 -80t-229 -29.5q-115 0 -208 18.5t-160 56.5t-103.5 97t-36.5 141zM227 -276 q0 -70 31 -121.5t80 -86t108.5 -52t118.5 -17.5q72 0 133.5 18.5t105.5 50t68.5 75.5t24.5 94q0 63 -46 103t-126 62.5t-188.5 31.5t-233.5 14q-35 -25 -55.5 -75t-20.5 -97zM315 586q0 -135 47.5 -205t137.5 -70q106 0 152 70t46 203q0 67 -7 122.5t-27.5 95.5t-54.5 61.5 t-87 21.5q-65 0 -105 -28t-62.5 -71t-31 -96t-8.5 -104z" />
<glyph unicode="h" horiz-adv-x="1212" d="M12 1349.5q0 12.5 5.5 22.5t17.5 10q45 2 96 10.5t97 15.5t82 13t50 6q17 0 23 -9t6 -19v-588q4 -10 10 0q54 70 132.5 108.5t156.5 38.5q174 0 251 -95t77 -249v-378q0 -54 3 -86.5t16.5 -52t38 -30t67.5 -16.5q10 -2 15 -11t5 -20.5t-6 -20.5t-16 -9q-29 0 -87.5 7 t-119.5 7q-66 0 -129.5 -7t-108.5 -7q-6 0 -11 9t-5 20.5t4 20.5t14 11q47 6 73 16.5t37 31t14 53t3 84.5v309q0 51 -7 102t-26.5 93t-56.5 69t-98 27q-66 0 -112 -25t-75.5 -59.5t-44 -73.5t-14.5 -68v-362q0 -55 2 -91t12.5 -57.5t32 -32t60.5 -16.5q10 -2 15 -11t5 -20.5 t-5 -20.5t-13 -9q-27 0 -83.5 7t-117.5 7q-66 0 -125 -7t-106 -7q-9 0 -14 9t-5 20.5t4 20.5t17 11q45 6 71.5 16.5t38.5 31t15.5 53t3.5 84.5v804q0 88 -4.5 140.5t-20.5 81t-49 39t-90 16.5q-10 0 -15.5 10t-5.5 22.5z" />
<glyph unicode="i" horiz-adv-x="588" d="M33 19q0 11 5.5 20.5t16.5 11.5q54 6 83.5 18t43 34t15.5 54t2 79v329q0 90 -4 142t-19 80t-43.5 38.5t-77.5 16.5q-9 0 -13.5 9.5t-4.5 20.5t4.5 21t13.5 10q45 3 94 9.5t91.5 14t73 12.5t38.5 5q25 0 32 -14.5t7 -26.5v-655q0 -51 2.5 -86t14.5 -57.5t37.5 -35 t72.5 -18.5q11 -2 16.5 -10.5t5.5 -19.5t-5.5 -21t-16.5 -10q-18 0 -43 2t-53.5 5t-59.5 5t-61 2q-66 0 -128 -7t-120 -7q-10 0 -15 9t-5 20zM158 1266q0 24 9 44.5t25.5 35.5t38.5 23.5t48 8.5q24 0 44.5 -9t35.5 -24.5t23.5 -36t8.5 -44.5q0 -23 -8 -42.5t-22.5 -34.5 t-34 -23.5t-43.5 -8.5q-51 0 -89 32q-36 31 -36 79z" />
<glyph unicode="j" horiz-adv-x="586" d="M-160 -369q0 47 27 77t74 30q43 0 68.5 -21.5t25.5 -54.5q0 -24 -12.5 -38.5t-12.5 -31.5q0 -14 7.5 -26t54.5 -12q45 0 70.5 17t38 52t14.5 85t2 116v743q0 88 -4.5 140.5t-18.5 80t-43 38t-80 16.5q-10 0 -15 10t-5 20.5t5 20.5t17 10q37 2 83 8.5t89 14.5t79 14t50 6 q19 0 27 -13t8 -26v-1085q0 -45 -16.5 -103.5t-54 -109.5t-100 -86t-155.5 -35q-53 0 -94 13.5t-69.5 35t-44 46t-15.5 48.5zM156 1266q0 47 34.5 79.5t85.5 32.5q50 0 81.5 -32.5t31.5 -79.5q0 -45 -31.5 -78t-78.5 -33q-52 0 -87.5 32t-35.5 79z" />
<glyph unicode="k" horiz-adv-x="1122" d="M31 1349.5q0 12.5 5 22.5t17 10q129 13 219 29t125 16q17 0 24 -9t7 -19v-877q39 25 74 55.5t63.5 63.5t53 63.5t43.5 53.5q36 47 36 71q0 3 -1 5q-5 24 -70 28q-11 0 -17 10.5t-6 21.5t6 20.5t17 9.5q32 0 56 -2t43 -5.5t37.5 -5.5t43.5 -2q47 0 96 7.5t96 7.5 q9 0 15 -9.5t6 -20.5t-5 -20.5t-16 -11.5q-41 -4 -67.5 -12t-49 -22.5t-43 -34t-48.5 -45.5q-19 -17 -49.5 -45.5t-66.5 -60.5t-70 -60.5t-58 -46.5q-8 -7 -6 -13t8 -6q82 -4 136 -27.5t91 -59.5t62.5 -81t51 -93t57.5 -94t81 -85q14 -10 35.5 -15.5t44.5 -9.5 q12 -2 18.5 -11t6.5 -20.5t-6.5 -20.5t-18.5 -9q-33 2 -66.5 4t-70.5 2q-41 0 -81 -3t-75 -3q-14 0 -20.5 10t-8.5 18q-16 86 -54 161t-87 132.5t-105.5 90t-111.5 32.5v-160q0 -59 3 -98t15.5 -64.5t37 -39t67.5 -21.5q10 -2 15 -11t5 -20.5t-5 -20.5t-15 -9 q-57 0 -104.5 7t-108.5 7q-66 0 -129.5 -7t-128.5 -7q-10 0 -15.5 9t-5.5 20.5t5.5 20.5t17.5 11q57 6 89 18.5t46 34t16.5 53t2.5 79.5v804q0 88 -4.5 140.5t-23 81t-55 39t-102.5 16.5q-10 0 -15 10t-5 22.5z" />
<glyph unicode="l" horiz-adv-x="655" d="M32 1352q0 11 5 20.5t16 9.5q74 7 130 15t96.5 15t66 11t37.5 4q16 0 23.5 -9t7.5 -19v-1151q0 -52 2 -86.5t15.5 -56t42.5 -34t83 -20.5q11 -2 16 -12t5 -21t-5 -19.5t-16 -8.5q-49 0 -110.5 7t-122.5 7q-66 0 -129 -7t-129 -7q-11 0 -16.5 9t-5.5 20t6 20.5t18 11.5 q58 6 89 18t45 34t16.5 54t2.5 79v804q0 89 -4 141t-20.5 80.5t-50 39t-93.5 16.5q-10 0 -15.5 11t-5.5 24z" />
<glyph unicode="m" horiz-adv-x="1872" d="M32 875q0 11 5 19.5t16 8.5q52 3 100.5 9.5t88 14t67 12.5t37.5 5q43 0 43 -47q0 -4 -3 -19.5t-7 -35t-7 -39t-3 -31.5q0 -4 3 -4t5 4q8 16 33.5 47t67 62t99 54t128.5 23q122 0 193 -53t101 -149q5 -11 11 0q20 36 54 72.5t79.5 65t100.5 46.5t116 18q98 0 159.5 -29 t96 -81t47 -122.5t12.5 -152.5v-325q0 -51 2 -86t12.5 -57.5t33.5 -35t65 -18.5q11 -2 16.5 -11.5t5.5 -20.5t-5.5 -20t-16.5 -9q-14 0 -34.5 1.5t-49.5 5.5t-58.5 5.5t-60.5 1.5q-66 0 -125.5 -7t-107.5 -7q-11 0 -16.5 9t-5.5 20t6 20.5t18 11.5q48 6 74.5 18t38.5 34 t14 54t2 79v264q0 55 -4 114.5t-21.5 108.5t-52.5 81t-98 32q-58 0 -108 -24.5t-87 -67t-58.5 -99.5t-21.5 -121v-276q0 -59 2 -95t13 -56.5t33.5 -30t64.5 -15.5q11 -2 16.5 -11.5t5.5 -20.5t-5.5 -20t-16.5 -9q-14 0 -34.5 1.5t-49.5 5.5t-58.5 5.5t-60.5 1.5 q-66 0 -125.5 -7t-101.5 -7q-9 0 -14 8.5t-5 19.5t5 21t16 12q45 6 70 15t36.5 28.5t14 53t2.5 88.5v264q0 55 -5 114.5t-23.5 108.5t-56 81t-102.5 32q-69 0 -119 -22.5t-82.5 -62.5t-47.5 -93.5t-15 -114.5v-295q0 -51 2.5 -86t15 -57.5t39.5 -35t76 -18.5q11 -2 16 -12 t5 -21t-5 -19.5t-16 -8.5q-21 0 -47 2t-55 5t-60 5t-61 2q-66 0 -127 -7t-113 -7q-10 0 -15 9t-5 20t5.5 20.5t16.5 11.5q52 8 79.5 20t40 33t14.5 53t2 79v303q0 88 -2.5 145t-16 91t-42.5 48.5t-83 18.5q-10 0 -15.5 10.5t-5.5 22.5z" />
<glyph unicode="n" horiz-adv-x="1204" d="M33 872.5q0 10.5 4 20.5t12 10q117 8 197 24.5t102 16.5q23 0 32 -12t9 -31q0 -4 -3 -20.5t-7 -38t-7 -41t-3 -29.5q0 -4 3 -4t5 4q14 25 43 56.5t69.5 60.5t94 49t114.5 20q146 0 228 -85t82 -275v-350q0 -55 4 -90t17 -56.5t38 -33t68 -17.5q10 -2 15 -11t5 -20.5 t-5 -20.5t-15 -9q-27 0 -91.5 7t-125.5 7q-66 0 -120.5 -7t-92.5 -7q-11 0 -16 9t-6 19.5t3 20.5t16 12q41 8 63.5 20.5t34 33t13.5 52t2 79.5v311q0 51 -3 102t-20.5 92t-51 68t-95.5 27q-123 0 -189.5 -79t-66.5 -227v-282q0 -103 33 -145t110 -54q13 -2 18 -11t5 -20.5 t-6 -20.5t-17 -9q-10 0 -35.5 2t-59.5 5t-70.5 6t-67.5 3q-66 0 -125 -7t-113 -7q-10 0 -15 9t-5 19.5t5 20.5t17 12q50 8 77.5 18.5t40 30t14.5 52t2 84.5v258q0 102 -1 168.5t-14.5 105.5t-42 55.5t-84.5 18.5q-12 0 -17 10t-5 20.5z" />
<glyph unicode="o" horiz-adv-x="1092" d="M78 487q0 105 34.5 192t97 148.5t151 96t192.5 34.5q100 0 185 -30.5t146.5 -89t96.5 -144.5t35 -198q0 -125 -35 -221.5t-99.5 -162t-154.5 -99t-201 -33.5q-96 0 -178 31.5t-141.5 94t-94 157.5t-34.5 224zM293 469q0 -70 10 -143.5t39 -133t79 -98.5t128 -39 q80 0 129 37t76.5 96.5t37 134t9.5 150.5q0 78 -10.5 151.5t-37 131t-73.5 92.5t-121 35q-82 0 -133 -35t-81 -93.5t-41 -132t-11 -153.5z" />
<glyph unicode="p" horiz-adv-x="1122" d="M18 -548q0 11 6.5 20.5t18.5 11.5q57 6 89 18.5t46.5 34t16.5 53t2 78.5v826q0 100 -3.5 166.5t-16.5 105.5t-43 56.5t-83 19.5q-10 0 -15 10t-5 20.5t4 20.5t12 10q129 10 205 25.5t100 15.5q23 0 27 -12t4 -23q0 -16 -5 -49t-5 -61q0 -4 4 -5t6 3q39 65 115.5 113 t181.5 48q92 0 161.5 -37.5t116 -102t70 -148.5t23.5 -174q0 -111 -31 -205t-88.5 -164t-137 -108.5t-180.5 -38.5q-63 0 -112 9t-99 25q-10 4 -12 0t-2 -20v-313q0 -52 3 -86.5t19.5 -57t51.5 -35t100 -18.5q12 -2 17.5 -11.5t5.5 -20.5t-6.5 -20.5t-16.5 -9.5 q-92 0 -150.5 7.5t-117.5 7.5q-62 0 -125.5 -7.5t-128.5 -7.5q-10 0 -16.5 9.5t-6.5 20.5zM389 223q0 -16 14.5 -43.5t42 -53.5t67.5 -45.5t91 -19.5q64 0 108 33t71.5 90.5t40 133t12.5 159.5q0 174 -47.5 261t-157.5 87q-53 0 -97.5 -17t-76 -48t-50 -72t-18.5 -88v-377z " />
<glyph unicode="q" horiz-adv-x="1087" d="M72 449q0 120 40 214.5t106.5 160t151.5 100t177 34.5q84 0 141 -18t123 -59q12 -9 18 -2q35 45 51.5 62t34.5 17q11 0 21 -2t10 -8t-2 -29.5t-4 -53t-4 -61.5t-2 -54v-1069q0 -52 2 -86.5t13.5 -58t33 -35t59.5 -17.5q11 -2 16 -11.5t5 -20.5t-5 -20.5t-16 -9.5 q-41 0 -88 7.5t-106 7.5q-62 0 -134.5 -7.5t-178.5 -7.5q-9 0 -14 9.5t-5 20.5t4 20.5t17 11.5q75 8 117 20.5t61.5 33t22.5 52t3 78.5v436l-2 2q-2 0 -4 -2q-51 -53 -119.5 -88.5t-160.5 -35.5q-107 0 -180.5 39.5t-118.5 105t-64.5 149.5t-19.5 175zM287 492 q0 -78 13 -150t40 -126t68 -87t98 -33q78 0 136 33t99 80v506q0 6 -15 30.5t-44 52t-70 49t-92 21.5q-69 0 -114.5 -33.5t-72 -87t-36.5 -121t-10 -134.5z" />
<glyph unicode="r" horiz-adv-x="823" d="M31 874.5q0 10.5 6 20.5t16 10q49 4 98.5 10.5t91.5 12.5t70.5 11t36.5 5q37 0 37 -37q0 -14 -3 -58t-3 -77q0 -4 4 -4t6 4q35 90 97.5 138t166.5 48q86 0 127 -40.5t41 -106.5q0 -37 -26.5 -66.5t-75.5 -29.5q-47 0 -65.5 22.5t-18.5 48.5q0 62 -59 62q-39 0 -71 -25.5 t-54.5 -60.5t-34.5 -72t-12 -57v-385q0 -51 3 -85t21.5 -55.5t58 -34t111.5 -22.5q10 -2 15.5 -11t5.5 -20.5t-6.5 -20.5t-14.5 -9q-88 0 -155.5 7t-129.5 7q-65 0 -129.5 -7t-130.5 -7q-10 0 -15 9t-5 20.5t5 20.5t17 11q56 8 87.5 20.5t47 33t18.5 52t3 79.5v299 q0 100 -4 159.5t-19.5 91t-48 43t-90.5 15.5q-10 0 -15 10t-5 20.5z" />
<glyph unicode="s" horiz-adv-x="813" d="M63 289q0 8 8.5 12t18.5 5t19.5 -2t11.5 -11q14 -60 36.5 -105t56.5 -75.5t82 -46t116 -15.5q73 0 119.5 41t46.5 115q0 65 -46.5 103t-107.5 67q-29 12 -58.5 24.5t-60.5 24.5q-45 18 -89 37.5t-78 48.5t-54.5 72t-20.5 106q0 74 32 125t82 83t111.5 46t121.5 14 q51 0 98 -13t100 -48q8 -4 21.5 1t21.5 34q2 8 12.5 10t20.5 1t18.5 -5t6.5 -10q-7 -23 -12 -55.5t-5 -69.5q0 -39 2 -81t2 -65q0 -6 -8 -10t-18.5 -5t-18.5 2t-10 9q-23 109 -74 167.5t-164 58.5q-75 0 -124.5 -38t-49.5 -102q0 -53 41 -81.5t109 -53.5q29 -10 68.5 -25.5 t64.5 -25.5q53 -25 99 -51.5t80 -62.5t53.5 -81t19.5 -104q0 -78 -33 -130t-84 -84t-116.5 -46t-129.5 -14q-53 0 -118.5 12t-114.5 35q-12 4 -25.5 -4.5t-17.5 -30.5q0 -6 -9.5 -8t-18.5 -2t-17 3t-8 9q0 16 4 45t4 53q0 25 -2 65t-8.5 81t-6.5 51z" />
<glyph unicode="t" horiz-adv-x="674" d="M21 876q0 13 4 23t12 10q47 6 81.5 17t59 35t40 65.5t24.5 108.5q2 13 20 19t38 6q17 0 30.5 -4.5t13.5 -12.5v-176q0 -34 3 -38q3 -5 26 -5h213q14 0 18 -13t4 -32q0 -25 -5 -36.5t-19 -11.5h-222q-15 0 -16 -7q-1 -4 -1.5 -16.5t-0.5 -35.5v-457q0 -114 25.5 -169.5 t93.5 -55.5q48 0 89.5 14.5t63.5 30.5q7 4 15 0.5t15 -9.5q6 -8 8 -16q1 -3 1 -6q0 -5 -2 -8q-41 -62 -102 -89t-145 -27q-140 0 -197 62q-57 61 -57 196v526q0 25 -2 38.5t-13 20t-34 7.5t-66 1q-7 0 -11.5 14.5t-4.5 30.5z" />
<glyph unicode="u" horiz-adv-x="1212" d="M32 873q0 11 5 20.5t16 9.5q103 7 184 24q42 8 70 12.5t45 4.5q21 0 29 -12t8 -27v-491q0 -82 7 -139.5t25.5 -94t51 -53t82.5 -16.5q70 0 145 24q76 25 115 60q6 6 7 22t1 25v323q0 90 -2 141t-14 78t-38 37t-75 17q-10 2 -15.5 13.5t-5.5 24.5q0 11 5 19t16 8 q110 7 181 24q73 17 106 17q17 0 26 -12.5t9 -30.5v-545q0 -83 3.5 -135.5t18.5 -82.5t45.5 -41t85.5 -11q9 0 14 -9.5t5 -20.5t-4.5 -20t-14.5 -11q-15 -3 -40 -7.5t-55 -9t-62 -9.5t-61 -9t-52.5 -7t-36.5 -3q-37 0 -37 114q0 4 -4 5t-8 -3q-76 -65 -152.5 -90.5 t-148.5 -25.5q-95 0 -156 23.5t-96 68.5t-49 111t-14 151v231q0 90 -4 141t-19 78t-43.5 37t-77.5 17q-10 0 -15.5 11t-5.5 24z" />
<glyph unicode="v" horiz-adv-x="1049" d="M-2 894q0 11 4 20.5t14 9.5q58 0 114 -7.5t118 -7.5q59 0 117.5 7.5t117.5 7.5q11 0 16 -9.5t5 -20.5t-5 -21.5t-16 -10.5q-63 -4 -90.5 -23.5t-27.5 -56.5q0 -30 16 -75q47 -127 98 -247t105 -227q4 -10 12 -9t12 9q21 46 47.5 111.5t52 134t48 136t37.5 116.5 q8 27 8 51q0 52 -32 64t-67 16q-10 0 -15 10.5t-4 21.5t6 20.5t16 9.5q45 0 84.5 -7.5t82.5 -7.5q46 0 96 7.5t79 7.5q10 0 15 -9.5t5 -20.5t-5 -21.5t-13 -10.5q-41 -2 -69 -18.5t-48.5 -42t-36.5 -61t-33 -76.5q-137 -338 -293 -691q-2 -4 -11 -6t-19 -2q-25 0 -31 8 q-88 179 -165 345.5t-155 359.5q-20 49 -35.5 82t-33 53.5t-41 31.5t-60.5 17q-10 2 -15 11.5t-5 20.5z" />
<glyph unicode="w" horiz-adv-x="1454" d="M2 894q0 11 4 20.5t14 9.5q52 0 106 -8.5t114 -8.5q59 0 115.5 8.5t113.5 8.5q8 0 14 -9.5t6 -21.5t-5 -22.5t-15 -10.5q-59 -4 -84 -24.5t-25 -53.5q0 -16 4.5 -35.5t10.5 -41.5q28 -105 60 -205.5t67 -200.5q4 -12 15 -12t15 10q119 324 238 612q6 15 23 15 q18 0 24 -13q66 -153 129.5 -305.5t128.5 -306.5q4 -14 13.5 -12t13.5 12q35 111 60.5 213t47.5 207q9 33 9 59q0 47 -25 60.5t-78 21.5q-12 2 -18 12.5t-6 21.5t6 20.5t18 9.5q49 0 90 -8.5t82 -8.5t87 8.5t75 8.5q10 0 16.5 -9.5t6.5 -21.5t-5.5 -22.5t-13.5 -10.5 q-41 -4 -68.5 -19.5t-47 -42t-33 -61.5t-25.5 -75q-102 -351 -219 -684q-4 -12 -25 -12q-22 0 -26 10q-60 151 -121.5 310.5t-136.5 329.5q-4 11 -12.5 11t-12.5 -11q-37 -96 -69.5 -180t-62.5 -161.5t-58.5 -147t-57.5 -149.5q-6 -12 -28 -12q-18 0 -25 12 q-64 167 -124 344.5t-116 353.5q-16 51 -31.5 84t-34 53.5t-43 30.5t-57.5 16q-10 2 -14 12.5t-4 21.5z" />
<glyph unicode="x" horiz-adv-x="1081" d="M20 20.5q0 12.5 5.5 22.5t15.5 12q68 8 107.5 39t91.5 96q39 50 85 101t99 112q10 11 9 16t-9 15q-72 94 -133.5 172t-110.5 156q-20 33 -35.5 51t-30 28.5t-30.5 14.5t-39 6q-10 0 -15 10.5t-5 21.5t4 20.5t14 9.5q41 0 93 -6.5t106 -6.5q57 0 113.5 6.5t111.5 6.5 q8 0 14 -9.5t6 -20.5t-5 -21.5t-15 -10.5q-29 -4 -60.5 -8t-31.5 -27q0 -14 4 -24t12 -23q31 -53 71 -104t89 -111q12 -14 20 -2q50 60 82.5 113t48.5 78q15 28 15 49q0 28 -22.5 41.5t-76.5 17.5q-10 0 -15 10.5t-5 21.5t5 20.5t15 9.5q56 0 104 -6.5t95 -6.5q49 0 88 6.5 t70 6.5q8 0 14 -9.5t6 -20.5t-4 -21.5t-16 -10.5q-66 -6 -102.5 -33.5t-75.5 -76.5q-47 -62 -92.5 -123.5t-88.5 -116.5q-12 -16 2 -31q66 -78 125.5 -150.5t116.5 -150.5q41 -57 79 -89t99 -36q13 0 20 -10t7 -22.5t-7 -21.5t-20 -9q-43 0 -98 6t-115 6q-59 0 -120.5 -7 t-120.5 -7q-13 0 -20 10t-7 22.5t6 22.5t19 10q49 4 71.5 9.5t22.5 25.5q0 25 -47 92q-35 47 -68 90t-72 90q-6 5 -10 0q-16 -16 -37.5 -41.5t-42 -51t-38 -48t-23.5 -35.5q-27 -45 -27 -75q0 -29 25.5 -39.5t77.5 -18.5q10 -2 15 -12t5 -21.5t-6 -20.5t-16 -9 q-43 0 -91.5 7t-101.5 7q-49 0 -96 -7t-80 -7q-10 0 -16.5 9t-6.5 21.5z" />
<glyph unicode="y" horiz-adv-x="1053" d="M-25 -537q0 43 27 74t70 31q18 0 28.5 -7t19.5 -15.5t20.5 -15.5t27.5 -7q22 0 51 28.5t60.5 72.5t63.5 98.5t58.5 105.5t46 92t27.5 60q10 24 10 43.5t-8 35.5q-65 136 -145 301.5t-152 331.5q-20 49 -36.5 80t-34 49.5t-41 28.5t-60.5 16q-8 2 -12 11.5t-3 19.5t6 18.5 t15 8.5q64 0 122.5 -5.5t117.5 -5.5t116.5 5.5t116.5 5.5q11 0 16 -8.5t5 -18.5t-5 -19.5t-16 -11.5q-65 -8 -91.5 -24.5t-26.5 -44.5q0 -41 18 -86q43 -115 88 -218.5t111 -228.5q4 -8 14 -8t14 8q64 125 112 236.5t85 218.5q6 16 10 37.5t4 31.5q0 23 -11 37.5t-28.5 22.5 t-37 12t-33.5 6q-10 2 -15.5 11.5t-5.5 19.5t5.5 18.5t15.5 8.5q39 0 80 -5.5t82 -5.5q47 0 96 5.5t78 5.5q10 0 15 -8.5t5 -19.5t-5 -20.5t-15 -9.5q-31 -4 -51.5 -14t-36 -29.5t-28.5 -49.5t-32 -71q-55 -124 -119.5 -268.5t-133 -292t-138.5 -290t-133 -265.5 q-17 -30 -41.5 -70t-58 -76t-76.5 -60.5t-94 -24.5q-48 0 -91 25.5t-43 82.5z" />
<glyph unicode="z" horiz-adv-x="854" d="M40 20q0 12 9 27q55 101 121.5 201t134 197t132.5 190.5t118 183.5q8 12 5 19.5t-21.5 12.5t-55 7t-96.5 2q-75 0 -118.5 -8.5t-69 -29.5t-40 -55.5t-30.5 -86.5q-3 -8 -12 -12t-19 -4q-13 0 -22.5 5t-7.5 13q8 55 13 115.5t5 109.5q0 4 4 10.5t21 6.5h661q13 0 20 -4 t9 -10.5t0 -14t-6 -14.5q-59 -100 -121.5 -196.5t-129.5 -191.5q-67 -94 -126.5 -186.5t-112.5 -185.5q-11 -17 -11 -28q0 -9 8.5 -14.5t28.5 -9t54.5 -5t87.5 -1.5q75 0 122.5 6.5t78 27t50 59.5t38.5 104q2 8 11.5 11.5t20.5 3.5q14 0 24 -6q9 -5 9 -14l-14 -109 q-6 -57 -6 -123q0 -23 -16 -23h-730q-21 0 -21 20z" />
<glyph unicode="{" horiz-adv-x="567" d="M41 595q0 15 5 27.5t15 12.5q15 0 25 -2t20 -2q35 0 57.5 16.5t35 43t16.5 62t4 72.5q0 43 -19.5 87t-43 88t-43 87t-19.5 87q0 88 32 150t85 101t124 56.5t148 17.5q9 0 13 -8t4 -18.5t-4 -18.5t-13 -8q-92 0 -157.5 -52.5t-65.5 -144.5q0 -47 16.5 -93t36 -93t36 -96 t16.5 -101q0 -82 -30 -154.5t-102 -107.5q-14 -8 0 -18q66 -33 99 -96.5t33 -143.5q0 -49 -16.5 -101t-36 -105.5t-36 -105.5t-16.5 -102q0 -94 66.5 -149t162.5 -55q9 0 13 -8.5t4 -18.5t-4 -18.5t-13 -8.5q-73 0 -145 14.5t-128 50.5t-90 93t-34 143q0 50 19.5 98t44 95 t44 95t19.5 97q0 27 -4 62t-16.5 65.5t-35 51t-57.5 20.5q-10 0 -20 -2t-25 -2q-10 0 -15 12.5t-5 27.5z" />
<glyph unicode="|" horiz-adv-x="471" d="M174 -584v1968h123v-1968h-123z" />
<glyph unicode="}" horiz-adv-x="567" d="M61 -299q0 10 4.5 18.5t12.5 8.5q96 0 162.5 55t66.5 149q0 50 -16.5 102t-35.5 105.5t-35.5 105.5t-16.5 101q0 80 32.5 143.5t98.5 96.5q14 10 0 18q-72 35 -101.5 107.5t-29.5 154.5q0 52 16.5 101t35.5 96t35.5 93t16.5 93q0 92 -65.5 144.5t-157.5 52.5q-8 0 -12 8 t-4 18.5t4 18.5t12 8q78 0 148.5 -17.5t124 -56.5t85 -101t31.5 -150q0 -44 -19.5 -87t-43 -87t-43 -88t-19.5 -87q0 -37 4 -72.5t16.5 -62t35 -43t57.5 -16.5q10 0 20.5 2t24.5 2q10 0 15 -12.5t5 -27.5t-5 -27.5t-15 -12.5q-14 0 -24.5 2t-20.5 2q-35 0 -57.5 -20.5 t-35 -51t-16.5 -65.5t-4 -62q0 -49 19.5 -97t44 -95t44 -95t19.5 -98q0 -86 -33.5 -143t-90 -93t-128 -50.5t-145.5 -14.5q-8 0 -12.5 8.5t-4.5 18.5z" />
<glyph unicode="~" horiz-adv-x="1135" d="M67 353q0 9 7 20q26 41 52.5 86.5t59 83t73 62t95.5 24.5q33 0 70.5 -11t77.5 -27t80.5 -35t79.5 -35t75 -27t66 -11q69 0 117 45q25 23 46 48t40 53q10 17 27 17q9 0 16.5 -4.5t12.5 -12t6 -18t-5 -21.5q-23 -43 -52 -88t-62 -81.5t-70 -59.5t-76 -23q-46 0 -102 22.5 t-115.5 50t-118.5 50t-111 22.5q-41 0 -70.5 -8.5t-54.5 -26.5t-49 -45.5t-53 -64.5q-12 -15 -29 -15q-9 0 -16.5 4t-12 10.5t-4.5 15.5z" />
<glyph unicode="&#xa1;" horiz-adv-x="440" d="M111 -444q0 51 14 115.5t25 117.5q8 57 16 111.5t13 125t8 168t3 242.5q0 8 11.5 13.5t24 5.5t23.5 -5.5t11 -13.5q0 -145 4 -241.5t11.5 -167t16.5 -125t19 -111.5q4 -22 11.5 -54t14.5 -63.5t12 -63.5t5 -54q0 -58 -27.5 -96t-97.5 -38q-63 0 -90.5 39t-27.5 95z M131 731q0 41 31 67.5t71 26.5q46 0 74.5 -29.5t28.5 -68.5q0 -43 -33 -68.5t-74 -25.5q-43 0 -70.5 30.5t-27.5 67.5z" />
<glyph unicode="&#xa2;" horiz-adv-x="934" d="M74 539q0 188 105 311q107 124 308 149v103q0 14 12.5 20.5t28.5 6.5q17 0 32 -7t15 -20v-98h7q57 0 112.5 -14t98.5 -40t69.5 -64.5t26.5 -86.5q0 -18 -5 -35t-17 -30t-31.5 -21t-47.5 -8q-40 0 -68 18.5t-28 60.5q0 27 15 44q16 17 16 34q0 35 -45 52q-46 19 -103 20 v-744h25q37 0 72.5 4.5t68 16t62 32t55.5 52.5q5 10 15 11t19 -4t14.5 -14t2.5 -18q-45 -100 -134 -147q-45 -23 -94.5 -37t-105.5 -18v-172q0 -15 -12.5 -21.5t-28.5 -6.5q-17 0 -32 7t-15 21v172q-80 6 -154.5 34.5t-132 84.5t-92 143t-34.5 209zM289 561q0 -124 46 -219 q47 -96 152 -135v717q-60 -17 -98.5 -52.5t-60.5 -83.5t-30.5 -106t-8.5 -121z" />
<glyph unicode="&#xa3;" d="M0 104q0 39 16.5 67t43.5 46t62 26.5t73 8.5q100 0 184 -37q11 53 5 147t-17 228h-193q-13 0 -19.5 14.5t-6.5 31.5t6.5 31.5t19.5 14.5h188q-6 60 -6 135.5t11.5 155t37 155.5t70.5 135t112.5 95.5t162.5 36.5q45 0 92.5 -10.5t86.5 -36.5t64 -70.5t25 -112.5 q0 -23 -7.5 -47t-23 -43.5t-38 -32t-52.5 -12.5q-22 0 -39 8.5t-29 22.5t-18 33t-6 39q0 32 7.5 49t16 27.5t16 19.5t7.5 26q0 39 -27 54.5t-75 15.5q-54 0 -91.5 -26.5t-62 -73t-37 -109t-16.5 -134t-1.5 -148.5t9.5 -152h225q13 0 19.5 -14.5t6 -31.5t-7 -31.5 t-18.5 -14.5h-219q2 -80 -4.5 -142.5t-19.5 -112.5t-29.5 -89.5t-34.5 -73.5q45 -21 85.5 -35.5t79.5 -23.5t77.5 -13t79.5 -4q22 0 50 10t53.5 30.5t44.5 52t24 75.5q1 9 10 13.5t19.5 4t19 -5.5t8.5 -16q0 -61 -19 -118.5t-54 -102t-85 -71.5t-112 -27q-75 0 -157 38 t-175 107q-44 -45 -106.5 -75.5t-133.5 -30.5q-35 0 -67 9.5t-56.5 26t-39.5 39t-15 49.5zM160 113q0 -35 23 -51.5t50 -16.5q25 0 45.5 11t36.5 25.5t27 29t16 22.5q-21 19 -51.5 32t-64.5 13q-32 0 -57 -15t-25 -50z" />
<glyph unicode="&#xa4;" horiz-adv-x="1130" d="M70 190l153 154q-86 113 -86 264q0 154 84 262l-151 154l77 80l154 -154q113 82 262 82q156 0 264 -84l156 156l80 -80l-156 -154q84 -114 84 -262q0 -143 -86 -264l158 -154l-80 -79l-156 155q-118 -82 -264 -82q-149 0 -260 82l-156 -155zM256 608q0 -141 85 -232 t222 -91q139 0 224 92t85 231q0 142 -86 233t-223 91q-133 0 -220 -89t-87 -235z" />
<glyph unicode="&#xa5;" d="M-11 1350q0 12 5 22t16 10q71 0 133.5 -6t122.5 -6q32 0 55.5 2t45.5 4t44.5 4t53.5 2q12 0 18 -10t6 -22t-6 -23t-18 -12q-42 -5 -57 -22.5t-15 -51.5q0 -11 1.5 -22t4.5 -25t8.5 -31.5t14.5 -40.5l174 -456q21 45 42.5 99t42 110.5t38.5 111.5t31.5 101.5t21.5 81.5 t8 51q0 22 -6.5 37.5t-22.5 26t-42.5 17.5t-65.5 13q-10 1 -15.5 12t-5.5 23t5 22t16 10q37 0 64.5 -2t52 -4t47.5 -4t51 -2q48 0 97 6t106 6q12 0 17 -10t4 -22.5t-7 -23t-16 -11.5q-18 -2 -31 -5t-24.5 -10.5t-23 -20.5t-26.5 -34q-9 -14 -27 -48.5t-41.5 -83.5 t-51.5 -110t-56.5 -127t-56.5 -134t-51 -132h223q16 0 24.5 -14t8.5 -31t-8 -31t-25 -14h-240v-131h242q15 0 23 -14t8.5 -31t-7.5 -31t-24 -14h-242v-35q0 -67 8 -105t30 -59t60.5 -29.5t100.5 -15.5q13 -2 19.5 -12.5t6.5 -23.5t-7 -23t-21 -10q-82 0 -156.5 9t-146.5 9 q-38 0 -78.5 -3t-80.5 -6t-78 -6t-72 -3q-12 0 -18 10t-6 23t6 23.5t18 12.5q63 7 101.5 15.5t59.5 29.5t28 59t7 105v35h-260q-18 0 -26 14t-7 31t9.5 31t23.5 14h260v131h-258q-15 0 -23 14t-8 31t8 31t23 14h242q-42 108 -85.5 214t-82.5 195.5t-71 155t-52 91.5 q-10 14 -22 22t-26.5 12.5t-31.5 7.5t-37 7q-11 1 -16 12t-5 23z" />
<glyph unicode="&#xa6;" horiz-adv-x="471" d="M174 229h123v-807h-123v807zM174 578v806h123v-806h-123z" />
<glyph unicode="&#xa7;" horiz-adv-x="995" d="M92 -152q0 68 33 102t86 34q47 0 72.5 -27t25.5 -72q0 -28 -9 -43.5t-20.5 -29t-20.5 -28.5t-9 -42q0 -25 28.5 -44.5t67.5 -31.5t79 -18t62 -6q54 0 102 11t85 37.5t59.5 71.5t22.5 113q0 41 -18.5 76t-48.5 62.5t-67.5 51t-74.5 41.5l-109 58q-61 31 -122.5 65.5 t-110.5 78.5t-81 98.5t-32 125.5q0 56 17.5 98t45 75.5t62.5 60.5t72 49q-72 47 -126 114.5t-54 168.5q0 76 32.5 132t88 95t126 58.5t146.5 19.5q59 0 119.5 -10.5t108.5 -38t79 -73.5t31 -116q0 -47 -31 -84t-80 -37q-47 0 -77.5 30t-30.5 77q0 27 11 43t25.5 27.5 t25.5 19.5t11 21q0 24 -19.5 39.5t-49 24.5t-64.5 12t-67 3q-45 0 -87 -11t-76 -34.5t-54.5 -60.5t-20.5 -86q0 -47 23.5 -83t66.5 -69.5t104.5 -67.5t139.5 -77q57 -31 112.5 -67.5t100.5 -82t72.5 -101.5t27.5 -128q0 -53 -13 -95t-36 -75t-51.5 -58.5t-57.5 -45.5 q64 -47 102 -119t38 -152q0 -84 -31 -147.5t-84 -106.5t-124 -65.5t-150 -22.5q-197 0 -300.5 66.5t-103.5 195.5zM223 586q0 -54 38 -87.5t116 -74.5q78 -39 157.5 -82t165.5 -94q45 35 71 69.5t28 88.5q0 36 -16.5 66t-41 55.5t-53.5 45t-53 35.5q-12 8 -33.5 20.5 t-55.5 33t-84 48t-120 68.5q-45 -24 -82 -72.5t-37 -119.5z" />
<glyph unicode="&#xa8;" horiz-adv-x="612" d="M0 1235q0 43 31.5 71.5t72.5 28.5t73 -29.5t32 -70.5q0 -45 -29.5 -77t-75.5 -32q-47 0 -75.5 32t-28.5 77zM403 1235q0 43 32 71.5t73 28.5t72.5 -29.5t31.5 -70.5q0 -45 -28.5 -77t-75.5 -32q-45 0 -75 32t-30 77z" />
<glyph unicode="&#xa9;" horiz-adv-x="1520" d="M72 672q0 143 53 272t145 224.5t216 151.5t266 56q143 0 270 -55t221 -150.5t149.5 -223.5t55.5 -273q0 -146 -55.5 -273t-149.5 -221t-220 -148.5t-269 -54.5q-142 0 -265.5 54.5t-217 148.5t-146.5 221t-53 271zM166 672q0 -127 45 -237.5t124 -193.5t186.5 -131.5 t232.5 -48.5t234.5 48.5t190.5 131.5t128 194.5t47 238.5q0 135 -47 248.5t-128 195.5t-191.5 128t-235.5 46t-231.5 -49t-185.5 -134t-124 -197.5t-45 -239.5zM342 664q0 94 38 176t101.5 140t147.5 92t178 34q59 0 105 -15.5t87 -37.5q27 -15 44.5 -16t25.5 24 q4 12 20.5 10t14.5 -10q-10 -49 -6 -106.5t8 -116.5q-4 -11 -23.5 -12t-21.5 16q-17 104 -84.5 161.5t-169.5 57.5q-88 0 -146.5 -35t-94.5 -91t-50 -127t-14 -140q0 -68 16.5 -134.5t50 -119t88 -85t131.5 -32.5q54 0 101 13.5t76 41.5q41 35 63.5 84t32.5 111q0 8 8 10 t17.5 1t15.5 -5t6 -10q-8 -64 -7 -126.5t7 -140.5q0 -10 -19.5 -11t-21.5 9q-4 25 -18.5 46.5t-44.5 1.5q-52 -33 -101 -51.5t-115 -18.5q-96 0 -178 28.5t-141 83t-93 130t-34 170.5z" />
<glyph unicode="&#xaa;" horiz-adv-x="791" d="M74 844q0 108 96 167.5t301 59.5q8 12 9 28.5t1 51.5q0 78 -25 129q-24 53 -89 53q-54 0 -90.5 -20.5t-36.5 -55.5q0 -8 3 -17.5t7 -18.5t7 -16.5t3 -12.5q0 -25 -22.5 -45.5t-59.5 -20.5q-48 0 -66 22.5t-18 57.5q0 40 25 74.5t65.5 60t91 40t101.5 14.5q63 0 112 -13.5 t82.5 -43t51.5 -77t18 -114.5v-297q0 -27 1 -46t6 -31t14.5 -17.5t27.5 -5.5q19 0 31 10t29 33q7 8 20 -2q14 -9 10 -19q-14 -49 -54 -83t-101 -34q-58 0 -88.5 21.5t-47.5 60.5q-52 -37 -101 -60q-47 -22 -124 -22q-91 0 -140.5 49t-49.5 140zM242 860q0 -41 16 -74 q16 -34 66 -34q34 0 69 9t68 36q4 4 12 13t8 15v166q0 21 -14 21q-117 -11 -171 -50.5t-54 -101.5z" />
<glyph unicode="&#xab;" horiz-adv-x="997" d="M82 469q0 14 3 26.5t9 16.5q108 71 208 165q50 47 94 91.5t83 87.5q8 8 18.5 7t19.5 -6t14.5 -13t3.5 -15q-31 -59 -64 -107t-66.5 -90t-67.5 -80t-67 -77q70 -88 140.5 -181t126.5 -204q2 -8 -4 -18.5t-16 -18t-21.5 -8.5t-20.5 10q-38 46 -81.5 94.5t-93.5 99.5 q-50 52 -101 96.5t-105 82.5q-6 4 -9 15.5t-3 25.5zM432 469q0 14 3 26.5t9 16.5q108 71 208 165q50 47 94 91.5t83 87.5q8 8 18.5 7t19.5 -6t14.5 -13t3.5 -15q-31 -59 -64 -107t-66.5 -90t-67.5 -80t-67 -77q70 -88 140.5 -181t126.5 -204q2 -8 -4 -18.5t-16 -18 t-21.5 -8.5t-20.5 10q-38 46 -81.5 94.5t-93.5 99.5q-50 52 -101 96.5t-105 82.5q-6 4 -9 15.5t-3 25.5z" />
<glyph unicode="&#xac;" horiz-adv-x="1130" d="M76 418v112h960v-540h-112v428h-848z" />
<glyph unicode="&#xad;" horiz-adv-x="532" d="M32 446q0 27 10.5 51t31.5 25l397 15q15 0 22.5 -18t7.5 -41q0 -27 -11 -50.5t-35 -24.5l-394 -14q-14 0 -21.5 17t-7.5 40z" />
<glyph unicode="&#xae;" horiz-adv-x="868" d="M82 1018q0 74 27.5 139.5t75.5 114.5t111.5 77.5t137.5 28.5t137.5 -28.5t111.5 -77.5t75.5 -114.5t27.5 -139.5t-27.5 -139.5t-75.5 -114.5t-111.5 -77t-137.5 -28t-137.5 28t-111.5 77t-75.5 114.5t-27.5 139.5zM131 1018q0 -66 23.5 -123t64.5 -100t96.5 -68 t118.5 -25q64 0 119 25t96 68t64.5 100t23.5 123q0 65 -23.5 122.5t-64.5 100.5t-96 68.5t-119 25.5q-63 0 -118.5 -25.5t-96.5 -68.5t-64.5 -100.5t-23.5 -122.5zM247 1222.5q-1 10.5 7 10.5q22 0 36.5 -1t35.5 -1q36 0 71 1t58 1q24 0 47.5 -5t42 -17.5t31 -33t12.5 -51.5 q0 -51 -34 -72.5t-71 -29.5q27 -6 42.5 -22.5t24.5 -36t13 -38t6 -26.5q6 -35 29 -35q14 0 23 21q4 6 11 4t7 -8q-4 -37 -30.5 -51.5t-53.5 -14.5q-45 0 -59 29q-9 18 -12 47t-8 55.5t-17.5 45t-36.5 18.5q-10 0 -17.5 -5.5t-7.5 -15.5v-82q0 -45 14.5 -52t39.5 -11 q8 -2 7 -13.5t-7 -11.5q-21 0 -51.5 3t-55.5 3t-44 -3t-40 -3q-8 0 -9 11.5t9 13.5q29 4 40 12t11 39v233q0 35 -10 55.5t-49 24.5q-4 2 -5 12.5zM397 1053q0 -15 14.5 -17t20.5 -2q64 4 64 92q0 45 -16.5 64.5t-43.5 19.5q-22 0 -30.5 -3t-8.5 -23v-131z" />
<glyph unicode="&#xaf;" horiz-adv-x="565" d="M0 1128.5q0 18.5 7 35t20 16.5h512q12 0 19 -16.5t7 -35t-7 -35t-19 -16.5h-512q-13 0 -20 16.5t-7 35z" />
<glyph unicode="&#xb0;" horiz-adv-x="459" d="M20 1268q0 41 16.5 78.5t45.5 66.5t66.5 45.5t80.5 16.5t81 -16.5t67 -45.5t45 -66.5t16 -78.5q0 -43 -16 -81t-45 -66.5t-67 -45t-81 -16.5t-80.5 16.5t-66.5 45t-45.5 66.5t-16.5 81zM94 1270q0 -60 38 -101t97 -41q58 0 95.5 41t37.5 101q0 55 -37.5 95t-97.5 40 q-57 0 -95 -39t-38 -96z" />
<glyph unicode="&#xb1;" horiz-adv-x="971" d="M123 2v94h725v-94h-725zM123 582v94h315v364h94v-364h316v-94h-316v-371h-94v371h-315z" />
<glyph unicode="&#xb2;" horiz-adv-x="657" d="M33 680q0 16 12 27q117 104 195.5 177.5t125 130t66 100.5t19.5 91q0 72 -34 117t-108 45q-39 0 -66.5 -11t-46 -27.5t-27.5 -34t-9 -29.5q0 -11 6 -29t35 -18q35 0 49 -12.5t14 -35.5q0 -20 -18.5 -37.5t-59.5 -17.5q-34 0 -55.5 11.5t-34 27.5t-17.5 34.5t-5 33.5 q0 41 20.5 77.5t56 64.5t84 43t105.5 15q143 0 208.5 -57t65.5 -143q0 -66 -41 -124.5t-100 -112.5t-125.5 -103t-120.5 -99q-8 -4 -9 -11t9 -7h219q25 0 40.5 3t28.5 13.5t27.5 33t32.5 61.5q9 16 31.5 15t22.5 -28q-21 -65 -27 -106t-6 -82q0 -8 -9 -11t-20 -3h-495 q-25 0 -32 5t-7 13z" />
<glyph unicode="&#xb3;" horiz-adv-x="657" d="M39 756q0 28 17.5 54t58.5 26q22 0 43.5 -15.5t21.5 -42.5q0 -10 -4 -23.5t-4 -23.5t11.5 -17t27.5 -10.5t33.5 -4.5t31.5 -1q50 0 83.5 15.5t53 39t29 54.5t9.5 61q0 72 -28 119t-85 47q-27 0 -44.5 -3t-31.5 -5q-10 -2 -16 5t-8 15.5t1 16.5t13 10q90 17 127 65t37 113 q0 49 -29 82t-96 33q-39 0 -67.5 -10t-47 -25.5t-28 -32t-9.5 -26.5t6.5 -26.5t36.5 -16.5q64 0 64 -47q0 -23 -19.5 -41.5t-56.5 -18.5t-58.5 12.5t-32.5 29t-15.5 36t-4.5 33.5q0 37 19.5 71.5t55.5 60.5t84 41t104 15q49 0 94 -11t80.5 -33.5t57 -54.5t21.5 -71 q0 -65 -52 -107t-130 -71q105 -14 165 -64.5t60 -129.5q0 -66 -29.5 -109t-78.5 -68.5t-111.5 -37t-128.5 -11.5q-34 0 -74 4.5t-75 15.5t-58.5 30.5t-23.5 52.5z" />
<glyph unicode="&#xb4;" horiz-adv-x="479" d="M35 1055.5q-2 13.5 8 25.5q59 72 107.5 140.5t95.5 150.5q17 34 41 68q24 33 65 33q18 0 34.5 -5t30 -14.5t21.5 -23t8 -29.5q0 -35 -19 -65.5t-44 -55.5q-61 -69 -128.5 -129.5t-154.5 -120.5q-15 -11 -29.5 -8.5t-24 11.5t-11.5 22.5z" />
<glyph unicode="&#xb5;" horiz-adv-x="1192" d="M81 853.5q1 10.5 7 14.5q67 39 140 57q72 19 114 19q60 0 88.5 -27t28.5 -69q0 -63 -10.5 -136.5t-22.5 -148.5t-22.5 -148t-10.5 -136q0 -7 13 -32.5t37.5 -54t59 -51t77.5 -22.5q44 0 80 17.5t65.5 47t52.5 68.5t41 82q6 15 11 41t9.5 58.5t7.5 70.5t5 79 q3 58 3.5 117.5t0.5 114.5v82q0 6 4 16.5t17 10.5q48 2 88 5t88 7q15 0 14 -27q-10 -63 -15 -170q-2 -54 -3.5 -110t-1.5 -117q0 -128 1.5 -208.5t10 -126.5t27.5 -62.5t55 -16.5q16 0 35.5 5.5t42.5 21.5q7 4 14 0.5t12 -11t6 -16.5t-4 -14q-43 -43 -92 -70.5t-115 -27.5 q-31 1 -62.5 11t-57 32.5t-41.5 59t-16 90.5q0 14 1.5 28.5t3.5 30.5q2 6 -4 6t-8 -4q-57 -136 -135 -198t-182 -62q-54 0 -99 26.5t-73 71.5q0 -37 3.5 -78.5t8.5 -84.5t12 -86.5t14 -84.5t14.5 -78t12.5 -67.5t8.5 -53t3.5 -34.5q0 -21 -16 -37.5t-39 -27.5t-50.5 -17 t-49.5 -6q-20 0 -33.5 4.5t-13.5 15.5q0 16 2 46t4 64.5t4 70.5t2 65q2 42 2 85v91v216q0 114 1.5 266.5t6.5 361.5q0 29 -1 50.5t-6.5 36t-17.5 21.5t-35 7q-32 0 -95 -15q-10 -2 -16.5 5.5t-9.5 18t-2 21z" />
<glyph unicode="&#xb6;" horiz-adv-x="930" d="M-49 1061q0 80 33.5 138t93 97t140.5 58.5t177 19.5h461q14 0 20.5 -9t6.5 -20.5t-7.5 -20.5t-19.5 -11l-49 -6q-49 -7 -82 -19t-51.5 -35.5t-24.5 -59.5t-6 -89v-787q0 -67 2 -112t14.5 -74t39 -44t75.5 -21l76 -7q14 0 21.5 -10t8.5 -20.5t-5.5 -19.5t-18.5 -9h-305 q-8 0 -18.5 10t-10.5 33v1245q0 12 -9 18.5t-21 6.5q-11 0 -21 -6.5t-10 -18.5v-1245q0 -43 -49 -43h-312q-12 0 -18 9t-6 19.5t6 20.5t18 10l62 7q59 6 95 20t54.5 43t24.5 74t6 114v379q0 29 -15.5 40.5t-35.5 13.5q-76 6 -138.5 25.5t-107.5 56t-69.5 93t-24.5 136.5z " />
<glyph unicode="&#xb7;" horiz-adv-x="404" d="M72 567q0 52 39 91.5t90 39.5q55 0 93 -39.5t38 -91.5q0 -51 -38 -90t-93 -39q-51 0 -90 39t-39 90z" />
<glyph unicode="&#xb8;" horiz-adv-x="483" d="M23 -367q-3 9 3 17t15.5 12t19 3t13.5 -9q18 -37 50.5 -56.5t74.5 -19.5q54 0 87 36.5t33 96.5q0 42 -28.5 73.5t-89.5 41.5q-17 4 -15 18q7 57 23 96.5t39 67.5h94v-10q-29 -20 -45 -47t-25 -62q30 -2 63.5 -14t62 -33.5t47 -53t18.5 -73.5q0 -54 -21 -94.5t-56.5 -66.5 t-82 -39t-98.5 -13q-85 0 -129 41q-42 39 -53 88z" />
<glyph unicode="&#xb9;" horiz-adv-x="657" d="M83 673q-1 21 15 25q33 4 62.5 9.5t51 16.5t34 30.5t12.5 52.5v434q0 27 -3 44t-11.5 27.5t-23 14.5t-36.5 4q-16 0 -34.5 -1t-40.5 -3q-15 0 -19 19t10 24q72 10 138.5 21.5t132.5 27.5q14 4 27.5 2t13.5 -18v-596q0 -32 11.5 -52t31.5 -31.5t47 -17.5t59 -10 q17 -5 17 -24t-21 -19q-26 0 -56.5 1.5t-65.5 3.5q-68 6 -109 6q-16 0 -49.5 -1.5t-69 -4t-66 -4t-41.5 -1.5q-15 0 -17 20z" />
<glyph unicode="&#xba;" horiz-adv-x="854" d="M72 1034q0 80 26.5 145.5t74.5 113.5t115.5 75t151.5 27q74 0 137.5 -23.5t109.5 -69t71.5 -111t25.5 -151.5q0 -92 -26.5 -164.5t-73.5 -121.5t-112.5 -75t-143.5 -26t-143.5 23.5t-112.5 71t-73.5 119t-26.5 167.5zM248 1020q0 -51 7 -104.5t27.5 -97.5t56.5 -71.5 t91 -27.5t90 26.5t54.5 69.5t26.5 98.5t7 110.5q0 57 -7 112.5t-25.5 98.5t-52.5 69.5t-85 26.5q-59 0 -96 -26.5t-57.5 -70.5t-28.5 -100.5t-8 -113.5z" />
<glyph unicode="&#xbb;" horiz-adv-x="997" d="M111 90q55 111 125.5 204t140.5 181q-33 39 -67 77t-68 80t-66.5 90t-62.5 107q-4 7 1.5 14.5t15 13t20 6t18.5 -6.5q39 -43 83 -87.5t94 -91.5q100 -94 208 -165q6 -4 9 -16.5t3 -26.5t-3 -25.5t-9 -15.5q-54 -38 -105 -82.5t-101 -96.5q-50 -51 -93.5 -99.5 t-81.5 -94.5q-8 -10 -20.5 -9t-23 8.5t-16.5 17.5t-1 18zM461 90q55 111 125.5 204t140.5 181q-33 39 -67 77t-68 80t-66.5 90t-62.5 107q-4 7 1.5 14.5t15 13t20 6t18.5 -6.5q39 -43 83 -87.5t94 -91.5q100 -94 208 -165q6 -4 9 -16.5t3 -26.5t-3 -25.5t-9 -15.5 q-54 -38 -105 -82.5t-101 -96.5q-50 -51 -93.5 -99.5t-81.5 -94.5q-8 -10 -20.5 -9t-23 8.5t-16.5 17.5t-1 18z" />
<glyph unicode="&#xbc;" horiz-adv-x="1417" d="M83 673q-1 21 15 25q33 4 62.5 9.5t51 16.5t34 30.5t12.5 52.5v434q0 27 -3 44t-11.5 27.5t-23 14.5t-36.5 4q-16 0 -34.5 -1t-40.5 -3q-15 0 -19 19t10 24q72 10 138.5 21.5t132.5 27.5q14 4 27.5 2t13.5 -18v-596q0 -32 11.5 -52t31.5 -31.5t47 -17.5t59 -10 q17 -5 17 -24t-21 -19q-26 0 -56.5 1.5t-65.5 3.5q-68 6 -109 6q-16 0 -49.5 -1.5t-69 -4t-66 -4t-41.5 -1.5q-15 0 -17 20zM142 -135l1212 1614q6 7 17.5 3t22 -12t16.5 -18t1 -16l-1212 -1612q-6 -6 -18 -3.5t-22.5 10t-16.5 17t0 17.5zM753 247l448 518q8 11 31 9t23 -11 v-463q0 -14 1 -16t9 -2h78q9 0 9 -43t-13 -43h-66q-14 0 -16 -3.5t-2 -25.5v-166h-154v176q0 14 -2 16.5t-12 2.5h-312q-12 0 -19 16t-3 35zM872 282h219q2 0 6 1t4 11v256z" />
<glyph unicode="&#xbd;" horiz-adv-x="1602" d="M82 673q-1 21 15 25q33 4 62.5 9.5t51 16.5t34 30.5t12.5 52.5v434q0 27 -3 44t-11.5 27.5t-23 14.5t-36.5 4q-16 0 -34.5 -1t-40.5 -3q-15 0 -19 19t10 24q72 10 138.5 21.5t132.5 27.5q14 4 27.5 2t13.5 -18v-596q0 -32 11.5 -52t31.5 -31.5t47 -17.5t59 -10 q17 -5 17 -24t-21 -19q-26 0 -56.5 1.5t-65.5 3.5q-68 6 -109 6q-16 0 -49.5 -1.5t-69 -4t-66 -4t-41.5 -1.5q-15 0 -17 20zM142 -135l1212 1614q6 7 17.5 3t22 -12t16.5 -18t1 -16l-1212 -1612q-6 -6 -18 -3.5t-22.5 10t-16.5 17t0 17.5zM897 19q0 16 12 27 q117 104 195.5 177.5t125 130t66 100.5t19.5 91q0 72 -34 117t-108 45q-39 0 -66.5 -11t-46 -27.5t-27.5 -34t-9 -29.5q0 -11 6 -29t35 -18q35 0 49 -12.5t14 -35.5q0 -20 -18.5 -37.5t-59.5 -17.5q-34 0 -55.5 11.5t-34 27.5t-17.5 34.5t-5 33.5q0 41 20.5 77.5t56 64.5 t84 43t105.5 15q143 0 208.5 -57t65.5 -143q0 -66 -41 -124.5t-100 -112.5t-125.5 -103t-120.5 -99q-8 -4 -9 -11t9 -7h219q25 0 40.5 3t28.5 13.5t27.5 33t32.5 61.5q9 16 31.5 15t22.5 -28q-21 -65 -27 -106t-6 -82q0 -8 -9 -11t-20 -3h-495q-25 0 -32 5t-7 13z" />
<glyph unicode="&#xbe;" horiz-adv-x="1407" d="M39 756q0 28 17.5 54t58.5 26q22 0 43.5 -15.5t21.5 -42.5q0 -10 -4 -23.5t-4 -23.5t11.5 -17t27.5 -10.5t33.5 -4.5t31.5 -1q50 0 83.5 15.5t53 39t29 54.5t9.5 61q0 72 -28 119t-85 47q-27 0 -44.5 -3t-31.5 -5q-10 -2 -16 5t-8 15.5t1 16.5t13 10q90 17 127 65t37 113 q0 49 -29 82t-96 33q-39 0 -67.5 -10t-47 -25.5t-28 -32t-9.5 -26.5t6.5 -26.5t36.5 -16.5q64 0 64 -47q0 -23 -19.5 -41.5t-56.5 -18.5t-58.5 12.5t-32.5 29t-15.5 36t-4.5 33.5q0 37 19.5 71.5t55.5 60.5t84 41t104 15q49 0 94 -11t80.5 -33.5t57 -54.5t21.5 -71 q0 -65 -52 -107t-130 -71q105 -14 165 -64.5t60 -129.5q0 -66 -29.5 -109t-78.5 -68.5t-111.5 -37t-128.5 -11.5q-34 0 -74 4.5t-75 15.5t-58.5 30.5t-23.5 52.5zM121 -135l1212 1614q6 7 17.5 3t22 -12t16.5 -18t1 -16l-1212 -1612q-6 -6 -18 -3.5t-22.5 10t-16.5 17 t0 17.5zM753 247l448 518q8 11 31 9t23 -11v-463q0 -14 1 -16t9 -2h78q9 0 9 -43t-13 -43h-66q-14 0 -16 -3.5t-2 -25.5v-166h-154v176q0 14 -2 16.5t-12 2.5h-312q-12 0 -19 16t-3 35zM872 282h219q2 0 6 1t4 11v256z" />
<glyph unicode="&#xbf;" horiz-adv-x="817" d="M72 -82q0 98 26.5 169t76.5 117t124 69.5t166 29.5q14 0 22.5 4t13.5 15.5t6 33t1 58.5q0 28 -2 55t-8 61q-2 15 9 23t27.5 10t31 -3t18.5 -19q4 -19 11 -74t7 -123q0 -41 -4 -85t-12 -81t-18.5 -59.5t-22.5 -20.5q-41 6 -76 11.5t-68 5.5q-127 -2 -188 -61.5t-61 -186.5 q0 -57 25.5 -107.5t69.5 -88.5t105.5 -59.5t134.5 -21.5q41 0 58.5 13.5t28 30t23.5 29.5t44 13q43 0 66.5 -25.5t23.5 -60.5q0 -39 -34.5 -71.5t-116.5 -32.5q-117 0 -211.5 30.5t-160 88t-101 136.5t-35.5 177zM401 827q0 37 26 67t71 30q41 0 70.5 -27t29.5 -66 q0 -36 -26.5 -66t-69.5 -30q-41 0 -71 24.5t-30 67.5z" />
<glyph unicode="&#xc0;" horiz-adv-x="1503" d="M11 26q0 11 5.5 20t18.5 11l31 4q31 7 55.5 17t46.5 29.5t42 53t42 87.5l463 1165q6 17 33 17q28 0 45 -17q51 -131 109.5 -280.5t119.5 -304t122.5 -307t117.5 -288.5q24 -59 47 -91.5t47 -49.5t49 -23t53 -12q12 -2 17.5 -13t5.5 -23q0 -13 -5 -23t-16 -10 q-32 0 -63.5 2t-62.5 6q-30 4 -64 6t-72 2q-87 0 -162 -8t-145 -8q-14 0 -21.5 11t-7.5 26q0 12 6 21t21 11q70 9 102 25q33 16 33 68q0 14 -3 32.5t-13 50.5t-28.5 82t-49.5 127q-10 27 -27.5 34t-56.5 7h-361q-28 0 -40.5 -9t-22.5 -32l-92 -241q-11 -33 -11 -47 q0 -26 13.5 -44t36 -29t51.5 -16.5t59 -7.5q15 0 21 -11t6 -23q0 -13 -6 -24t-21 -11q-24 0 -53 2.5t-59.5 5.5t-61.5 5.5t-59 2.5q-53 0 -102.5 -8t-106.5 -8q-12 0 -19 12t-7 26zM439 1790q0 31 28.5 57.5t63.5 26.5q30 0 58 -22.5t50 -45.5q70 -65 136.5 -116.5 t144.5 -100.5q16 -10 16 -28q0 -17 -16.5 -31t-38.5 -6q-98 30 -182 68t-162 85q-33 17 -65.5 45.5t-32.5 67.5zM477 571.5q8 -8.5 31 -8.5h330q28 0 38.5 9.5t0.5 33.5l-179 479q-4 11 -16 11t-16 -11l-187 -479q-10 -26 -2 -34.5z" />
<glyph unicode="&#xc1;" horiz-adv-x="1503" d="M11 26q0 11 5.5 20t18.5 11l31 4q31 7 55.5 17t46.5 29.5t42 53t42 87.5l463 1165q6 17 33 17q28 0 45 -17q51 -131 109.5 -280.5t119.5 -304t122.5 -307t117.5 -288.5q24 -59 47 -91.5t47 -49.5t49 -23t53 -12q12 -2 17.5 -13t5.5 -23q0 -13 -5 -23t-16 -10 q-32 0 -63.5 2t-62.5 6q-30 4 -64 6t-72 2q-87 0 -162 -8t-145 -8q-14 0 -21.5 11t-7.5 26q0 12 6 21t21 11q70 9 102 25q33 16 33 68q0 14 -3 32.5t-13 50.5t-28.5 82t-49.5 127q-10 27 -27.5 34t-56.5 7h-361q-28 0 -40.5 -9t-22.5 -32l-92 -241q-11 -33 -11 -47 q0 -26 13.5 -44t36 -29t51.5 -16.5t59 -7.5q15 0 21 -11t6 -23q0 -13 -6 -24t-21 -11q-24 0 -53 2.5t-59.5 5.5t-61.5 5.5t-59 2.5q-53 0 -102.5 -8t-106.5 -8q-12 0 -19 12t-7 26zM477 571.5q8 -8.5 31 -8.5h330q28 0 38.5 9.5t0.5 33.5l-179 479q-4 11 -16 11t-16 -11 l-187 -479q-10 -26 -2 -34.5zM504 1561q0 18 16 28q78 49 144.5 100.5t136.5 116.5q11 12 23.5 24t26 21.5t28.5 16t30 6.5q34 0 63 -27q29 -26 29 -57q0 -40 -33 -68q-31 -28 -65 -45q-78 -48 -161.5 -85.5t-182.5 -67.5q-12 -4 -22 -2t-17.5 8t-11.5 14t-4 17z" />
<glyph unicode="&#xc2;" horiz-adv-x="1503" d="M11 26q0 11 5.5 20t18.5 11l31 4q31 7 55.5 17t46.5 29.5t42 53t42 87.5l463 1165q6 17 33 17q28 0 45 -17q51 -131 109.5 -280.5t119.5 -304t122.5 -307t117.5 -288.5q24 -59 47 -91.5t47 -49.5t49 -23t53 -12q12 -2 17.5 -13t5.5 -23q0 -13 -5 -23t-16 -10 q-32 0 -63.5 2t-62.5 6q-30 4 -64 6t-72 2q-87 0 -162 -8t-145 -8q-14 0 -21.5 11t-7.5 26q0 12 6 21t21 11q70 9 102 25q33 16 33 68q0 14 -3 32.5t-13 50.5t-28.5 82t-49.5 127q-10 27 -27.5 34t-56.5 7h-361q-28 0 -40.5 -9t-22.5 -32l-92 -241q-11 -33 -11 -47 q0 -26 13.5 -44t36 -29t51.5 -16.5t59 -7.5q15 0 21 -11t6 -23q0 -13 -6 -24t-21 -11q-24 0 -53 2.5t-59.5 5.5t-61.5 5.5t-59 2.5q-53 0 -102.5 -8t-106.5 -8q-12 0 -19 12t-7 26zM472.5 1498.5q-3.5 10.5 5.5 18.5q66 60 130.5 128.5t127.5 134.5q16 16 35 16q18 0 32 -14 q60 -60 115 -112t121 -106q8 -6 6 -17.5t-10 -24.5t-20.5 -25.5t-26.5 -21.5t-26.5 -12t-21.5 3q-60 45 -109.5 93t-103.5 102q-40 -42 -92.5 -90.5t-109.5 -96.5q-8 -8 -19.5 -5t-20.5 11t-12.5 18.5zM477 571.5q8 -8.5 31 -8.5h330q28 0 38.5 9.5t0.5 33.5l-179 479 q-4 11 -16 11t-16 -11l-187 -479q-10 -26 -2 -34.5z" />
<glyph unicode="&#xc3;" horiz-adv-x="1503" d="M11 26q0 11 5.5 20t18.5 11l31 4q31 7 55.5 17t46.5 29.5t42 53t42 87.5l463 1165q6 17 33 17q28 0 45 -17q51 -131 109.5 -280.5t119.5 -304t122.5 -307t117.5 -288.5q24 -59 47 -91.5t47 -49.5t49 -23t53 -12q12 -2 17.5 -13t5.5 -23q0 -13 -5 -23t-16 -10 q-32 0 -63.5 2t-62.5 6q-30 4 -64 6t-72 2q-87 0 -162 -8t-145 -8q-14 0 -21.5 11t-7.5 26q0 12 6 21t21 11q70 9 102 25q33 16 33 68q0 14 -3 32.5t-13 50.5t-28.5 82t-49.5 127q-10 27 -27.5 34t-56.5 7h-361q-28 0 -40.5 -9t-22.5 -32l-92 -241q-11 -33 -11 -47 q0 -26 13.5 -44t36 -29t51.5 -16.5t59 -7.5q15 0 21 -11t6 -23q0 -13 -6 -24t-21 -11q-24 0 -53 2.5t-59.5 5.5t-61.5 5.5t-59 2.5q-53 0 -102.5 -8t-106.5 -8q-12 0 -19 12t-7 26zM457 1546q6 33 20.5 70t37.5 68.5t55.5 52t74.5 20.5q39 0 75 -17t69.5 -37t63.5 -36.5 t56 -17.5q31 0 52.5 25t35.5 73q6 21 29 16q24 -5 24 -16q0 -29 -10 -67.5t-30.5 -73t-50 -58.5t-68.5 -24q-42 0 -81 18.5t-74.5 40t-68 40t-63.5 18.5q-15 0 -29 -8.5t-25.5 -22.5t-20.5 -32t-15 -36q-4 -9 -12.5 -13t-18.5 -4q-11 0 -20 5t-6 16zM477 571.5 q8 -8.5 31 -8.5h330q28 0 38.5 9.5t0.5 33.5l-179 479q-4 11 -16 11t-16 -11l-187 -479q-10 -26 -2 -34.5z" />
<glyph unicode="&#xc4;" horiz-adv-x="1503" d="M11 26q0 11 5.5 20t18.5 11l31 4q31 7 55.5 17t46.5 29.5t42 53t42 87.5l463 1165q6 17 33 17q28 0 45 -17q51 -131 109.5 -280.5t119.5 -304t122.5 -307t117.5 -288.5q24 -59 47 -91.5t47 -49.5t49 -23t53 -12q12 -2 17.5 -13t5.5 -23q0 -13 -5 -23t-16 -10 q-32 0 -63.5 2t-62.5 6q-30 4 -64 6t-72 2q-87 0 -162 -8t-145 -8q-14 0 -21.5 11t-7.5 26q0 12 6 21t21 11q70 9 102 25q33 16 33 68q0 14 -3 32.5t-13 50.5t-28.5 82t-49.5 127q-10 27 -27.5 34t-56.5 7h-361q-28 0 -40.5 -9t-22.5 -32l-92 -241q-11 -33 -11 -47 q0 -26 13.5 -44t36 -29t51.5 -16.5t59 -7.5q15 0 21 -11t6 -23q0 -13 -6 -24t-21 -11q-24 0 -53 2.5t-59.5 5.5t-61.5 5.5t-59 2.5q-53 0 -102.5 -8t-106.5 -8q-12 0 -19 12t-7 26zM444 1589q0 43 31.5 71.5t72.5 28.5t73 -29.5t32 -70.5q0 -45 -29.5 -77t-75.5 -32 q-47 0 -75.5 32t-28.5 77zM477 571.5q8 -8.5 31 -8.5h330q28 0 38.5 9.5t0.5 33.5l-179 479q-4 11 -16 11t-16 -11l-187 -479q-10 -26 -2 -34.5zM847 1589q0 43 32 71.5t73 28.5t72.5 -29.5t31.5 -70.5q0 -45 -28.5 -77t-75.5 -32q-45 0 -75 32t-30 77z" />
<glyph unicode="&#xc5;" horiz-adv-x="1503" d="M11 26q0 11 5.5 20t18.5 11l31 4q31 7 55.5 17t46.5 29.5t42 53t42 87.5l463 1165q6 17 33 17q28 0 45 -17q51 -131 109.5 -280.5t119.5 -304t122.5 -307t117.5 -288.5q24 -59 47 -91.5t47 -49.5t49 -23t53 -12q12 -2 17.5 -13t5.5 -23q0 -13 -5 -23t-16 -10 q-32 0 -63.5 2t-62.5 6q-30 4 -64 6t-72 2q-87 0 -162 -8t-145 -8q-14 0 -21.5 11t-7.5 26q0 12 6 21t21 11q70 9 102 25q33 16 33 68q0 14 -3 32.5t-13 50.5t-28.5 82t-49.5 127q-10 27 -27.5 34t-56.5 7h-361q-28 0 -40.5 -9t-22.5 -32l-92 -241q-11 -33 -11 -47 q0 -26 13.5 -44t36 -29t51.5 -16.5t59 -7.5q15 0 21 -11t6 -23q0 -13 -6 -24t-21 -11q-24 0 -53 2.5t-59.5 5.5t-61.5 5.5t-59 2.5q-53 0 -102.5 -8t-106.5 -8q-12 0 -19 12t-7 26zM477 571.5q8 -8.5 31 -8.5h330q28 0 38.5 9.5t0.5 33.5l-179 479q-4 11 -16 11t-16 -11 l-187 -479q-10 -26 -2 -34.5zM522 1737q0 49 18.5 89t50.5 68.5t74 44t89 15.5q94 0 160.5 -58.5t66.5 -156.5q0 -105 -66.5 -161t-160.5 -56q-98 0 -165 55t-67 160zM635 1739q0 -72 31 -115t86 -43t86 43t31 117q0 72 -31 112.5t-86 40.5t-86 -42t-31 -113z" />
<glyph unicode="&#xc6;" horiz-adv-x="1948" d="M20 24q0 12 7 22.5t22 12.5l41 7q33 6 56.5 12.5t46 22.5t49 46t65.5 84l594 904q39 57 48 78q9 22 9 34q0 17 -18.5 30t-44 22t-52 13.5t-42.5 4.5q-13 0 -20.5 11t-7.5 24q0 12 7.5 22t22.5 10q60 0 121 -4t127 -4h735q18 0 31 -4q16 -5 12 -33q-3 -16 -3.5 -35 t-0.5 -40v-33q0 -45 3 -87.5t3 -84.5q0 -8 -10 -12.5t-23 -4.5q-11 0 -21 4t-12 13q-14 80 -28.5 125.5t-41 68t-70.5 29t-116 8.5h-123q-58 0 -91 -2t-49.5 -15t-20.5 -41.5t-4 -80.5v-358q0 -29 10 -36t20 -7q95 0 149 8.5t81.5 29.5t37 56.5t15.5 89.5q2 11 13.5 16.5 t24.5 5.5q11 0 20.5 -5.5t9.5 -16.5q0 -33 -2 -58.5t-4.5 -51t-4.5 -53.5t-2 -64q0 -63 6 -112q4 -25 5.5 -55.5t1.5 -66.5q0 -11 -9.5 -15.5t-21.5 -4.5q-13 0 -24 5t-13 15q-6 60 -15.5 97.5t-37 58t-81.5 28t-149 7.5q-10 0 -20 -7.5t-10 -29.5v-269q0 -94 8.5 -148 t38 -81.5t85.5 -35t152 -7.5q49 0 92 4t66 12q40 15 70 32t51 43t34 66t21 101q2 11 13 16t25 5q15 0 27.5 -6t10.5 -17q-10 -87 -18.5 -161t-6.5 -152q0 -3 -1.5 -8t-6.5 -9.5t-14.5 -8t-24.5 -3.5h-743q-78 -4 -152.5 -6t-134.5 -6q-14 0 -20.5 11t-6.5 24t6 23.5t17 10.5 q95 9 142 47q46 39 46 142v256q0 22 -9 24t-19 2h-320q-33 0 -50 -14t-34 -41q-42 -70 -80.5 -134t-78.5 -136q-29 -52 -29 -84q0 -18 6.5 -28.5t21 -17t37.5 -9.5t56 -5q13 0 19.5 -11t6.5 -25q0 -13 -6 -23t-20 -10q-29 0 -61 1.5t-67 5.5t-66 5.5t-60 1.5q-27 0 -55 -2 t-54 -5t-49 -5t-41 -2q-11 0 -18 10.5t-7 23.5zM657.5 610q6.5 -4 28.5 -4h281q10 0 20 12.5t10 40.5v459q0 6 -6 5t-10 -5l-313 -477q-17 -27 -10.5 -31z" />
<glyph unicode="&#xc7;" horiz-adv-x="1411" d="M82 676q0 180 55.5 318.5t152.5 232.5t231 142t292 48q92 0 170 -22.5t154 -59.5q22 -10 41.5 -19t33.5 -9q33 0 43 39q2 8 13.5 12t23 3t19.5 -5t6 -13q-8 -32 -11 -67t-3 -72q0 -57 8 -114.5t16 -118.5q0 -8 -9 -13.5t-22.5 -6.5t-26 3t-14.5 15q-51 184 -165.5 271 t-288.5 87q-135 0 -223.5 -57.5t-140.5 -148.5t-72.5 -200.5t-20.5 -213.5q0 -115 24.5 -230t80 -207t144.5 -150.5t216 -58.5q98 0 176 17.5t131 64.5q66 60 105 143t55 187q2 14 13 18.5t23.5 1t23 -11.5t7.5 -16q-6 -41 -8 -81t-2 -81q0 -70 5 -142.5t10 -152.5 q0 -12 -8.5 -18t-19.5 -7t-21.5 4t-12.5 15q-4 18 -14 35.5t-26.5 29t-38 11.5t-48.5 -15q-78 -45 -145.5 -63t-145.5 -23q-18 -2 -36.5 -30.5t-22.5 -55.5q29 -2 62.5 -14t62.5 -33.5t47 -53.5t18 -73q0 -49 -23.5 -89t-60 -67.5t-84 -42t-92.5 -14.5q-65 0 -115.5 31 t-64.5 98q-2 9 4 17t15.5 12t18.5 3t13 -9q19 -37 51.5 -56.5t73.5 -19.5q53 0 87 37t34 96q0 41 -28.5 73t-90.5 42q-16 4 -14 18q8 76 39 129q-346 11 -513 191t-167 510z" />
<glyph unicode="&#xc8;" horiz-adv-x="1229" d="M55 1348q0 13 6 23.5t17 10.5q68 0 124 -3q55 -3 130 -3h735q18 0 31 -4q16 -5 12 -33q-3 -16 -3.5 -35t-0.5 -40v-33q0 -45 3 -87.5t3 -84.5q0 -8 -10.5 -12.5t-22.5 -4.5q-11 0 -20.5 4t-11.5 13q-14 79 -29 124.5t-41.5 69t-70 29.5t-115.5 8h-123q-59 0 -92 -2 t-49.5 -15t-20.5 -41.5t-4 -80.5v-358q0 -29 10 -36t20 -7q95 0 149 8.5t81.5 29.5t37 56.5t15.5 89.5q2 11 13.5 16.5t24.5 5.5q12 0 21 -5.5t9 -16.5q0 -33 -2 -58.5t-4.5 -51t-4.5 -53.5t-2 -64q0 -63 6 -112q4 -25 5.5 -55.5t1.5 -66.5q0 -10 -10 -15t-22 -5 q-13 0 -23.5 5t-12.5 15q-6 60 -15.5 97t-37 58t-81.5 28.5t-149 7.5q-10 0 -20 -7.5t-10 -29.5v-269q0 -94 8.5 -148t38 -81.5t86 -35t151.5 -7.5q51 0 93.5 4t64.5 12q40 15 70 32t51 43t34 66t21 101q2 11 13.5 16t25.5 5q15 0 27 -6t10 -17q-10 -87 -18.5 -161 t-6.5 -152q0 -3 -1.5 -8t-6.5 -9.5t-14.5 -8t-24.5 -3.5h-743q-78 0 -152.5 -4t-134.5 -8q-13 0 -20 11t-7 25q0 11 5.5 21t19.5 12q48 6 83.5 17.5t58.5 33t34 55t11 83.5v788q0 45 -3 88.5t-14 79.5t-32 62t-58 36q-22 7 -47 11t-47 6q-12 0 -17.5 9.5t-5.5 21.5z M326 1790q0 31 28.5 57.5t63.5 26.5q30 0 58 -22.5t50 -45.5q70 -65 136.5 -116.5t144.5 -100.5q16 -10 16 -28q0 -17 -16.5 -31t-38.5 -6q-98 30 -182 68t-162 85q-33 17 -65.5 45.5t-32.5 67.5z" />
<glyph unicode="&#xc9;" horiz-adv-x="1229" d="M55 1348q0 13 6 23.5t17 10.5q68 0 124 -3q55 -3 130 -3h735q18 0 31 -4q16 -5 12 -33q-3 -16 -3.5 -35t-0.5 -40v-33q0 -45 3 -87.5t3 -84.5q0 -8 -10.5 -12.5t-22.5 -4.5q-11 0 -20.5 4t-11.5 13q-14 79 -29 124.5t-41.5 69t-70 29.5t-115.5 8h-123q-59 0 -92 -2 t-49.5 -15t-20.5 -41.5t-4 -80.5v-358q0 -29 10 -36t20 -7q95 0 149 8.5t81.5 29.5t37 56.5t15.5 89.5q2 11 13.5 16.5t24.5 5.5q12 0 21 -5.5t9 -16.5q0 -33 -2 -58.5t-4.5 -51t-4.5 -53.5t-2 -64q0 -63 6 -112q4 -25 5.5 -55.5t1.5 -66.5q0 -10 -10 -15t-22 -5 q-13 0 -23.5 5t-12.5 15q-6 60 -15.5 97t-37 58t-81.5 28.5t-149 7.5q-10 0 -20 -7.5t-10 -29.5v-269q0 -94 8.5 -148t38 -81.5t86 -35t151.5 -7.5q51 0 93.5 4t64.5 12q40 15 70 32t51 43t34 66t21 101q2 11 13.5 16t25.5 5q15 0 27 -6t10 -17q-10 -87 -18.5 -161 t-6.5 -152q0 -3 -1.5 -8t-6.5 -9.5t-14.5 -8t-24.5 -3.5h-743q-78 0 -152.5 -4t-134.5 -8q-13 0 -20 11t-7 25q0 11 5.5 21t19.5 12q48 6 83.5 17.5t58.5 33t34 55t11 83.5v788q0 45 -3 88.5t-14 79.5t-32 62t-58 36q-22 7 -47 11t-47 6q-12 0 -17.5 9.5t-5.5 21.5z M426 1561q0 18 16 28q78 49 144.5 100.5t136.5 116.5q11 12 23.5 24t26 21.5t28.5 16t30 6.5q34 0 63 -27q29 -26 29 -57q0 -40 -33 -68q-31 -28 -65 -45q-78 -48 -161.5 -85.5t-182.5 -67.5q-12 -4 -22 -2t-17.5 8t-11.5 14t-4 17z" />
<glyph unicode="&#xca;" horiz-adv-x="1229" d="M55 1348q0 13 6 23.5t17 10.5q68 0 124 -3q55 -3 130 -3h735q18 0 31 -4q16 -5 12 -33q-3 -16 -3.5 -35t-0.5 -40v-33q0 -45 3 -87.5t3 -84.5q0 -8 -10.5 -12.5t-22.5 -4.5q-11 0 -20.5 4t-11.5 13q-14 79 -29 124.5t-41.5 69t-70 29.5t-115.5 8h-123q-59 0 -92 -2 t-49.5 -15t-20.5 -41.5t-4 -80.5v-358q0 -29 10 -36t20 -7q95 0 149 8.5t81.5 29.5t37 56.5t15.5 89.5q2 11 13.5 16.5t24.5 5.5q12 0 21 -5.5t9 -16.5q0 -33 -2 -58.5t-4.5 -51t-4.5 -53.5t-2 -64q0 -63 6 -112q4 -25 5.5 -55.5t1.5 -66.5q0 -10 -10 -15t-22 -5 q-13 0 -23.5 5t-12.5 15q-6 60 -15.5 97t-37 58t-81.5 28.5t-149 7.5q-10 0 -20 -7.5t-10 -29.5v-269q0 -94 8.5 -148t38 -81.5t86 -35t151.5 -7.5q51 0 93.5 4t64.5 12q40 15 70 32t51 43t34 66t21 101q2 11 13.5 16t25.5 5q15 0 27 -6t10 -17q-10 -87 -18.5 -161 t-6.5 -152q0 -3 -1.5 -8t-6.5 -9.5t-14.5 -8t-24.5 -3.5h-743q-78 0 -152.5 -4t-134.5 -8q-13 0 -20 11t-7 25q0 11 5.5 21t19.5 12q48 6 83.5 17.5t58.5 33t34 55t11 83.5v788q0 45 -3 88.5t-14 79.5t-32 62t-58 36q-22 7 -47 11t-47 6q-12 0 -17.5 9.5t-5.5 21.5z M347.5 1541.5q-3.5 10.5 5.5 18.5q66 60 130.5 128.5t127.5 134.5q16 16 35 16q18 0 32 -14q60 -60 115 -112t121 -106q8 -6 6 -17.5t-10 -24.5t-20.5 -25.5t-26.5 -21.5t-26.5 -12t-21.5 3q-60 45 -109.5 93t-103.5 102q-40 -42 -92.5 -90.5t-109.5 -96.5q-8 -8 -19.5 -5 t-20.5 11t-12.5 18.5z" />
<glyph unicode="&#xcb;" horiz-adv-x="1229" d="M55 1348q0 13 6 23.5t17 10.5q68 0 124 -3q55 -3 130 -3h735q18 0 31 -4q16 -5 12 -33q-3 -16 -3.5 -35t-0.5 -40v-33q0 -45 3 -87.5t3 -84.5q0 -8 -10.5 -12.5t-22.5 -4.5q-11 0 -20.5 4t-11.5 13q-14 79 -29 124.5t-41.5 69t-70 29.5t-115.5 8h-123q-59 0 -92 -2 t-49.5 -15t-20.5 -41.5t-4 -80.5v-358q0 -29 10 -36t20 -7q95 0 149 8.5t81.5 29.5t37 56.5t15.5 89.5q2 11 13.5 16.5t24.5 5.5q12 0 21 -5.5t9 -16.5q0 -33 -2 -58.5t-4.5 -51t-4.5 -53.5t-2 -64q0 -63 6 -112q4 -25 5.5 -55.5t1.5 -66.5q0 -10 -10 -15t-22 -5 q-13 0 -23.5 5t-12.5 15q-6 60 -15.5 97t-37 58t-81.5 28.5t-149 7.5q-10 0 -20 -7.5t-10 -29.5v-269q0 -94 8.5 -148t38 -81.5t86 -35t151.5 -7.5q51 0 93.5 4t64.5 12q40 15 70 32t51 43t34 66t21 101q2 11 13.5 16t25.5 5q15 0 27 -6t10 -17q-10 -87 -18.5 -161 t-6.5 -152q0 -3 -1.5 -8t-6.5 -9.5t-14.5 -8t-24.5 -3.5h-743q-78 0 -152.5 -4t-134.5 -8q-13 0 -20 11t-7 25q0 11 5.5 21t19.5 12q48 6 83.5 17.5t58.5 33t34 55t11 83.5v788q0 45 -3 88.5t-14 79.5t-32 62t-58 36q-22 7 -47 11t-47 6q-12 0 -17.5 9.5t-5.5 21.5z M352 1630q0 43 31.5 71.5t72.5 28.5t73 -29.5t32 -70.5q0 -45 -29.5 -77t-75.5 -32q-47 0 -75.5 32t-28.5 77zM755 1630q0 43 32 71.5t73 28.5t72.5 -29.5t31.5 -70.5q0 -45 -28.5 -77t-75.5 -32q-45 0 -75 32t-30 77z" />
<glyph unicode="&#xcc;" horiz-adv-x="772" d="M51 20.5q0 12.5 6 23.5t19 13q63 6 101 15.5t59.5 30t28.5 58.5t7 105v803q0 64 -7 109t-27.5 73.5t-58.5 44t-101 19.5q-12 0 -18.5 11t-6.5 23.5t6.5 22.5t18.5 10q65 0 149 -6t158 -6q43 0 81 2t73.5 4t72.5 4t80 2q13 0 18 -10t4 -22.5t-7.5 -23.5t-16.5 -11 q-63 -4 -102 -17.5t-59.5 -41t-26.5 -72.5t-6 -115v-803q0 -67 8 -105t29.5 -58.5t60.5 -30t100 -15.5q13 -2 20 -13t7 -23.5t-7 -22.5t-22 -10q-82 0 -156.5 8t-148.5 8q-78 0 -161 -8t-150 -8q-13 0 -19 10t-6 22.5zM99 1790q0 31 28.5 57.5t63.5 26.5q30 0 58 -22.5 t50 -45.5q70 -65 136.5 -116.5t144.5 -100.5q16 -10 16 -28q0 -17 -16.5 -31t-38.5 -6q-98 30 -182 68t-162 85q-33 17 -65.5 45.5t-32.5 67.5z" />
<glyph unicode="&#xcd;" horiz-adv-x="772" d="M51 20.5q0 12.5 6 23.5t19 13q63 6 101 15.5t59.5 30t28.5 58.5t7 105v803q0 64 -7 109t-27.5 73.5t-58.5 44t-101 19.5q-12 0 -18.5 11t-6.5 23.5t6.5 22.5t18.5 10q65 0 149 -6t158 -6q43 0 81 2t73.5 4t72.5 4t80 2q13 0 18 -10t4 -22.5t-7.5 -23.5t-16.5 -11 q-63 -4 -102 -17.5t-59.5 -41t-26.5 -72.5t-6 -115v-803q0 -67 8 -105t29.5 -58.5t60.5 -30t100 -15.5q13 -2 20 -13t7 -23.5t-7 -22.5t-22 -10q-82 0 -156.5 8t-148.5 8q-78 0 -161 -8t-150 -8q-13 0 -19 10t-6 22.5zM211 1561q0 18 16 28q78 49 144.5 100.5t136.5 116.5 q11 12 23.5 24t26 21.5t28.5 16t30 6.5q34 0 63 -27q29 -26 29 -57q0 -40 -33 -68q-31 -28 -65 -45q-78 -48 -161.5 -85.5t-182.5 -67.5q-12 -4 -22 -2t-17.5 8t-11.5 14t-4 17z" />
<glyph unicode="&#xce;" horiz-adv-x="772" d="M51 20.5q0 12.5 6 23.5t19 13q63 6 101 15.5t59.5 30t28.5 58.5t7 105v803q0 64 -7 109t-27.5 73.5t-58.5 44t-101 19.5q-12 0 -18.5 11t-6.5 23.5t6.5 22.5t18.5 10q65 0 149 -6t158 -6q43 0 81 2t73.5 4t72.5 4t80 2q13 0 18 -10t4 -22.5t-7.5 -23.5t-16.5 -11 q-63 -4 -102 -17.5t-59.5 -41t-26.5 -72.5t-6 -115v-803q0 -67 8 -105t29.5 -58.5t60.5 -30t100 -15.5q13 -2 20 -13t7 -23.5t-7 -22.5t-22 -10q-82 0 -156.5 8t-148.5 8q-78 0 -161 -8t-150 -8q-13 0 -19 10t-6 22.5zM119.5 1541.5q-3.5 10.5 5.5 18.5q66 60 130.5 128.5 t127.5 134.5q16 16 35 16q18 0 32 -14q60 -60 115 -112t121 -106q8 -6 6 -17.5t-10 -24.5t-20.5 -25.5t-26.5 -21.5t-26.5 -12t-21.5 3q-60 45 -109.5 93t-103.5 102q-40 -42 -92.5 -90.5t-109.5 -96.5q-8 -8 -19.5 -5t-20.5 11t-12.5 18.5z" />
<glyph unicode="&#xcf;" horiz-adv-x="772" d="M51 20.5q0 12.5 6 23.5t19 13q63 6 101 15.5t59.5 30t28.5 58.5t7 105v803q0 64 -7 109t-27.5 73.5t-58.5 44t-101 19.5q-12 0 -18.5 11t-6.5 23.5t6.5 22.5t18.5 10q65 0 149 -6t158 -6q43 0 81 2t73.5 4t72.5 4t80 2q13 0 18 -10t4 -22.5t-7.5 -23.5t-16.5 -11 q-63 -4 -102 -17.5t-59.5 -41t-26.5 -72.5t-6 -115v-803q0 -67 8 -105t29.5 -58.5t60.5 -30t100 -15.5q13 -2 20 -13t7 -23.5t-7 -22.5t-22 -10q-82 0 -156.5 8t-148.5 8q-78 0 -161 -8t-150 -8q-13 0 -19 10t-6 22.5zM78 1632q0 43 31.5 71.5t72.5 28.5t73 -29.5t32 -70.5 q0 -45 -29.5 -77t-75.5 -32q-47 0 -75.5 32t-28.5 77zM481 1632q0 43 32 71.5t73 28.5t72.5 -29.5t31.5 -70.5q0 -45 -28.5 -77t-75.5 -32q-45 0 -75 32t-30 77z" />
<glyph unicode="&#xd0;" horiz-adv-x="1509" d="M25 724q0 18 8.5 33t25.5 15h220v260q0 44 -3 87.5t-14 80.5t-32 63.5t-58 36.5q-22 7 -47 11t-47 6q-13 0 -19 10t-6 22t6 22.5t19 10.5q35 0 65.5 -1t58.5 -3t60.5 -3t69.5 -1q85 0 166 3t166 5q168 0 309.5 -53.5t245 -148.5t161.5 -226.5t58 -287.5 q0 -172 -55 -299.5t-152 -211.5t-229 -125.5t-285 -41.5q-93 0 -179.5 8t-156.5 8q-44 0 -78.5 -1.5t-67 -3.5t-66.5 -5.5t-75 -7.5q-13 -2 -21 10t-8 26q0 11 6.5 21t22.5 12q49 7 84 17.5t57.5 31t33 54t10.5 86.5v434h-220q-17 0 -25.5 14.5t-8.5 31.5zM502 385 q0 -102 8.5 -162.5t35.5 -91.5t77.5 -40t134.5 -9q92 0 168.5 38.5t132 113.5t86.5 184t31 250q0 150 -30.5 265.5t-101 193.5t-185.5 118.5t-284 40.5q-40 0 -56.5 -14.5t-16.5 -54.5v-445h338q17 0 25.5 -14.5t8.5 -31.5q0 -18 -8.5 -33t-25.5 -15h-338v-293z" />
<glyph unicode="&#xd1;" horiz-adv-x="1612" d="M52 24q0 11 5.5 21t18.5 12q53 6 89 13t57.5 27.5t30.5 61t9 113.5v881q0 34 -10 62t-32 48.5t-58 33.5t-88 18q-11 0 -16 10.5t-5 23.5t5.5 23t17.5 10h77q53 0 109 -3q55 -3 100 -9q47 -6 54 -16l825 -981q4 -6 14.5 -4t10.5 14v502v49q0 36 -0.5 77.5t-2.5 81 t-5.5 73.5t-10.5 55q-9 30 -20 47.5t-28 27t-42.5 13t-62.5 6.5q-11 0 -16 11t-5 24q0 12 5 22t16 10q49 0 105 -6t114 -6q53 0 105 6t118 6q12 0 18.5 -10.5t6.5 -23.5t-6.5 -23t-18.5 -10q-36 -4 -58.5 -6t-37.5 -10.5t-27 -26t-27 -51.5q-10 -25 -15.5 -68t-8.5 -92 t-3.5 -98t-0.5 -86v-887q0 -7 -17 -12t-35 -5q-11 0 -21 2.5t-13 8.5l-881 1044q-5 6 -19 6t-14 -16v-746q0 -73 11.5 -113.5t35 -61t58.5 -27.5t82 -13q12 -2 17.5 -12t5.5 -22q0 -13 -6.5 -23t-18.5 -10q-45 0 -99.5 7t-128.5 7q-78 0 -137.5 -7t-101.5 -7 q-11 0 -17.5 10.5t-6.5 23.5zM523 1493q6 33 20.5 70t37.5 68.5t55.5 52t74.5 20.5q39 0 75 -17t69.5 -37t63.5 -36.5t56 -17.5q31 0 52.5 25t35.5 73q6 21 29 16q24 -5 24 -16q0 -29 -10 -67.5t-30.5 -73t-50 -58.5t-68.5 -24q-42 0 -81 18.5t-74.5 40t-68 40t-63.5 18.5 q-15 0 -29 -8.5t-25.5 -22.5t-20.5 -32t-15 -36q-4 -9 -12.5 -13t-18.5 -4q-11 0 -20 5t-6 16z" />
<glyph unicode="&#xd2;" horiz-adv-x="1536" d="M82 707q0 155 51 286t142.5 225.5t218.5 146.5t280 52q150 0 275 -50t215 -142t140 -222.5t50 -289.5q0 -178 -54 -314.5t-147.5 -229.5t-218.5 -141t-266 -48q-322 0 -504 182t-182 545zM344 698q0 -123 20.5 -237.5t69.5 -201.5t132 -140t210 -53q101 0 177.5 53 t130 140t81 200.5t27.5 236.5q0 119 -21.5 233.5t-70.5 204t-131 143.5t-201 54q-111 0 -191.5 -55t-132 -144.5t-76 -203t-24.5 -230.5zM494 1790q0 31 28.5 57.5t63.5 26.5q30 0 58 -22.5t50 -45.5q70 -65 136.5 -116.5t144.5 -100.5q16 -10 16 -28q0 -17 -16.5 -31 t-38.5 -6q-98 30 -182 68t-162 85q-33 17 -65.5 45.5t-32.5 67.5z" />
<glyph unicode="&#xd3;" horiz-adv-x="1536" d="M82 707q0 155 51 286t142.5 225.5t218.5 146.5t280 52q150 0 275 -50t215 -142t140 -222.5t50 -289.5q0 -178 -54 -314.5t-147.5 -229.5t-218.5 -141t-266 -48q-322 0 -504 182t-182 545zM344 698q0 -123 20.5 -237.5t69.5 -201.5t132 -140t210 -53q101 0 177.5 53 t130 140t81 200.5t27.5 236.5q0 119 -21.5 233.5t-70.5 204t-131 143.5t-201 54q-111 0 -191.5 -55t-132 -144.5t-76 -203t-24.5 -230.5zM572 1561q0 18 16 28q78 49 144.5 100.5t136.5 116.5q11 12 23.5 24t26 21.5t28.5 16t30 6.5q34 0 63 -27q29 -26 29 -57 q0 -40 -33 -68q-31 -28 -65 -45q-78 -48 -161.5 -85.5t-182.5 -67.5q-12 -4 -22 -2t-17.5 8t-11.5 14t-4 17z" />
<glyph unicode="&#xd4;" horiz-adv-x="1536" d="M82 707q0 155 51 286t142.5 225.5t218.5 146.5t280 52q150 0 275 -50t215 -142t140 -222.5t50 -289.5q0 -178 -54 -314.5t-147.5 -229.5t-218.5 -141t-266 -48q-322 0 -504 182t-182 545zM344 698q0 -123 20.5 -237.5t69.5 -201.5t132 -140t210 -53q101 0 177.5 53 t130 140t81 200.5t27.5 236.5q0 119 -21.5 233.5t-70.5 204t-131 143.5t-201 54q-111 0 -191.5 -55t-132 -144.5t-76 -203t-24.5 -230.5zM498.5 1541.5q-3.5 10.5 5.5 18.5q66 60 130.5 128.5t127.5 134.5q16 16 35 16q18 0 32 -14q60 -60 115 -112t121 -106q8 -6 6 -17.5 t-10 -24.5t-20.5 -25.5t-26.5 -21.5t-26.5 -12t-21.5 3q-60 45 -109.5 93t-103.5 102q-40 -42 -92.5 -90.5t-109.5 -96.5q-8 -8 -19.5 -5t-20.5 11t-12.5 18.5z" />
<glyph unicode="&#xd5;" horiz-adv-x="1536" d="M82 707q0 155 51 286t142.5 225.5t218.5 146.5t280 52q150 0 275 -50t215 -142t140 -222.5t50 -289.5q0 -178 -54 -314.5t-147.5 -229.5t-218.5 -141t-266 -48q-322 0 -504 182t-182 545zM344 698q0 -123 20.5 -237.5t69.5 -201.5t132 -140t210 -53q101 0 177.5 53 t130 140t81 200.5t27.5 236.5q0 119 -21.5 233.5t-70.5 204t-131 143.5t-201 54q-111 0 -191.5 -55t-132 -144.5t-76 -203t-24.5 -230.5zM467 1515q6 33 20.5 70t37.5 68.5t55.5 52t74.5 20.5q39 0 75 -17t69.5 -37t63.5 -36.5t56 -17.5q31 0 52.5 25t35.5 73q6 21 29 16 q24 -5 24 -16q0 -29 -10 -67.5t-30.5 -73t-50 -58.5t-68.5 -24q-42 0 -81 18.5t-74.5 40t-68 40t-63.5 18.5q-15 0 -29 -8.5t-25.5 -22.5t-20.5 -32t-15 -36q-4 -9 -12.5 -13t-18.5 -4q-11 0 -20 5t-6 16z" />
<glyph unicode="&#xd6;" horiz-adv-x="1536" d="M82 707q0 155 51 286t142.5 225.5t218.5 146.5t280 52q150 0 275 -50t215 -142t140 -222.5t50 -289.5q0 -178 -54 -314.5t-147.5 -229.5t-218.5 -141t-266 -48q-322 0 -504 182t-182 545zM344 698q0 -123 20.5 -237.5t69.5 -201.5t132 -140t210 -53q101 0 177.5 53 t130 140t81 200.5t27.5 236.5q0 119 -21.5 233.5t-70.5 204t-131 143.5t-201 54q-111 0 -191.5 -55t-132 -144.5t-76 -203t-24.5 -230.5zM475 1686q0 43 31.5 71.5t72.5 28.5t73 -29.5t32 -70.5q0 -45 -29.5 -77t-75.5 -32q-47 0 -75.5 32t-28.5 77zM878 1686q0 43 32 71.5 t73 28.5t72.5 -29.5t31.5 -70.5q0 -45 -28.5 -77t-75.5 -32q-45 0 -75 32t-30 77z" />
<glyph unicode="&#xd7;" horiz-adv-x="1024" d="M115 186l338 338l-326 328l66 66l325 -328l328 332l65 -66l-327 -332l338 -336l-66 -65l-338 336l-338 -338z" />
<glyph unicode="&#xd8;" horiz-adv-x="1536" d="M82 707q0 156 51 286.5t142.5 224.5t218.5 146.5t280 52.5q134 0 246 -39.5t199 -111.5l116 131q9 11 23.5 8.5t26.5 -12t17 -22.5t-5 -23l-121 -138q87 -93 132.5 -218t45.5 -279q0 -178 -54 -314.5t-147.5 -229.5t-218.5 -141t-266 -48q-276 0 -451 133l-118 -136 q-9 -10 -24.5 -7t-28 13.5t-18.5 25t5 26.5l121 137q-172 184 -172 535zM344 698q0 -99 12.5 -191.5t40.5 -170.5l703 794q-49 91 -130 146t-202 55q-111 0 -191.5 -55t-132 -144.5t-76 -203t-24.5 -230.5zM438 250q49 -86 131 -135t207 -49q100 0 177.5 52.5t130.5 140 t80.5 201.5t27.5 236q0 96 -13.5 185t-41.5 170z" />
<glyph unicode="&#xd9;" horiz-adv-x="1620" d="M53 1349.5q0 12.5 6.5 22.5t18.5 10q65 0 149 -7t158 -7q43 0 81 2t73.5 5t72.5 5t80 2q13 0 18 -10t4 -22.5t-7.5 -23.5t-16.5 -11q-63 -4 -102 -17.5t-59.5 -41t-26.5 -72.5t-6 -115v-559q0 -86 22.5 -164t68.5 -136t115.5 -93t163.5 -35q199 0 303.5 109.5 t104.5 347.5v346v81t-2 96t-6 92t-13 69q-10 34 -21 51.5t-27.5 26t-41 9.5t-61.5 5q-10 0 -15.5 11t-5.5 23.5t4.5 22.5t16.5 10q49 0 104.5 -7t112.5 -7q53 0 106.5 7t118.5 7q12 0 18.5 -10t6.5 -22.5t-6.5 -23.5t-18.5 -11q-37 -4 -58.5 -5t-35.5 -9.5t-25.5 -26 t-25.5 -51.5q-10 -25 -15.5 -68t-7.5 -91t-1 -97t1 -86v-340q0 -133 -29.5 -238.5t-94 -178.5t-169 -112t-254.5 -39q-143 0 -248.5 29t-174 91.5t-101.5 161.5t-33 241v573q0 64 -7 109t-27.5 73.5t-58.5 44t-101 19.5q-12 0 -18.5 11t-6.5 23.5zM580 1790q0 31 28.5 57.5 t63.5 26.5q30 0 58 -22.5t50 -45.5q70 -65 136.5 -116.5t144.5 -100.5q16 -10 16 -28q0 -17 -16.5 -31t-38.5 -6q-98 30 -182 68t-162 85q-33 17 -65.5 45.5t-32.5 67.5z" />
<glyph unicode="&#xda;" horiz-adv-x="1620" d="M53 1349.5q0 12.5 6.5 22.5t18.5 10q65 0 149 -7t158 -7q43 0 81 2t73.5 5t72.5 5t80 2q13 0 18 -10t4 -22.5t-7.5 -23.5t-16.5 -11q-63 -4 -102 -17.5t-59.5 -41t-26.5 -72.5t-6 -115v-559q0 -86 22.5 -164t68.5 -136t115.5 -93t163.5 -35q199 0 303.5 109.5 t104.5 347.5v346v81t-2 96t-6 92t-13 69q-10 34 -21 51.5t-27.5 26t-41 9.5t-61.5 5q-10 0 -15.5 11t-5.5 23.5t4.5 22.5t16.5 10q49 0 104.5 -7t112.5 -7q53 0 106.5 7t118.5 7q12 0 18.5 -10t6.5 -22.5t-6.5 -23.5t-18.5 -11q-37 -4 -58.5 -5t-35.5 -9.5t-25.5 -26 t-25.5 -51.5q-10 -25 -15.5 -68t-7.5 -91t-1 -97t1 -86v-340q0 -133 -29.5 -238.5t-94 -178.5t-169 -112t-254.5 -39q-143 0 -248.5 29t-174 91.5t-101.5 161.5t-33 241v573q0 64 -7 109t-27.5 73.5t-58.5 44t-101 19.5q-12 0 -18.5 11t-6.5 23.5zM705 1561q0 18 16 28 q78 49 144.5 100.5t136.5 116.5q11 12 23.5 24t26 21.5t28.5 16t30 6.5q34 0 63 -27q29 -26 29 -57q0 -40 -33 -68q-31 -28 -65 -45q-78 -48 -161.5 -85.5t-182.5 -67.5q-12 -4 -22 -2t-17.5 8t-11.5 14t-4 17z" />
<glyph unicode="&#xdb;" horiz-adv-x="1620" d="M53 1349.5q0 12.5 6.5 22.5t18.5 10q65 0 149 -7t158 -7q43 0 81 2t73.5 5t72.5 5t80 2q13 0 18 -10t4 -22.5t-7.5 -23.5t-16.5 -11q-63 -4 -102 -17.5t-59.5 -41t-26.5 -72.5t-6 -115v-559q0 -86 22.5 -164t68.5 -136t115.5 -93t163.5 -35q199 0 303.5 109.5 t104.5 347.5v346v81t-2 96t-6 92t-13 69q-10 34 -21 51.5t-27.5 26t-41 9.5t-61.5 5q-10 0 -15.5 11t-5.5 23.5t4.5 22.5t16.5 10q49 0 104.5 -7t112.5 -7q53 0 106.5 7t118.5 7q12 0 18.5 -10t6.5 -22.5t-6.5 -23.5t-18.5 -11q-37 -4 -58.5 -5t-35.5 -9.5t-25.5 -26 t-25.5 -51.5q-10 -25 -15.5 -68t-7.5 -91t-1 -97t1 -86v-340q0 -133 -29.5 -238.5t-94 -178.5t-169 -112t-254.5 -39q-143 0 -248.5 29t-174 91.5t-101.5 161.5t-33 241v573q0 64 -7 109t-27.5 73.5t-58.5 44t-101 19.5q-12 0 -18.5 11t-6.5 23.5zM607.5 1541.5 q-3.5 10.5 5.5 18.5q66 60 130.5 128.5t127.5 134.5q16 16 35 16q18 0 32 -14q60 -60 115 -112t121 -106q8 -6 6 -17.5t-10 -24.5t-20.5 -25.5t-26.5 -21.5t-26.5 -12t-21.5 3q-60 45 -109.5 93t-103.5 102q-40 -42 -92.5 -90.5t-109.5 -96.5q-8 -8 -19.5 -5t-20.5 11 t-12.5 18.5z" />
<glyph unicode="&#xdc;" horiz-adv-x="1620" d="M53 1349.5q0 12.5 6.5 22.5t18.5 10q65 0 149 -7t158 -7q43 0 81 2t73.5 5t72.5 5t80 2q13 0 18 -10t4 -22.5t-7.5 -23.5t-16.5 -11q-63 -4 -102 -17.5t-59.5 -41t-26.5 -72.5t-6 -115v-559q0 -86 22.5 -164t68.5 -136t115.5 -93t163.5 -35q199 0 303.5 109.5 t104.5 347.5v346v81t-2 96t-6 92t-13 69q-10 34 -21 51.5t-27.5 26t-41 9.5t-61.5 5q-10 0 -15.5 11t-5.5 23.5t4.5 22.5t16.5 10q49 0 104.5 -7t112.5 -7q53 0 106.5 7t118.5 7q12 0 18.5 -10t6.5 -22.5t-6.5 -23.5t-18.5 -11q-37 -4 -58.5 -5t-35.5 -9.5t-25.5 -26 t-25.5 -51.5q-10 -25 -15.5 -68t-7.5 -91t-1 -97t1 -86v-340q0 -133 -29.5 -238.5t-94 -178.5t-169 -112t-254.5 -39q-143 0 -248.5 29t-174 91.5t-101.5 161.5t-33 241v573q0 64 -7 109t-27.5 73.5t-58.5 44t-101 19.5q-12 0 -18.5 11t-6.5 23.5zM573 1696q0 43 31.5 71.5 t72.5 28.5t73 -29.5t32 -70.5q0 -45 -29.5 -77t-75.5 -32q-47 0 -75.5 32t-28.5 77zM976 1696q0 43 32 71.5t73 28.5t72.5 -29.5t31.5 -70.5q0 -45 -28.5 -77t-75.5 -32q-45 0 -75 32t-30 77z" />
<glyph unicode="&#xdd;" horiz-adv-x="1329" d="M-33 1349.5q0 12.5 6.5 22.5t16.5 10q82 0 153.5 -6t141.5 -6q75 0 151 6t148 6q14 0 20 -10t6 -22.5t-7 -22.5t-19 -12q-78 -8 -110 -26.5t-32 -53.5q0 -39 39 -113l244 -465q6 -10 17.5 -10t17.5 10q57 93 107.5 182t88 164.5t59 132t21.5 85.5q0 30 -9 47.5t-27.5 27 t-44 12.5t-56.5 7q-12 2 -17 12t-5 22.5t6 22.5t16 10q76 0 132 -6t114 -6q47 0 97 6t110 6q12 0 17 -10t5 -22.5t-6 -23.5t-18 -11q-76 -6 -142 -74q-20 -20 -60 -83.5t-95.5 -157t-124 -208t-142.5 -239.5v-289q0 -67 8.5 -105t30 -58.5t60.5 -30t100 -15.5 q12 -2 19.5 -13t7.5 -23.5t-7.5 -22.5t-21.5 -10q-82 0 -156.5 9t-148.5 9q-78 0 -161 -9t-150 -9q-13 0 -19 10t-6 22.5t6 23.5t19 13q63 6 101 15.5t59.5 30t28.5 58.5t7 105v268q-78 140 -143.5 263t-118.5 218t-94 160.5t-66 92.5q-26 28 -62 34.5t-89 14.5 q-10 2 -16.5 12t-6.5 22.5zM627 1561q0 18 16 28q78 49 144.5 100.5t136.5 116.5q11 12 23.5 24t26 21.5t28.5 16t30 6.5q34 0 63 -27q29 -26 29 -57q0 -40 -33 -68q-31 -28 -65 -45q-78 -48 -161.5 -85.5t-182.5 -67.5q-12 -4 -22 -2t-17.5 8t-11.5 14t-4 17z" />
<glyph unicode="&#xde;" horiz-adv-x="1159" d="M51 20.5q0 12.5 6 23.5t19 13q63 6 101 15.5t59.5 30t28.5 58.5t7 105v803q0 64 -7 109t-27.5 73.5t-58.5 44t-101 19.5q-12 0 -18.5 11t-6.5 23.5t6.5 22.5t18.5 10q65 0 149 -6t158 -6q43 0 81 2t73.5 4t72.5 4t80 2q13 0 18 -10t4 -22.5t-7.5 -23.5t-16.5 -11 q-59 -4 -97 -12.5t-59.5 -27t-29.5 -48t-8 -78.5q0 -57 5 -65.5t36 -4.5q28 4 60 6t58 2q88 0 169 -18t142.5 -63t98.5 -118t37 -179q0 -109 -44 -184.5t-115 -124t-160 -71t-181 -20.5h-43t-43 2q-8 0 -12 -1t-6 -12t-2 -34.5v-66.5q0 -41 8 -66t29.5 -38t60.5 -21.5 t100 -14.5q13 -2 20 -13t7 -23.5t-7 -22.5t-22 -10q-82 0 -156.5 8t-148.5 8q-78 0 -161 -8t-150 -8q-13 0 -19 10t-6 22.5zM496 408q12 -5 25.5 -6t35.5 -1q174 0 245.5 75t71.5 245q0 139 -57 212t-194 73q-56 0 -79.5 -3.5t-47.5 -11.5v-583z" />
<glyph unicode="&#xdf;" horiz-adv-x="1208" d="M35 19.5q0 11.5 5 20.5t15 11q58 8 88.5 20.5t45 33t17.5 52t3 79.5v778q0 92 28.5 169t82 131t130 85t173.5 31q73 0 144 -23t125 -65t87 -101t33 -131q0 -68 -23.5 -117t-58.5 -81.5t-79 -53t-83 -33.5q80 -10 145.5 -38.5t112.5 -80t72.5 -124t25.5 -170.5 q0 -117 -35.5 -199t-93 -134t-128 -78t-138.5 -26q-113 0 -165 43t-52 97q0 43 24.5 72.5t71.5 29.5q35 0 64.5 -19.5t29.5 -54.5q0 -22 -12 -35.5t-12 -29.5q0 -15 7 -27t54 -12q27 0 58.5 11t58.5 50t44.5 112t17.5 194q0 88 -24 155.5t-65 113.5t-97 71.5t-124 29.5 q-8 0 -13 10.5t-6 22.5t3 22.5t14 12.5q62 8 104 33.5t66.5 62.5t34.5 83t10 95q0 105 -51 171.5t-143 66.5q-49 0 -91 -13.5t-72 -47t-46.5 -93t-16.5 -149.5v-805q0 -60 1 -92.5t4.5 -53t8.5 -32t13 -27.5q4 -10 -3 -26.5t-24 -16.5h-131q-53 0 -102 -5t-115 -5 q-8 0 -13 9t-5 20.5z" />
<glyph unicode="&#xe0;" horiz-adv-x="1006" d="M72 219q0 151 136.5 231t399.5 80q3 0 4.5 2t2 12.5t1 32t0.5 60.5q0 51 -8 96t-30 79t-60 53.5t-98 19.5t-105 -30t-45 -77q0 -21 14 -44q15 -21 15 -44q0 -28 -29 -55t-69 -27q-56 0 -79.5 30t-23.5 73q0 52 29 97t78 78.5t114.5 52.5t137.5 19q164 0 258 -76 q94 -75 94 -251v-410q0 -72 15.5 -100.5t49.5 -28.5q23 0 37.5 5t40.5 22q10 9 27 -12q16 -21 4 -33q-35 -42 -83 -68t-97 -26q-63 0 -105.5 24.5t-68.5 81.5q-4 9 -13 2q-56 -46 -125 -78q-68 -30 -172 -30q-118 0 -182.5 62t-64.5 177zM215 1401q0 16 8 29.5t21.5 23 t30 14.5t34.5 5q41 0 64 -33q23 -32 42 -68q24 -41 47.5 -78t48.5 -72.5t51 -70t56 -70.5q10 -12 8 -25.5t-13 -25t-24 -11.5t-28 11q-86 60 -153.5 121t-129.5 129q-24 25 -43.5 55.5t-19.5 65.5zM274 242q0 -31 7.5 -58t23.5 -46.5t41.5 -30.5t61.5 -11q48 0 99 18.5 t93 53.5q16 16 16 33v229q0 23 -2 28t-10 5q-168 -14 -249 -72.5t-81 -148.5z" />
<glyph unicode="&#xe1;" horiz-adv-x="1006" d="M72 219q0 151 136.5 231t399.5 80q3 0 4.5 2t2 12.5t1 32t0.5 60.5q0 51 -8 96t-30 79t-60 53.5t-98 19.5t-105 -30t-45 -77q0 -21 14 -44q15 -21 15 -44q0 -28 -29 -55t-69 -27q-56 0 -79.5 30t-23.5 73q0 52 29 97t78 78.5t114.5 52.5t137.5 19q164 0 258 -76 q94 -75 94 -251v-410q0 -72 15.5 -100.5t49.5 -28.5q23 0 37.5 5t40.5 22q10 9 27 -12q16 -21 4 -33q-35 -42 -83 -68t-97 -26q-63 0 -105.5 24.5t-68.5 81.5q-4 9 -13 2q-56 -46 -125 -78q-68 -30 -172 -30q-118 0 -182.5 62t-64.5 177zM274 242q0 -31 7.5 -58t23.5 -46.5 t41.5 -30.5t61.5 -11q48 0 99 18.5t93 53.5q16 16 16 33v229q0 23 -2 28t-10 5q-168 -14 -249 -72.5t-81 -148.5zM395 1055.5q-2 13.5 8 25.5q59 72 107.5 140.5t95.5 150.5q17 34 41 68q24 33 65 33q18 0 34.5 -5t30 -14.5t21.5 -23t8 -29.5q0 -35 -19 -65.5t-44 -55.5 q-61 -69 -128.5 -129.5t-154.5 -120.5q-15 -11 -29.5 -8.5t-24 11.5t-11.5 22.5z" />
<glyph unicode="&#xe2;" horiz-adv-x="1006" d="M72 219q0 151 136.5 231t399.5 80q3 0 4.5 2t2 12.5t1 32t0.5 60.5q0 51 -8 96t-30 79t-60 53.5t-98 19.5t-105 -30t-45 -77q0 -21 14 -44q15 -21 15 -44q0 -28 -29 -55t-69 -27q-56 0 -79.5 30t-23.5 73q0 52 29 97t78 78.5t114.5 52.5t137.5 19q164 0 258 -76 q94 -75 94 -251v-410q0 -72 15.5 -100.5t49.5 -28.5q23 0 37.5 5t40.5 22q10 9 27 -12q16 -21 4 -33q-35 -42 -83 -68t-97 -26q-63 0 -105.5 24.5t-68.5 81.5q-4 9 -13 2q-56 -46 -125 -78q-68 -30 -172 -30q-118 0 -182.5 62t-64.5 177zM191.5 1045.5q-3.5 10.5 5.5 18.5 q66 60 130.5 128.5t127.5 134.5q16 16 35 16q18 0 32 -14q60 -60 115 -112t121 -106q8 -6 6 -17.5t-10 -24.5t-20.5 -25.5t-26.5 -21.5t-26.5 -12t-21.5 3q-60 45 -109.5 93t-103.5 102q-40 -42 -92.5 -90.5t-109.5 -96.5q-8 -8 -19.5 -5t-20.5 11t-12.5 18.5zM274 242 q0 -31 7.5 -58t23.5 -46.5t41.5 -30.5t61.5 -11q48 0 99 18.5t93 53.5q16 16 16 33v229q0 23 -2 28t-10 5q-168 -14 -249 -72.5t-81 -148.5z" />
<glyph unicode="&#xe3;" horiz-adv-x="1006" d="M72 219q0 151 136.5 231t399.5 80q3 0 4.5 2t2 12.5t1 32t0.5 60.5q0 51 -8 96t-30 79t-60 53.5t-98 19.5t-105 -30t-45 -77q0 -21 14 -44q15 -21 15 -44q0 -28 -29 -55t-69 -27q-56 0 -79.5 30t-23.5 73q0 52 29 97t78 78.5t114.5 52.5t137.5 19q164 0 258 -76 q94 -75 94 -251v-410q0 -72 15.5 -100.5t49.5 -28.5q23 0 37.5 5t40.5 22q10 9 27 -12q16 -21 4 -33q-35 -42 -83 -68t-97 -26q-63 0 -105.5 24.5t-68.5 81.5q-4 9 -13 2q-56 -46 -125 -78q-68 -30 -172 -30q-118 0 -182.5 62t-64.5 177zM162 1083q6 33 20.5 70t37.5 68.5 t55.5 52t74.5 20.5q39 0 75 -17t69.5 -37t63.5 -36.5t56 -17.5q31 0 52.5 25t35.5 73q6 21 29 16q24 -5 24 -16q0 -29 -10 -67.5t-30.5 -73t-50 -58.5t-68.5 -24q-42 0 -81 18.5t-74.5 40t-68 40t-63.5 18.5q-15 0 -29 -8.5t-25.5 -22.5t-20.5 -32t-15 -36q-4 -9 -12.5 -13 t-18.5 -4q-11 0 -20 5t-6 16zM274 242q0 -31 7.5 -58t23.5 -46.5t41.5 -30.5t61.5 -11q48 0 99 18.5t93 53.5q16 16 16 33v229q0 23 -2 28t-10 5q-168 -14 -249 -72.5t-81 -148.5z" />
<glyph unicode="&#xe4;" horiz-adv-x="1006" d="M72 219q0 151 136.5 231t399.5 80q3 0 4.5 2t2 12.5t1 32t0.5 60.5q0 51 -8 96t-30 79t-60 53.5t-98 19.5t-105 -30t-45 -77q0 -21 14 -44q15 -21 15 -44q0 -28 -29 -55t-69 -27q-56 0 -79.5 30t-23.5 73q0 52 29 97t78 78.5t114.5 52.5t137.5 19q164 0 258 -76 q94 -75 94 -251v-410q0 -72 15.5 -100.5t49.5 -28.5q23 0 37.5 5t40.5 22q10 9 27 -12q16 -21 4 -33q-35 -42 -83 -68t-97 -26q-63 0 -105.5 24.5t-68.5 81.5q-4 9 -13 2q-56 -46 -125 -78q-68 -30 -172 -30q-118 0 -182.5 62t-64.5 177zM156 1213q0 43 31.5 71.5t72.5 28.5 t73 -29.5t32 -70.5q0 -45 -29.5 -77t-75.5 -32q-47 0 -75.5 32t-28.5 77zM274 242q0 -31 7.5 -58t23.5 -46.5t41.5 -30.5t61.5 -11q48 0 99 18.5t93 53.5q16 16 16 33v229q0 23 -2 28t-10 5q-168 -14 -249 -72.5t-81 -148.5zM559 1213q0 43 32 71.5t73 28.5t72.5 -29.5 t31.5 -70.5q0 -45 -28.5 -77t-75.5 -32q-45 0 -75 32t-30 77z" />
<glyph unicode="&#xe5;" horiz-adv-x="1006" d="M72 219q0 151 136.5 231t399.5 80q3 0 4.5 2t2 12.5t1 32t0.5 60.5q0 51 -8 96t-30 79t-60 53.5t-98 19.5t-105 -30t-45 -77q0 -21 14 -44q15 -21 15 -44q0 -28 -29 -55t-69 -27q-56 0 -79.5 30t-23.5 73q0 52 29 97t78 78.5t114.5 52.5t137.5 19q164 0 258 -76 q94 -75 94 -251v-410q0 -72 15.5 -100.5t49.5 -28.5q23 0 37.5 5t40.5 22q10 9 27 -12q16 -21 4 -33q-35 -42 -83 -68t-97 -26q-63 0 -105.5 24.5t-68.5 81.5q-4 9 -13 2q-56 -46 -125 -78q-68 -30 -172 -30q-118 0 -182.5 62t-64.5 177zM241 1270q0 49 18.5 89t50.5 68.5 t74 44t89 15.5q94 0 160.5 -58.5t66.5 -156.5q0 -105 -66.5 -161t-160.5 -56q-98 0 -165 55t-67 160zM274 242q0 -31 7.5 -58t23.5 -46.5t41.5 -30.5t61.5 -11q48 0 99 18.5t93 53.5q16 16 16 33v229q0 23 -2 28t-10 5q-168 -14 -249 -72.5t-81 -148.5zM354 1272 q0 -72 31 -115t86 -43t86 43t31 117q0 72 -31 112.5t-86 40.5t-86 -42t-31 -113z" />
<glyph unicode="&#xe6;" horiz-adv-x="1460" d="M72 223q0 66 30.5 123t96 100t166 69t239.5 26q4 37 8 60.5t9 51.5q0 41 -8.5 82t-28 75t-52 54.5t-81.5 20.5q-78 0 -129.5 -30t-51.5 -77q0 -22 14.5 -43.5t14.5 -44.5q0 -35 -30.5 -58.5t-67.5 -23.5q-49 0 -76 29t-27 76q0 55 35 100t88 77t117.5 50t124.5 18 q96 0 157.5 -21.5t110.5 -70.5q10 -14 25 -4q57 45 125.5 70.5t154.5 25.5q97 0 169.5 -32.5t121.5 -87t73.5 -122t24.5 -134.5q0 -23 -5 -41.5t-21 -18.5h-578q-16 0 -19 -7t-3 -36q0 -73 18.5 -140t57 -117t101 -80.5t148.5 -30.5q66 0 127.5 10t120.5 51q12 8 23.5 6 t17.5 -10t8 -18.5t-2 -16.5q-57 -76 -137 -114.5t-215 -38.5q-47 0 -100.5 7t-104.5 25.5t-97 47t-79 71.5q-6 10 -9 9t-9 -9q-66 -78 -156 -114.5t-193 -36.5q-71 0 -119 21.5t-77 57t-40 78.5t-11 86zM270 254q0 -29 5.5 -56.5t18.5 -50t36.5 -36t62.5 -13.5 q60 0 130.5 24.5t117.5 96.5q-25 66 -33 125t-12 119q-53 0 -110.5 -13.5t-104.5 -40t-79 -65.5t-32 -90zM807 610q0 -12 3 -14t17 -2h369q16 0 21.5 19.5t5.5 48.5q0 36 -11.5 76t-35 73t-61.5 53.5t-91 20.5q-55 0 -95 -22.5t-67.5 -60.5t-41 -87t-13.5 -105z" />
<glyph unicode="&#xe7;" horiz-adv-x="934" d="M72 469q0 111 33.5 201.5t98 154t159 98.5t217.5 35q58 0 114 -14t99 -42t69.5 -68.5t26.5 -92.5q0 -18 -5.5 -35.5t-17 -31.5t-30 -22.5t-45.5 -8.5q-43 0 -71 20.5t-28 63.5q0 29 15 47q16 19 16 35q0 37 -49 56q-51 20 -109 20q-84 0 -138 -34t-85 -89t-43 -125 t-12 -141q0 -81 18 -152.5t56 -125t98 -84t143 -30.5q36 0 71.5 5t68 18t61.5 34t53 54q6 11 17 12t20 -4.5t14.5 -14.5t1.5 -18q-45 -104 -129 -155q-83 -50 -176 -58q-18 -2 -32 -10t-23 -20t-12 -26.5t0 -29.5q29 -2 62.5 -14t62 -33.5t47 -53t18.5 -73.5 q0 -54 -21 -94.5t-56.5 -66.5t-82 -39t-98.5 -13q-44 0 -75.5 12.5t-53 32t-34.5 42t-19 42.5q-4 19 19 28q24 9 32 -5q18 -37 50.5 -56.5t74.5 -19.5q54 0 87.5 36.5t33.5 96.5q0 42 -29 73.5t-90 41.5q-16 4 -14 18q7 75 38 129q-80 7 -155.5 37t-133.5 88.5t-93 149 t-35 219.5z" />
<glyph unicode="&#xe8;" horiz-adv-x="997" d="M78 469q0 102 34 191t94.5 155t145.5 104.5t187 38.5q86 0 156 -29.5t120 -82t77.5 -124.5t27.5 -157q0 -43 -31 -43h-584q-10 0 -11 -7t-1 -17q0 -107 25.5 -180.5t70 -119.5t104 -66.5t128.5 -20.5t134 13t119 52q16 15 34 -8q19 -22 5 -37q-67 -84 -148 -118 q-81 -33 -202 -33q-123 0 -214 37t-151.5 102.5t-90 155t-29.5 194.5zM277 1401q0 16 8 29.5t21.5 23t30 14.5t34.5 5q41 0 64 -33q23 -32 42 -68q24 -41 47.5 -78t48.5 -72.5t51 -70t56 -70.5q10 -12 8 -25.5t-13 -25t-24 -11.5t-28 11q-86 60 -153.5 121t-129.5 129 q-24 25 -43.5 55.5t-19.5 65.5zM298 609.5q1 -15.5 9 -15.5h373q15 0 22.5 5.5t10.5 15t3.5 22t0.5 27.5q0 43 -13.5 82.5t-38 70.5t-60 49.5t-79.5 18.5q-56 0 -95.5 -19.5t-66.5 -52t-42 -75t-21 -89.5q-4 -24 -3 -39.5z" />
<glyph unicode="&#xe9;" horiz-adv-x="997" d="M78 469q0 102 34 191t94.5 155t145.5 104.5t187 38.5q86 0 156 -29.5t120 -82t77.5 -124.5t27.5 -157q0 -43 -31 -43h-584q-10 0 -11 -7t-1 -17q0 -107 25.5 -180.5t70 -119.5t104 -66.5t128.5 -20.5t134 13t119 52q16 15 34 -8q19 -22 5 -37q-67 -84 -148 -118 q-81 -33 -202 -33q-123 0 -214 37t-151.5 102.5t-90 155t-29.5 194.5zM298 609.5q1 -15.5 9 -15.5h373q15 0 22.5 5.5t10.5 15t3.5 22t0.5 27.5q0 43 -13.5 82.5t-38 70.5t-60 49.5t-79.5 18.5q-56 0 -95.5 -19.5t-66.5 -52t-42 -75t-21 -89.5q-4 -24 -3 -39.5zM408 1055.5 q-2 13.5 8 25.5q59 72 107.5 140.5t95.5 150.5q17 34 41 68q24 33 65 33q18 0 34.5 -5t30 -14.5t21.5 -23t8 -29.5q0 -35 -19 -65.5t-44 -55.5q-61 -69 -128.5 -129.5t-154.5 -120.5q-15 -11 -29.5 -8.5t-24 11.5t-11.5 22.5z" />
<glyph unicode="&#xea;" horiz-adv-x="997" d="M78 469q0 102 34 191t94.5 155t145.5 104.5t187 38.5q86 0 156 -29.5t120 -82t77.5 -124.5t27.5 -157q0 -43 -31 -43h-584q-10 0 -11 -7t-1 -17q0 -107 25.5 -180.5t70 -119.5t104 -66.5t128.5 -20.5t134 13t119 52q16 15 34 -8q19 -22 5 -37q-67 -84 -148 -118 q-81 -33 -202 -33q-123 0 -214 37t-151.5 102.5t-90 155t-29.5 194.5zM259.5 1045.5q-3.5 10.5 5.5 18.5q66 60 130.5 128.5t127.5 134.5q16 16 35 16q18 0 32 -14q60 -60 115 -112t121 -106q8 -6 6 -17.5t-10 -24.5t-20.5 -25.5t-26.5 -21.5t-26.5 -12t-21.5 3 q-60 45 -109.5 93t-103.5 102q-40 -42 -92.5 -90.5t-109.5 -96.5q-8 -8 -19.5 -5t-20.5 11t-12.5 18.5zM298 609.5q1 -15.5 9 -15.5h373q15 0 22.5 5.5t10.5 15t3.5 22t0.5 27.5q0 43 -13.5 82.5t-38 70.5t-60 49.5t-79.5 18.5q-56 0 -95.5 -19.5t-66.5 -52t-42 -75 t-21 -89.5q-4 -24 -3 -39.5z" />
<glyph unicode="&#xeb;" horiz-adv-x="997" d="M78 469q0 102 34 191t94.5 155t145.5 104.5t187 38.5q86 0 156 -29.5t120 -82t77.5 -124.5t27.5 -157q0 -43 -31 -43h-584q-10 0 -11 -7t-1 -17q0 -107 25.5 -180.5t70 -119.5t104 -66.5t128.5 -20.5t134 13t119 52q16 15 34 -8q19 -22 5 -37q-67 -84 -148 -118 q-81 -33 -202 -33q-123 0 -214 37t-151.5 102.5t-90 155t-29.5 194.5zM227 1216q0 43 31.5 71.5t72.5 28.5t73 -29.5t32 -70.5q0 -45 -29.5 -77t-75.5 -32q-47 0 -75.5 32t-28.5 77zM298 609.5q1 -15.5 9 -15.5h373q15 0 22.5 5.5t10.5 15t3.5 22t0.5 27.5q0 43 -13.5 82.5 t-38 70.5t-60 49.5t-79.5 18.5q-56 0 -95.5 -19.5t-66.5 -52t-42 -75t-21 -89.5q-4 -24 -3 -39.5zM630 1216q0 43 32 71.5t73 28.5t72.5 -29.5t31.5 -70.5q0 -45 -28.5 -77t-75.5 -32q-45 0 -75 32t-30 77z" />
<glyph unicode="&#xec;" horiz-adv-x="586" d="M-51 1401q0 16 8 29.5t21.5 23t30 14.5t34.5 5q41 0 64 -33q23 -32 42 -68q24 -41 47.5 -78t48.5 -72.5t51 -70t56 -70.5q10 -12 8 -25.5t-13 -25t-24 -11.5t-28 11q-86 60 -153.5 121t-129.5 129q-24 25 -43.5 55.5t-19.5 65.5zM29 19.5q0 11.5 6 20.5t18 11 q53 6 83 18.5t43.5 34t15.5 53t2 79.5v329q0 88 -4.5 141.5t-18.5 81t-43 38t-78 16.5q-12 0 -18 10t-6 20.5t6 20.5t18 10q21 2 54.5 4t72.5 7.5t81 12.5t79 17q29 8 39 -8t10 -31v-657q0 -51 2 -86t14.5 -57.5t38 -35t72.5 -18.5q12 -2 18.5 -11t6.5 -20.5t-6.5 -20.5 t-18.5 -9q-37 0 -96.5 7t-120.5 7q-66 0 -128 -7t-120 -7q-10 0 -16 9t-6 20.5z" />
<glyph unicode="&#xed;" horiz-adv-x="586" d="M29 19.5q0 11.5 6 20.5t18 11q53 6 83 18.5t43.5 34t15.5 53t2 79.5v329q0 88 -4.5 141.5t-18.5 81t-43 38t-78 16.5q-12 0 -18 10t-6 20.5t6 20.5t18 10q21 2 54.5 4t72.5 7.5t81 12.5t79 17q29 8 39 -8t10 -31v-657q0 -51 2 -86t14.5 -57.5t38 -35t72.5 -18.5 q12 -2 18.5 -11t6.5 -20.5t-6.5 -20.5t-18.5 -9q-37 0 -96.5 7t-120.5 7q-66 0 -128 -7t-120 -7q-10 0 -16 9t-6 20.5zM154 1055.5q-2 13.5 8 25.5q59 72 107.5 140.5t95.5 150.5q17 34 41 68q24 33 65 33q18 0 34.5 -5t30 -14.5t21.5 -23t8 -29.5q0 -35 -19 -65.5 t-44 -55.5q-61 -69 -128.5 -129.5t-154.5 -120.5q-15 -11 -29.5 -8.5t-24 11.5t-11.5 22.5z" />
<glyph unicode="&#xee;" horiz-adv-x="586" d="M-25.5 1044.5q-3.5 10.5 5.5 18.5q66 60 130.5 128.5t127.5 134.5q16 16 35 16q18 0 32 -14q60 -60 115 -112t121 -106q8 -6 6 -17.5t-10 -24.5t-20.5 -25.5t-26.5 -21.5t-26.5 -12t-21.5 3q-60 45 -109.5 93t-103.5 102q-40 -42 -92.5 -90.5t-109.5 -96.5 q-8 -8 -19.5 -5t-20.5 11t-12.5 18.5zM29 19.5q0 11.5 6 20.5t18 11q53 6 83 18.5t43.5 34t15.5 53t2 79.5v329q0 88 -4.5 141.5t-18.5 81t-43 38t-78 16.5q-12 0 -18 10t-6 20.5t6 20.5t18 10q21 2 54.5 4t72.5 7.5t81 12.5t79 17q29 8 39 -8t10 -31v-657q0 -51 2 -86 t14.5 -57.5t38 -35t72.5 -18.5q12 -2 18.5 -11t6.5 -20.5t-6.5 -20.5t-18.5 -9q-37 0 -96.5 7t-120.5 7q-66 0 -128 -7t-120 -7q-10 0 -16 9t-6 20.5z" />
<glyph unicode="&#xef;" horiz-adv-x="586" d="M-57 1235q0 43 31.5 71.5t72.5 28.5t73 -29.5t32 -70.5q0 -45 -29.5 -77t-75.5 -32q-47 0 -75.5 32t-28.5 77zM29 19.5q0 11.5 6 20.5t18 11q53 6 83 18.5t43.5 34t15.5 53t2 79.5v329q0 88 -4.5 141.5t-18.5 81t-43 38t-78 16.5q-12 0 -18 10t-6 20.5t6 20.5t18 10 q21 2 54.5 4t72.5 7.5t81 12.5t79 17q29 8 39 -8t10 -31v-657q0 -51 2 -86t14.5 -57.5t38 -35t72.5 -18.5q12 -2 18.5 -11t6.5 -20.5t-6.5 -20.5t-18.5 -9q-37 0 -96.5 7t-120.5 7q-66 0 -128 -7t-120 -7q-10 0 -16 9t-6 20.5zM346 1235q0 43 32 71.5t73 28.5t72.5 -29.5 t31.5 -70.5q0 -45 -28.5 -77t-75.5 -32q-45 0 -75 32t-30 77z" />
<glyph unicode="&#xf0;" horiz-adv-x="1116" d="M109 440q0 99 38 180.5t103 140t151.5 90.5t182.5 32q54 0 99.5 -9.5t74.5 -19.5q12 -6 8 10q-25 91 -72.5 170.5t-107.5 145.5l-140 -111q-13 -10 -28.5 -4t-26.5 19t-13.5 29t11.5 26l135 106q-35 33 -68.5 59.5t-64.5 49.5q-11 6 -9.5 19t10.5 24t22.5 17.5t27.5 0.5 q81 -38 166 -102l150 119q12 8 26 1t24.5 -19.5t13.5 -27.5t-7 -24l-135 -109q85 -77 156 -170.5t122 -196t79 -209t28 -208.5q-1 -122 -41 -215t-108 -156t-159 -95t-194 -32q-110 0 -195 36.5t-142.5 100t-87 149t-29.5 183.5zM322 461q0 -70 12 -142.5t42.5 -132 t82.5 -97.5t131 -38q82 0 135.5 27.5t84.5 75t43 110t11 131.5q0 40 -4.5 86t-16.5 91.5t-33 87.5t-53.5 74t-77.5 51.5t-106 19.5q-66 0 -113.5 -28.5t-78 -76t-45 -109.5t-14.5 -130z" />
<glyph unicode="&#xf1;" horiz-adv-x="1204" d="M33 872.5q0 10.5 4 20.5t12 10q117 8 197 24.5t102 16.5q23 0 32 -12t9 -31q0 -4 -3 -20.5t-7 -38t-7 -41t-3 -29.5q0 -4 3 -4t5 4q14 25 43 56.5t69.5 60.5t94 49t114.5 20q146 0 228 -85t82 -275v-350q0 -55 4 -90t17 -56.5t38 -33t68 -17.5q10 -2 15 -11t5 -20.5 t-5 -20.5t-15 -9q-27 0 -91.5 7t-125.5 7q-66 0 -120.5 -7t-92.5 -7q-11 0 -16 9t-6 19.5t3 20.5t16 12q41 8 63.5 20.5t34 33t13.5 52t2 79.5v311q0 51 -3 102t-20.5 92t-51 68t-95.5 27q-123 0 -189.5 -79t-66.5 -227v-282q0 -103 33 -145t110 -54q13 -2 18 -11t5 -20.5 t-6 -20.5t-17 -9q-10 0 -35.5 2t-59.5 5t-70.5 6t-67.5 3q-66 0 -125 -7t-113 -7q-10 0 -15 9t-5 19.5t5 20.5t17 12q50 8 77.5 18.5t40 30t14.5 52t2 84.5v258q0 102 -1 168.5t-14.5 105.5t-42 55.5t-84.5 18.5q-12 0 -17 10t-5 20.5zM332 1083q6 33 20.5 70t37.5 68.5 t55.5 52t74.5 20.5q39 0 75 -17t69.5 -37t63.5 -36.5t56 -17.5q31 0 52.5 25t35.5 73q6 21 29 16q24 -5 24 -16q0 -29 -10 -67.5t-30.5 -73t-50 -58.5t-68.5 -24q-42 0 -81 18.5t-74.5 40t-68 40t-63.5 18.5q-15 0 -29 -8.5t-25.5 -22.5t-20.5 -32t-15 -36q-4 -9 -12.5 -13 t-18.5 -4q-11 0 -20 5t-6 16z" />
<glyph unicode="&#xf2;" horiz-adv-x="1094" d="M78 487q0 105 34.5 192t97 148.5t151 96t192.5 34.5q100 0 185 -30.5t146.5 -89t96.5 -144.5t35 -198q0 -125 -35 -221.5t-99.5 -162t-154.5 -99t-201 -33.5q-96 0 -178 31.5t-141.5 94t-94 157.5t-34.5 224zM266 1401q0 16 8 29.5t21.5 23t30 14.5t34.5 5q41 0 64 -33 q23 -32 42 -68q24 -41 47.5 -78t48.5 -72.5t51 -70t56 -70.5q10 -12 8 -25.5t-13 -25t-24 -11.5t-28 11q-86 60 -153.5 121t-129.5 129q-24 25 -43.5 55.5t-19.5 65.5zM293 469q0 -70 10 -143.5t39 -133t79 -98.5t128 -39q80 0 129 37t76.5 96.5t37 134t9.5 150.5 q0 78 -10.5 151.5t-37 131t-73.5 92.5t-121 35q-82 0 -133 -35t-81 -93.5t-41 -132t-11 -153.5z" />
<glyph unicode="&#xf3;" horiz-adv-x="1094" d="M78 487q0 105 34.5 192t97 148.5t151 96t192.5 34.5q100 0 185 -30.5t146.5 -89t96.5 -144.5t35 -198q0 -125 -35 -221.5t-99.5 -162t-154.5 -99t-201 -33.5q-96 0 -178 31.5t-141.5 94t-94 157.5t-34.5 224zM293 469q0 -70 10 -143.5t39 -133t79 -98.5t128 -39 q80 0 129 37t76.5 96.5t37 134t9.5 150.5q0 78 -10.5 151.5t-37 131t-73.5 92.5t-121 35q-82 0 -133 -35t-81 -93.5t-41 -132t-11 -153.5zM406 1055.5q-2 13.5 8 25.5q59 72 107.5 140.5t95.5 150.5q17 34 41 68q24 33 65 33q18 0 34.5 -5t30 -14.5t21.5 -23t8 -29.5 q0 -35 -19 -65.5t-44 -55.5q-61 -69 -128.5 -129.5t-154.5 -120.5q-15 -11 -29.5 -8.5t-24 11.5t-11.5 22.5z" />
<glyph unicode="&#xf4;" horiz-adv-x="1094" d="M78 487q0 105 34.5 192t97 148.5t151 96t192.5 34.5q100 0 185 -30.5t146.5 -89t96.5 -144.5t35 -198q0 -125 -35 -221.5t-99.5 -162t-154.5 -99t-201 -33.5q-96 0 -178 31.5t-141.5 94t-94 157.5t-34.5 224zM265.5 1047.5q-3.5 10.5 5.5 18.5q66 60 130.5 128.5 t127.5 134.5q16 16 35 16q18 0 32 -14q60 -60 115 -112t121 -106q8 -6 6 -17.5t-10 -24.5t-20.5 -25.5t-26.5 -21.5t-26.5 -12t-21.5 3q-60 45 -109.5 93t-103.5 102q-40 -42 -92.5 -90.5t-109.5 -96.5q-8 -8 -19.5 -5t-20.5 11t-12.5 18.5zM293 469q0 -70 10 -143.5 t39 -133t79 -98.5t128 -39q80 0 129 37t76.5 96.5t37 134t9.5 150.5q0 78 -10.5 151.5t-37 131t-73.5 92.5t-121 35q-82 0 -133 -35t-81 -93.5t-41 -132t-11 -153.5z" />
<glyph unicode="&#xf5;" horiz-adv-x="1094" d="M78 487q0 105 34.5 192t97 148.5t151 96t192.5 34.5q100 0 185 -30.5t146.5 -89t96.5 -144.5t35 -198q0 -125 -35 -221.5t-99.5 -162t-154.5 -99t-201 -33.5q-96 0 -178 31.5t-141.5 94t-94 157.5t-34.5 224zM261 1083q6 33 20.5 70t37.5 68.5t55.5 52t74.5 20.5 q39 0 75 -17t69.5 -37t63.5 -36.5t56 -17.5q31 0 52.5 25t35.5 73q6 21 29 16q24 -5 24 -16q0 -29 -10 -67.5t-30.5 -73t-50 -58.5t-68.5 -24q-42 0 -81 18.5t-74.5 40t-68 40t-63.5 18.5q-15 0 -29 -8.5t-25.5 -22.5t-20.5 -32t-15 -36q-4 -9 -12.5 -13t-18.5 -4 q-11 0 -20 5t-6 16zM293 469q0 -70 10 -143.5t39 -133t79 -98.5t128 -39q80 0 129 37t76.5 96.5t37 134t9.5 150.5q0 78 -10.5 151.5t-37 131t-73.5 92.5t-121 35q-82 0 -133 -35t-81 -93.5t-41 -132t-11 -153.5z" />
<glyph unicode="&#xf6;" horiz-adv-x="1094" d="M78 487q0 105 34.5 192t97 148.5t151 96t192.5 34.5q100 0 185 -30.5t146.5 -89t96.5 -144.5t35 -198q0 -125 -35 -221.5t-99.5 -162t-154.5 -99t-201 -33.5q-96 0 -178 31.5t-141.5 94t-94 157.5t-34.5 224zM246 1216q0 43 31.5 71.5t72.5 28.5t73 -29.5t32 -70.5 q0 -45 -29.5 -77t-75.5 -32q-47 0 -75.5 32t-28.5 77zM293 469q0 -70 10 -143.5t39 -133t79 -98.5t128 -39q80 0 129 37t76.5 96.5t37 134t9.5 150.5q0 78 -10.5 151.5t-37 131t-73.5 92.5t-121 35q-82 0 -133 -35t-81 -93.5t-41 -132t-11 -153.5zM649 1216q0 43 32 71.5 t73 28.5t72.5 -29.5t31.5 -70.5q0 -45 -28.5 -77t-75.5 -32q-45 0 -75 32t-30 77z" />
<glyph unicode="&#xf7;" horiz-adv-x="1024" d="M106 412v90h791v-90h-791zM393 139q0 41 32 74t77 33q47 0 76.5 -33t29.5 -74q0 -45 -29.5 -76.5t-76.5 -31.5q-45 0 -77 31.5t-32 76.5zM395 788q0 41 32 74t77 33q47 0 76.5 -33t29.5 -74q0 -45 -29.5 -76.5t-76.5 -31.5q-45 0 -77 31.5t-32 76.5z" />
<glyph unicode="&#xf8;" horiz-adv-x="1092" d="M78 487q0 105 34.5 191.5t97.5 149t150.5 96.5t192.5 34q155 0 270 -71l62 71q6 7 17.5 3.5t21.5 -12.5t15 -20t-1 -18l-59 -67q66 -60 101.5 -146.5t35.5 -201.5q0 -125 -35 -221.5t-99.5 -162t-154.5 -99t-201 -33.5q-85 0 -157 23t-129 71l-90 -94q-7 -7 -18 -3 t-20.5 13t-14.5 20t1 17l90 98q-54 63 -82 152t-28 210zM293 469q0 -48 4 -97.5t16 -97.5l424 510q-28 45 -71 72t-107 27q-81 0 -132.5 -35t-81.5 -93t-41 -132.5t-11 -153.5zM340 197q29 -62 79 -102t130 -40q79 0 128.5 37t77 96.5t37 134t9.5 150.5q0 64 -7.5 125 t-23.5 115z" />
<glyph unicode="&#xf9;" horiz-adv-x="1212" d="M32 873q0 11 5 20.5t16 9.5q103 7 184 24q42 8 70 12.5t45 4.5q21 0 29 -12t8 -27v-491q0 -82 7 -139.5t25.5 -94t51 -53t82.5 -16.5q70 0 145 24q76 25 115 60q6 6 7 22t1 25v323q0 90 -2 141t-14 78t-38 37t-75 17q-10 2 -15.5 13.5t-5.5 24.5q0 11 5 19t16 8 q110 7 181 24q73 17 106 17q17 0 26 -12.5t9 -30.5v-545q0 -83 3.5 -135.5t18.5 -82.5t45.5 -41t85.5 -11q9 0 14 -9.5t5 -20.5t-4.5 -20t-14.5 -11q-15 -3 -40 -7.5t-55 -9t-62 -9.5t-61 -9t-52.5 -7t-36.5 -3q-37 0 -37 114q0 4 -4 5t-8 -3q-76 -65 -152.5 -90.5 t-148.5 -25.5q-95 0 -156 23.5t-96 68.5t-49 111t-14 151v231q0 90 -4 141t-19 78t-43.5 37t-77.5 17q-10 0 -15.5 11t-5.5 24zM312 1401q0 16 8 29.5t21.5 23t30 14.5t34.5 5q41 0 64 -33q23 -32 42 -68q24 -41 47.5 -78t48.5 -72.5t51 -70t56 -70.5q10 -12 8 -25.5 t-13 -25t-24 -11.5t-28 11q-86 60 -153.5 121t-129.5 129q-24 25 -43.5 55.5t-19.5 65.5z" />
<glyph unicode="&#xfa;" horiz-adv-x="1212" d="M32 873q0 11 5 20.5t16 9.5q103 7 184 24q42 8 70 12.5t45 4.5q21 0 29 -12t8 -27v-491q0 -82 7 -139.5t25.5 -94t51 -53t82.5 -16.5q70 0 145 24q76 25 115 60q6 6 7 22t1 25v323q0 90 -2 141t-14 78t-38 37t-75 17q-10 2 -15.5 13.5t-5.5 24.5q0 11 5 19t16 8 q110 7 181 24q73 17 106 17q17 0 26 -12.5t9 -30.5v-545q0 -83 3.5 -135.5t18.5 -82.5t45.5 -41t85.5 -11q9 0 14 -9.5t5 -20.5t-4.5 -20t-14.5 -11q-15 -3 -40 -7.5t-55 -9t-62 -9.5t-61 -9t-52.5 -7t-36.5 -3q-37 0 -37 114q0 4 -4 5t-8 -3q-76 -65 -152.5 -90.5 t-148.5 -25.5q-95 0 -156 23.5t-96 68.5t-49 111t-14 151v231q0 90 -4 141t-19 78t-43.5 37t-77.5 17q-10 0 -15.5 11t-5.5 24zM447 1055.5q-2 13.5 8 25.5q59 72 107.5 140.5t95.5 150.5q17 34 41 68q24 33 65 33q18 0 34.5 -5t30 -14.5t21.5 -23t8 -29.5q0 -35 -19 -65.5 t-44 -55.5q-61 -69 -128.5 -129.5t-154.5 -120.5q-15 -11 -29.5 -8.5t-24 11.5t-11.5 22.5z" />
<glyph unicode="&#xfb;" horiz-adv-x="1212" d="M32 873q0 11 5 20.5t16 9.5q103 7 184 24q42 8 70 12.5t45 4.5q21 0 29 -12t8 -27v-491q0 -82 7 -139.5t25.5 -94t51 -53t82.5 -16.5q70 0 145 24q76 25 115 60q6 6 7 22t1 25v323q0 90 -2 141t-14 78t-38 37t-75 17q-10 2 -15.5 13.5t-5.5 24.5q0 11 5 19t16 8 q110 7 181 24q73 17 106 17q17 0 26 -12.5t9 -30.5v-545q0 -83 3.5 -135.5t18.5 -82.5t45.5 -41t85.5 -11q9 0 14 -9.5t5 -20.5t-4.5 -20t-14.5 -11q-15 -3 -40 -7.5t-55 -9t-62 -9.5t-61 -9t-52.5 -7t-36.5 -3q-37 0 -37 114q0 4 -4 5t-8 -3q-76 -65 -152.5 -90.5 t-148.5 -25.5q-95 0 -156 23.5t-96 68.5t-49 111t-14 151v231q0 90 -4 141t-19 78t-43.5 37t-77.5 17q-10 0 -15.5 11t-5.5 24zM328.5 1064.5q-3.5 10.5 5.5 18.5q66 60 130.5 128.5t127.5 134.5q16 16 35 16q18 0 32 -14q60 -60 115 -112t121 -106q8 -6 6 -17.5t-10 -24.5 t-20.5 -25.5t-26.5 -21.5t-26.5 -12t-21.5 3q-60 45 -109.5 93t-103.5 102q-40 -42 -92.5 -90.5t-109.5 -96.5q-8 -8 -19.5 -5t-20.5 11t-12.5 18.5z" />
<glyph unicode="&#xfc;" horiz-adv-x="1212" d="M32 873q0 11 5 20.5t16 9.5q103 7 184 24q42 8 70 12.5t45 4.5q21 0 29 -12t8 -27v-491q0 -82 7 -139.5t25.5 -94t51 -53t82.5 -16.5q70 0 145 24q76 25 115 60q6 6 7 22t1 25v323q0 90 -2 141t-14 78t-38 37t-75 17q-10 2 -15.5 13.5t-5.5 24.5q0 11 5 19t16 8 q110 7 181 24q73 17 106 17q17 0 26 -12.5t9 -30.5v-545q0 -83 3.5 -135.5t18.5 -82.5t45.5 -41t85.5 -11q9 0 14 -9.5t5 -20.5t-4.5 -20t-14.5 -11q-15 -3 -40 -7.5t-55 -9t-62 -9.5t-61 -9t-52.5 -7t-36.5 -3q-37 0 -37 114q0 4 -4 5t-8 -3q-76 -65 -152.5 -90.5 t-148.5 -25.5q-95 0 -156 23.5t-96 68.5t-49 111t-14 151v231q0 90 -4 141t-19 78t-43.5 37t-77.5 17q-10 0 -15.5 11t-5.5 24zM285 1216q0 43 31.5 71.5t72.5 28.5t73 -29.5t32 -70.5q0 -45 -29.5 -77t-75.5 -32q-47 0 -75.5 32t-28.5 77zM688 1216q0 43 32 71.5t73 28.5 t72.5 -29.5t31.5 -70.5q0 -45 -28.5 -77t-75.5 -32q-45 0 -75 32t-30 77z" />
<glyph unicode="&#xfd;" horiz-adv-x="1053" d="M-34 -537q0 43 27 74t70 31q18 0 28.5 -7t19.5 -15.5t20.5 -15.5t27.5 -7q22 0 51 28.5t60.5 72.5t63.5 98.5t58.5 105.5t46 92t27.5 60q10 24 10 43.5t-8 35.5q-65 136 -145 301.5t-152 331.5q-20 49 -36.5 80t-34 49.5t-41 28.5t-60.5 16q-8 2 -12 11.5t-3 19.5t6 18.5 t15 8.5q64 0 122.5 -5.5t117.5 -5.5t116.5 5.5t116.5 5.5q11 0 16 -8.5t5 -18.5t-5 -19.5t-16 -11.5q-65 -8 -91.5 -24.5t-26.5 -44.5q0 -41 18 -86q43 -115 88 -218.5t111 -228.5q4 -8 14 -8t14 8q64 125 112 236.5t85 218.5q6 16 10 37.5t4 31.5q0 23 -11 37.5t-28.5 22.5 t-37 12t-33.5 6q-10 2 -15.5 11.5t-5.5 19.5t5.5 18.5t15.5 8.5q39 0 80 -5.5t82 -5.5q47 0 96 5.5t78 5.5q10 0 15 -8.5t5 -19.5t-5 -20.5t-15 -9.5q-31 -4 -51.5 -14t-36 -29.5t-28.5 -49.5t-32 -71q-55 -124 -119.5 -268.5t-133 -292t-138.5 -290t-133 -265.5 q-17 -30 -41.5 -70t-58 -76t-76.5 -60.5t-94 -24.5q-48 0 -91 25.5t-43 82.5zM434 1055.5q-2 13.5 8 25.5q59 72 107.5 140.5t95.5 150.5q17 34 41 68q24 33 65 33q18 0 34.5 -5t30 -14.5t21.5 -23t8 -29.5q0 -35 -19 -65.5t-44 -55.5q-61 -69 -128.5 -129.5t-154.5 -120.5 q-15 -11 -29.5 -8.5t-24 11.5t-11.5 22.5z" />
<glyph unicode="&#xfe;" horiz-adv-x="1122" d="M18 -554q0 11 6.5 20.5t18.5 11.5q57 6 89 18t46.5 33.5t16.5 53.5t2 79v1489q0 51 -3.5 84t-16.5 52.5t-43 27.5t-83 10q-10 0 -15 10.5t-5 20.5t4 20t12 10q45 5 107.5 11t132.5 22q8 2 29.5 5t27.5 3q16 0 29.5 -8t15.5 -30v-590q0 -8 6 -2q39 65 109.5 113t175.5 48 q92 0 161.5 -37.5t116 -102t70 -148.5t23.5 -174q0 -111 -29 -205t-84 -163t-134 -107.5t-179 -38.5q-64 0 -118 9t-104 25q-10 4 -12 0t-2 -20v-322q0 -51 3 -85.5t19.5 -57.5t51.5 -35t100 -18q12 -2 17.5 -11.5t5.5 -20.5t-6.5 -20.5t-16.5 -9.5q-92 0 -150.5 7.5 t-117.5 7.5q-62 0 -125.5 -7.5t-128.5 -7.5q-10 0 -16.5 9.5t-6.5 20.5zM389 250q0 -35 14.5 -67.5t42 -59.5t67.5 -43.5t91 -16.5q64 0 108 33t71.5 89.5t40 132t12.5 159.5q0 174 -47.5 261t-157.5 87q-53 0 -97.5 -17t-76 -45t-50 -66t-18.5 -76v-371z" />
<glyph unicode="&#xff;" horiz-adv-x="1051" d="M-34 -537q0 43 27 74t70 31q18 0 28.5 -7t19.5 -15.5t20.5 -15.5t27.5 -7q22 0 51 28.5t60.5 72.5t63.5 98.5t58.5 105.5t46 92t27.5 60q10 24 10 43.5t-8 35.5q-65 136 -145 301.5t-152 331.5q-20 49 -36.5 80t-34 49.5t-41 28.5t-60.5 16q-8 2 -12 11.5t-3 19.5t6 18.5 t15 8.5q64 0 122.5 -5.5t117.5 -5.5t116.5 5.5t116.5 5.5q11 0 16 -8.5t5 -18.5t-5 -19.5t-16 -11.5q-65 -8 -91.5 -24.5t-26.5 -44.5q0 -41 18 -86q43 -115 88 -218.5t111 -228.5q4 -8 14 -8t14 8q64 125 112 236.5t85 218.5q6 16 10 37.5t4 31.5q0 23 -11 37.5t-28.5 22.5 t-37 12t-33.5 6q-10 2 -15.5 11.5t-5.5 19.5t5.5 18.5t15.5 8.5q39 0 80 -5.5t82 -5.5q47 0 96 5.5t78 5.5q10 0 15 -8.5t5 -19.5t-5 -20.5t-15 -9.5q-31 -4 -51.5 -14t-36 -29.5t-28.5 -49.5t-32 -71q-55 -124 -119.5 -268.5t-133 -292t-138.5 -290t-133 -265.5 q-17 -30 -41.5 -70t-58 -76t-76.5 -60.5t-94 -24.5q-48 0 -91 25.5t-43 82.5zM274 1216q0 43 31.5 71.5t72.5 28.5t73 -29.5t32 -70.5q0 -45 -29.5 -77t-75.5 -32q-47 0 -75.5 32t-28.5 77zM677 1216q0 43 32 71.5t73 28.5t72.5 -29.5t31.5 -70.5q0 -45 -28.5 -77t-75.5 -32 q-45 0 -75 32t-30 77z" />
<glyph unicode="&#x152;" horiz-adv-x="1997" d="M82 674q0 183 54.5 321.5t148.5 232.5t218.5 141.5t264.5 47.5q29 0 64.5 -3t71.5 -7.5t70 -10t61.5 -10t44.5 -7.5t20 -3h735q18 0 31 -4q16 -5 12 -33q-3 -16 -3.5 -35t-0.5 -40v-33q0 -45 1 -89t5 -83q0 -8 -10 -12.5t-23 -4.5t-23.5 4.5t-11.5 12.5q-11 79 -25 124.5 t-40.5 69t-71 29.5t-116.5 8h-123q-56 0 -88.5 -2t-50 -15t-22.5 -41.5t-5 -80.5v-358q0 -29 10 -36t20 -7q95 0 149 8.5t81.5 29.5t37 56.5t15.5 89.5q2 12 13 18t24 6q12 0 21.5 -6t9.5 -18q0 -33 -2 -58.5t-4.5 -51t-4.5 -53.5t-2 -64q0 -63 6 -112q4 -25 5.5 -55.5 t1.5 -66.5q0 -10 -9.5 -14.5t-20.5 -4.5q-13 0 -24.5 6t-13.5 17q-6 59 -15.5 95.5t-37 57t-81.5 27.5t-149 7q-10 0 -20 -7.5t-10 -29.5v-271q0 -93 10 -147t40 -81t86 -34.5t148 -7.5q58 0 115.5 7.5t104 34t77.5 77.5t37 139q2 10 12.5 15.5t24.5 5.5q17 0 29 -6.5 t10 -16.5q-10 -87 -18.5 -161t-6.5 -152q0 -3 -1.5 -8t-6.5 -9.5t-14.5 -8t-24.5 -3.5h-743q-49 0 -94.5 -2.5t-88.5 -7.5t-85.5 -7.5t-87.5 -2.5q-172 0 -304.5 48t-223 138t-137 218.5t-46.5 289.5zM344 696q0 -127 20.5 -241.5t71.5 -200.5t138.5 -137t222.5 -51 q49 0 94.5 5t80 23.5t55 54t20.5 97.5v788q0 36 -1.5 72.5t-7.5 69.5t-18.5 59.5t-34.5 42.5q-45 31 -101 41t-122 10q-77 0 -137.5 -26.5t-107 -72t-79.5 -107t-54 -132t-30.5 -146t-9.5 -149.5z" />
<glyph unicode="&#x153;" horiz-adv-x="1667" d="M78 481q0 105 33.5 193t95 150.5t146.5 98t188 35.5q108 0 195 -37.5t147 -109.5q6 -8 14 0q59 70 144 108.5t190 38.5q84 0 152.5 -29.5t116.5 -81.5t75 -125t27 -157q0 -43 -31 -43h-563q-11 0 -12 -9t-1 -38q0 -184 84 -277.5t213 -93.5q72 0 140.5 23t115.5 90 q8 10 18.5 11t18.5 -4t12.5 -15t-0.5 -19q-53 -110 -143 -163.5t-225 -53.5q-117 0 -201 39t-139 111q-8 10 -15 0q-124 -150 -360 -150q-92 0 -172 32t-138.5 94.5t-92 157.5t-33.5 224zM293 463q0 -70 10 -143.5t38 -134t75 -99.5t123 -39q75 0 122.5 38t74 100.5 t35.5 143.5t9 169q-2 73 -13 143t-36.5 123t-70 86t-111.5 33q-78 0 -128 -36t-79 -95.5t-39 -134t-10 -154.5zM1004 649q-7 -47 6 -47h354q27 0 31 16.5t4 45.5q0 43 -12.5 82.5t-36 70.5t-56 49.5t-75.5 18.5q-54 0 -91.5 -19.5t-63.5 -51.5t-40 -75t-20 -90z" />
<glyph unicode="&#x178;" horiz-adv-x="1427" d="M10 1349.5q0 12.5 6.5 22.5t16.5 10q82 0 153.5 -6t141.5 -6q75 0 151 6t148 6q14 0 20 -10t6 -22.5t-7 -22.5t-19 -12q-78 -8 -110 -26.5t-32 -53.5q0 -39 39 -113l244 -465q6 -10 17.5 -10t17.5 10q57 93 107.5 182t88 164.5t59 132t21.5 85.5q0 30 -9 47.5t-27.5 27 t-44 12.5t-56.5 7q-12 2 -17 12t-5 22.5t6 22.5t16 10q76 0 132 -6t114 -6q47 0 97 6t110 6q12 0 17 -10t5 -22.5t-6 -23.5t-18 -11q-76 -6 -142 -74q-20 -20 -60 -83.5t-95.5 -157t-124 -208t-142.5 -239.5v-289q0 -67 8.5 -105t30 -58.5t60.5 -30t100 -15.5 q12 -2 19.5 -13t7.5 -23.5t-7.5 -22.5t-21.5 -10q-82 0 -156.5 9t-148.5 9q-78 0 -161 -9t-150 -9q-13 0 -19 10t-6 22.5t6 23.5t19 13q63 6 101 15.5t59.5 30t28.5 58.5t7 105v268q-78 140 -143.5 263t-118.5 218t-94 160.5t-66 92.5q-26 28 -62 34.5t-89 14.5 q-10 2 -16.5 12t-6.5 22.5zM438 1696q0 43 31.5 71.5t72.5 28.5t73 -29.5t32 -70.5q0 -45 -29.5 -77t-75.5 -32q-47 0 -75.5 32t-28.5 77zM841 1696q0 43 32 71.5t73 28.5t72.5 -29.5t31.5 -70.5q0 -45 -28.5 -77t-75.5 -32q-45 0 -75 32t-30 77z" />
<glyph unicode="&#x2c6;" horiz-adv-x="612" d="M21.5 1064.5q-3.5 10.5 5.5 18.5q66 60 130.5 128.5t127.5 134.5q16 16 35 16q18 0 32 -14q60 -60 115 -112t121 -106q8 -6 6 -17.5t-10 -24.5t-20.5 -25.5t-26.5 -21.5t-26.5 -12t-21.5 3q-60 45 -109.5 93t-103.5 102q-40 -42 -92.5 -90.5t-109.5 -96.5q-8 -8 -19.5 -5 t-20.5 11t-12.5 18.5z" />
<glyph unicode="&#x2dc;" horiz-adv-x="637" d="M23 1083q6 33 20.5 70t37.5 68.5t55.5 52t74.5 20.5q39 0 75 -17t69.5 -37t63.5 -36.5t56 -17.5q31 0 52.5 25t35.5 73q6 21 29 16q24 -5 24 -16q0 -29 -10 -67.5t-30.5 -73t-50 -58.5t-68.5 -24q-42 0 -81 18.5t-74.5 40t-68 40t-63.5 18.5q-15 0 -29 -8.5t-25.5 -22.5 t-20.5 -32t-15 -36q-4 -9 -12.5 -13t-18.5 -4q-11 0 -20 5t-6 16z" />
<glyph unicode="&#x2000;" horiz-adv-x="977" />
<glyph unicode="&#x2001;" horiz-adv-x="1954" />
<glyph unicode="&#x2002;" horiz-adv-x="977" />
<glyph unicode="&#x2003;" horiz-adv-x="1954" />
<glyph unicode="&#x2004;" horiz-adv-x="651" />
<glyph unicode="&#x2005;" horiz-adv-x="488" />
<glyph unicode="&#x2006;" horiz-adv-x="325" />
<glyph unicode="&#x2007;" horiz-adv-x="325" />
<glyph unicode="&#x2008;" horiz-adv-x="244" />
<glyph unicode="&#x2009;" horiz-adv-x="390" />
<glyph unicode="&#x200a;" horiz-adv-x="108" />
<glyph unicode="&#x2010;" horiz-adv-x="532" d="M32 446q0 27 10.5 51t31.5 25l397 15q15 0 22.5 -18t7.5 -41q0 -27 -11 -50.5t-35 -24.5l-394 -14q-14 0 -21.5 17t-7.5 40z" />
<glyph unicode="&#x2011;" horiz-adv-x="532" d="M32 446q0 27 10.5 51t31.5 25l397 15q15 0 22.5 -18t7.5 -41q0 -27 -11 -50.5t-35 -24.5l-394 -14q-14 0 -21.5 17t-7.5 40z" />
<glyph unicode="&#x2012;" horiz-adv-x="532" d="M32 446q0 27 10.5 51t31.5 25l397 15q15 0 22.5 -18t7.5 -41q0 -27 -11 -50.5t-35 -24.5l-394 -14q-14 0 -21.5 17t-7.5 40z" />
<glyph unicode="&#x2013;" horiz-adv-x="1024" d="M33 447.5q0 21.5 7 39t21 17.5h902q14 0 20 -17.5t6 -39t-6 -39t-20 -17.5h-902q-14 0 -21 17.5t-7 39z" />
<glyph unicode="&#x2014;" horiz-adv-x="2048" d="M33 447.5q0 21.5 7 39t21 17.5h1926q14 0 20 -17.5t6 -39t-6 -39t-20 -17.5h-1926q-14 0 -21 17.5t-7 39z" />
<glyph unicode="&#x2018;" horiz-adv-x="387" d="M68 1094q0 67 22.5 119.5t57.5 92.5t77.5 67.5t83.5 45.5q15 6 26 -14q10 -19 -1 -29q-70 -51 -97 -89q-24 -36 -24 -77q0 -24 9.5 -37t23.5 -21.5t30.5 -15t30.5 -18t23.5 -30.5t9.5 -52q0 -48 -32 -81t-93 -33q-66 0 -106 48q-41 49 -41 124z" />
<glyph unicode="&#x2019;" horiz-adv-x="387" d="M47 1313q0 48 32 81t93 33q33 0 60 -12.5t46.5 -35.5t30 -54.5t10.5 -69.5q0 -67 -22 -119.5t-57 -92t-78 -67.5t-84 -46q-16 -6 -26 13q-11 20 1 30q71 52 96 89q25 35 25 77q0 18 -5.5 30t-14.5 20t-20.5 13t-23.5 10q-12 6 -23.5 13t-20 18.5t-14 28.5t-5.5 41z" />
<glyph unicode="&#x201a;" horiz-adv-x="387" d="M47 136q0 48 32 81t93 33q33 0 60 -12.5t46.5 -35.5t30 -54.5t10.5 -69.5q0 -67 -22 -119.5t-57 -92t-78 -67.5t-84 -46q-16 -6 -26 13q-11 20 1 30q71 52 96 89q25 35 25 77q0 18 -5.5 30t-14.5 20t-20.5 13t-23.5 10q-12 6 -23.5 13t-20 18.5t-14 28.5t-5.5 41z" />
<glyph unicode="&#x201c;" horiz-adv-x="727" d="M68 1094q0 67 22.5 119.5t57.5 92.5t77.5 67.5t83.5 45.5q15 6 26 -14q10 -19 -1 -29q-70 -51 -97 -89q-24 -36 -24 -77q0 -24 9.5 -37t23.5 -21.5t30.5 -15t30.5 -18t23.5 -30.5t9.5 -52q0 -48 -32 -81t-93 -33q-66 0 -106 48q-41 49 -41 124zM408 1094q0 67 22.5 119.5 t57.5 92.5t77.5 67.5t83.5 45.5q15 6 26 -14q10 -19 -1 -29q-70 -51 -97 -89q-24 -36 -24 -77q0 -24 9.5 -37t23.5 -21.5t30.5 -15t30.5 -18t23.5 -30.5t9.5 -52q0 -48 -32 -81t-93 -33q-66 0 -106 48q-41 49 -41 124z" />
<glyph unicode="&#x201d;" horiz-adv-x="727" d="M47 1313q0 48 32 81t93 33q33 0 60 -12.5t46.5 -35.5t30 -54.5t10.5 -69.5q0 -67 -22 -119.5t-57 -92t-78 -67.5t-84 -46q-16 -6 -26 13q-11 20 1 30q71 52 96 89q25 35 25 77q0 18 -5.5 30t-14.5 20t-20.5 13t-23.5 10q-12 6 -23.5 13t-20 18.5t-14 28.5t-5.5 41z M387 1313q0 48 32 81t93 33q33 0 60 -12.5t46.5 -35.5t30 -54.5t10.5 -69.5q0 -67 -22 -119.5t-57 -92t-78 -67.5t-84 -46q-16 -6 -26 13q-11 20 1 30q71 52 96 89q25 35 25 77q0 18 -5.5 30t-14.5 20t-20.5 13t-23.5 10q-12 6 -23.5 13t-20 18.5t-14 28.5t-5.5 41z" />
<glyph unicode="&#x201e;" horiz-adv-x="727" d="M47 136q0 48 32 81t93 33q33 0 60 -12.5t46.5 -35.5t30 -54.5t10.5 -69.5q0 -67 -22 -119.5t-57 -92t-78 -67.5t-84 -46q-16 -6 -26 13q-11 20 1 30q71 52 96 89q25 35 25 77q0 18 -5.5 30t-14.5 20t-20.5 13t-23.5 10q-12 6 -23.5 13t-20 18.5t-14 28.5t-5.5 41z M387 136q0 48 32 81t93 33q33 0 60 -12.5t46.5 -35.5t30 -54.5t10.5 -69.5q0 -67 -22 -119.5t-57 -92t-78 -67.5t-84 -46q-16 -6 -26 13q-11 20 1 30q71 52 96 89q25 35 25 77q0 18 -5.5 30t-14.5 20t-20.5 13t-23.5 10q-12 6 -23.5 13t-20 18.5t-14 28.5t-5.5 41z" />
<glyph unicode="&#x2022;" horiz-adv-x="678" d="M127 682q0 43 17.5 81t46 65.5t68.5 44t83 16.5t81 -16.5t66.5 -44t45 -65.5t16.5 -81t-17.5 -82t-46 -67.5t-67.5 -45t-84 -16.5q-41 0 -79 16.5t-66.5 45t-46 67.5t-17.5 82z" />
<glyph unicode="&#x2026;" horiz-adv-x="2048" d="M170 88q0 47 31.5 83t79.5 36q47 0 84.5 -31t37.5 -82q0 -47 -32.5 -84t-83.5 -37q-47 0 -82 34t-35 81zM907 88q0 47 32 83t79 36t85 -31t38 -82q0 -47 -33 -84t-84 -37q-47 0 -82 34t-35 81zM1645 88q0 47 31.5 83t78.5 36t85 -31t38 -82q0 -47 -33 -84t-84 -37 q-47 0 -81.5 34t-34.5 81z" />
<glyph unicode="&#x202f;" horiz-adv-x="390" />
<glyph unicode="&#x2039;" horiz-adv-x="647" d="M82 469q0 14 3 26.5t9 16.5q108 71 208 165q50 47 94 91.5t83 87.5q8 8 18.5 7t19.5 -6t14.5 -13t3.5 -15q-31 -59 -64 -107t-66.5 -90t-67.5 -80t-67 -77q70 -88 140.5 -181t126.5 -204q2 -8 -4 -18.5t-16 -18t-21.5 -8.5t-20.5 10q-38 46 -81.5 94.5t-93.5 99.5 q-50 52 -101 96.5t-105 82.5q-6 4 -9 15.5t-3 25.5z" />
<glyph unicode="&#x203a;" horiz-adv-x="647" d="M111 90q55 111 125.5 204t140.5 181q-33 39 -67 77t-68 80t-66.5 90t-62.5 107q-4 7 1.5 14.5t15 13t20 6t18.5 -6.5q39 -43 83 -87.5t94 -91.5q100 -94 208 -165q6 -4 9 -16.5t3 -26.5t-3 -25.5t-9 -15.5q-54 -38 -105 -82.5t-101 -96.5q-50 -51 -93.5 -99.5 t-81.5 -94.5q-8 -10 -20.5 -9t-23 8.5t-16.5 17.5t-1 18z" />
<glyph unicode="&#x205f;" horiz-adv-x="488" />
<glyph unicode="&#x20ac;" d="M24 572q0 19 8 37t23 18h51q-2 18 -2 39v41v38t2 33h-63q-10 0 -14.5 10t-4.5 24q0 20 9 39t26 19h60q18 111 59 206t106.5 165t155.5 110t205 40q67 0 129 -18t110 -54.5t76.5 -90.5t28.5 -126q0 -57 -27 -94t-79 -37q-22 0 -41.5 5t-34 16t-23 29t-8.5 44 q0 22 6.5 37.5t14 29t14 26t6.5 28.5q0 25 -8.5 48.5t-29 41.5t-55 28.5t-87.5 10.5q-71 0 -124 -37.5t-90 -99.5t-57.5 -142.5t-25.5 -165.5h375q11 0 16 -9.5t5 -22.5q0 -10 -2.5 -20.5t-7.5 -19.5t-11.5 -14.5t-14.5 -5.5h-364q-2 -9 -3 -36.5t-1 -56.5v-33.5t2 -24.5 h321q8 0 12 -8t4 -19q0 -10 -2.5 -21.5t-7.5 -21t-11.5 -16t-14.5 -6.5h-295q7 -82 30.5 -153.5t61.5 -124.5t88.5 -83.5t110.5 -30.5q47 0 87 4.5t76 17t69 34.5t67 57q8 9 20 8.5t22 -7.5t15.5 -17.5t1.5 -20.5q-27 -64 -68 -110.5t-92 -76.5t-109.5 -44.5t-119.5 -14.5 q-87 0 -169.5 29.5t-149 96t-111 174t-55.5 264.5h-72q-10 0 -14.5 10.5t-4.5 24.5z" />
<glyph unicode="&#x2122;" horiz-adv-x="1602" d="M27 1196v162q0 8 18 9t39 1h528q23 0 40.5 -1t17.5 -11v-162q0 -6 -8.5 -10t-18.5 -4t-17.5 4t-7.5 14q-7 71 -36 94q-28 23 -95 23q-36 0 -52.5 -7.5t-16.5 -43.5v-428q0 -34 3 -53t12 -28.5t25.5 -12.5t43.5 -5q13 -2 11 -23q-2 -20 -13 -20q-39 0 -76 4t-74 4 t-75.5 -4t-75.5 -4q-12 0 -14 20q-2 21 12 23q26 2 42 5t25 12.5t12 28.5t3 53v428q0 36 -15.5 43.5t-50.5 7.5q-73 0 -104 -23q-29 -23 -35 -98q-1 -16 -25 -14q-22 1 -22 16zM689 715q-3 22 11 24q24 2 40 5t25 12.5t13 29.5t4 56v399q1 24 -3.5 38.5t-14.5 23t-25.5 12.5 t-36.5 6q-12 1 -12 24t12 23q10 -1 32 -1t49.5 -0.5t57 -1.5t54 -2.5t41 -4t18.5 -6.5l183 -441l182 437q18 4 48 7.5t62.5 6.5t63.5 4.5t51 1.5q12 0 12 -23q0 -22 -8 -24q-49 -4 -67 -27q-17 -23 -17 -104v-359q0 -33 4 -51.5t13.5 -27t26 -11t42.5 -4.5q14 -2 12 -23 q-2 -20 -16 -20q-18 0 -40.5 1t-44 2.5t-39 3t-25.5 1.5q-39 0 -77 -4t-77 -4q-9 0 -11 20q-2 21 9 23q27 2 43.5 4.5t25.5 11t12 27t3 51.5v347l-143 -340q-17 -35 -28 -68t-26 -70q-5 -12 -27 -12t-28 12l-205 486v-344q0 -36 5.5 -56t16 -29.5t25 -12.5t33.5 -5 q10 -1 10 -24q0 -21 -12 -21q-28 0 -54 4t-56 4q-35 0 -69 -4t-65 -4q-10 0 -13 21z" />
<glyph unicode="&#xe000;" horiz-adv-x="925" d="M0 0v925h925v-925h-925z" />
</font>
</defs>
</svg>
